<?xml version="1.0" encoding="utf-8"?>
<!-- Generator: Adobe Illustrator 17.0.0, SVG Export Plug-In . SVG Version: 6.00 Build 0)  -->
<!DOCTYPE svg PUBLIC "-//W3C//DTD SVG 1.1//EN" "http://www.w3.org/Graphics/SVG/1.1/DTD/svg11.dtd">
<svg version="1.1" id="Слой_1" xmlns="http://www.w3.org/2000/svg" xmlns:xlink="http://www.w3.org/1999/xlink" x="0px" y="0px"
	 width="13px" height="12px" viewBox="0 0 13 12" enable-background="new 0 0 13 12" xml:space="preserve">
<g>
	<line fill="none" stroke="#FFFFFF" x1="1" y1="2.5" x2="10" y2="2.5"/>
	<line fill="none" stroke="#FFFFFF" x1="1" y1="5.5" x2="4.764" y2="5.5"/>
	<line fill="none" stroke="#FFFFFF" x1="1" y1="8.5" x2="5" y2="8.5"/>
	<g>
		<title>Layer 1</title>
		<g id="layer1_4_">
			<g id="path7_8_">
				<path fill="#FFFFFF" d="M9.269,4.953c0.875,0,1.586,0.668,1.586,1.491c0,1.621-1.424,2.508-3.021,3.769
					c-1.554-1.169-3.02-2.095-3.02-3.769c0-0.823,0.71-1.491,1.586-1.491c0.635,0,1.182,0.353,1.435,0.86
					C8.087,5.305,8.634,4.953,9.269,4.953 M9.269,3.953c-0.518,0-1.016,0.153-1.435,0.423c-0.418-0.27-0.917-0.423-1.435-0.423
					c-1.426,0-2.586,1.118-2.586,2.491c0,2.03,1.533,3.167,3.016,4.267l0.404,0.301l0.616,0.463l0.605-0.478
					c0.183-0.145,0.364-0.284,0.54-0.421c1.471-1.136,2.86-2.21,2.86-4.133C11.855,5.07,10.695,3.953,9.269,3.953L9.269,3.953z"/>
			</g>
		</g>
	</g>
</g>
</svg>
