<?xml version="1.0" encoding="utf-8"?>
<!-- Generator: Adobe Illustrator 17.0.0, SVG Export Plug-In . SVG Version: 6.00 Build 0)  -->
<!DOCTYPE svg PUBLIC "-//W3C//DTD SVG 1.1//EN" "http://www.w3.org/Graphics/SVG/1.1/DTD/svg11.dtd">
<svg version="1.1" id="Слой_1" xmlns="http://www.w3.org/2000/svg" xmlns:xlink="http://www.w3.org/1999/xlink" x="0px" y="0px"
	 width="11px" height="11px" viewBox="0 0 11 11" enable-background="new 0 0 11 11" xml:space="preserve">
<g>
	<title>Layer 1</title>
	<g id="layer1_5_">
		<g>
			<path fill="#FFFFFF" d="M7.637,1C8.94,1,10,2.033,10,3.302c0,2.211-1.706,3.577-3.683,5.159L6.223,8.537
				C5.986,8.727,5.745,8.92,5.501,9.12L5.497,9.117L4.891,8.65C2.803,7.045,1,5.658,1,3.302C1,2.033,2.06,1,3.363,1
				c0.545,0,1.081,0.19,1.508,0.536L5.5,2.046l0.629-0.509C6.556,1.19,7.092,1,7.637,1 M7.637,0C6.847,0,6.093,0.279,5.5,0.759
				C4.907,0.279,4.153,0,3.363,0C1.508,0,0,1.481,0,3.302C0,6.151,2.08,7.75,4.282,9.443l0.604,0.466l0.63,0.491l0.618-0.506
				C6.408,9.67,6.679,9.453,6.943,9.241C9.029,7.571,11,5.993,11,3.302C11,1.481,9.492,0,7.637,0L7.637,0z"/>
		</g>
	</g>
</g>
</svg>
