<?xml version="1.0" encoding="utf-8"?>
<!-- Generator: Adobe Illustrator 17.0.0, SVG Export Plug-In . SVG Version: 6.00 Build 0)  -->
<!DOCTYPE svg PUBLIC "-//W3C//DTD SVG 1.1//EN" "http://www.w3.org/Graphics/SVG/1.1/DTD/svg11.dtd">
<svg version="1.1" id="Слой_1" xmlns="http://www.w3.org/2000/svg" xmlns:xlink="http://www.w3.org/1999/xlink" x="0px" y="0px"
	 width="30px" height="30px" viewBox="0 0 30 30" enable-background="new 0 0 30 30" xml:space="preserve">
<g>
	<path fill="#F1F1F1" stroke="#333333" stroke-width="0.7655701" stroke-miterlimit="10" d="M14.2728186,4.4340286
		c0-0.4087191,0.3313322-0.740051,0.7400513-0.740051s0.7400503,0.331332,0.7400503,0.740051"/>
	<path fill="#F1F1F1" stroke="#333333" stroke-miterlimit="10" d="M16.4404202,24.8784714
		c0,0.394207-0.1597824,0.7510929-0.4181175,1.0094299c-0.258337,0.258337-0.6152248,0.4181213-1.0094328,0.4181213
		c-0.788415,0-1.4275513-0.6391373-1.4275513-1.4275513"/>
	<path fill="none" stroke="#333333" stroke-miterlimit="10" d="M17.2703724,24.4446278
		c4.1269855-0.0174522,6.7826023-1.633215,6.8846779-1.7161522c0.1020775-0.0829372,2.0140209-1.1625843,0.6634941-2.9346848
		c-0.5908356-0.7752686-1.3011131-1.3148289-1.7455425-2.2438393c-0.4838657-1.0114403-0.6809921-2.3993807-0.795578-2.8663406
		c-0.1069336-0.4357719-0.2235909-1.9318609-0.3317471-3.0112419c-0.1026134-1.0240479-0.144783-1.7439737-0.2085514-2.0734186
		c-0.2547321-1.3160143-0.7761841-2.0918293-1.9330635-3.2728114c-1.1849232-1.209609-3.9490652-1.8565073-3.9490652-1.8565073
		l-0.8421268-0.0197635l-0.8676462,0.0197635c0,0-2.764142,0.6468983-3.9490652,1.8565073
		C9.039278,7.5071211,8.517827,8.2829361,8.2630939,9.5989504c-0.0637684,0.3294449-0.105938,1.0493708-0.2085505,2.0734186
		c-0.1081567,1.079381-0.224813,2.57547-0.3317466,3.0112419c-0.1145873,0.46696-0.3117132,1.8549004-0.795578,2.8663406
		c-0.4444308,0.9290104-1.1547079,1.4685707-1.7455435,2.2438393c-1.3505261,1.7721004,0.5614181,2.8517475,0.6634936,2.9346848
		c0.1020761,0.0829372,2.7824154,1.698885,6.9094019,1.7161522l2.2455387,0.0119686L17.2703724,24.4446278z"/>
</g>
</svg>
