<?xml version="1.0" encoding="utf-8"?>
<!-- Generator: Adobe Illustrator 17.0.0, SVG Export Plug-In . SVG Version: 6.00 Build 0)  -->
<!DOCTYPE svg PUBLIC "-//W3C//DTD SVG 1.1//EN" "http://www.w3.org/Graphics/SVG/1.1/DTD/svg11.dtd">
<svg version="1.1" id="Слой_1" xmlns="http://www.w3.org/2000/svg" xmlns:xlink="http://www.w3.org/1999/xlink" x="0px" y="0px"
	 width="30px" height="30px" viewBox="0 0 30 30" enable-background="new 0 0 30 30" xml:space="preserve">
<g>
	<g>
		<path fill="none" stroke="#F1F1F1" stroke-miterlimit="10" d="M17.045742,26.2425117
			c0,0.4699841-0.3809986,1.2574883-0.8509846,1.2574883h-2.4678516c-0.469985,0-0.8509827-0.7875042-0.8509827-1.2574883
			l-2.0423603-13.6206656c0-0.469985,1.2034702-1.1218462,3.4039335-1.1218462h1.4466715
			c2.08992,0,3.4039345,0.6518612,3.4039345,1.1218462L17.045742,26.2425117z"/>
		<circle fill="none" stroke="#F1F1F1" stroke-miterlimit="10" cx="14.9608316" cy="6.031302" r="3.2722118"/>
	</g>
	<g>
		<path fill="none" stroke="#F1F1F1" stroke-miterlimit="10" d="M10.0268135,13.6023388
			c0-0.3411055-1.0268021-1.1023388-2.5436239-1.1023388H6.4332242c-1.5970516,0-2.470506,0.4186935-2.470506,0.759799
			l1.4823039,10.3140631C5.4450221,23.9149666,5.7215428,24.5,6.0626483,24.5H8"/>
		<circle fill="none" stroke="#F1F1F1" stroke-miterlimit="10" cx="6.9615884" cy="8.5842524" r="2.3265519"/>
	</g>
	<g>
		<path fill="none" stroke="#F1F1F1" stroke-miterlimit="10" d="M20.0463047,13.259799
			c0-0.3411055,0.8734531-0.759799,2.4705048-0.759799h1.0499668c1.5168209,0,2.4705048,0.4186935,2.4705048,0.759799
			l-1.4823036,10.3140631c0,0.3411045-0.2765198,0.9261379-0.6176262,0.9261379h-1.7911167
			c-0.3411064,0-0.6176262-0.5850334-0.6176262-0.9261379"/>
		<circle fill="none" stroke="#F1F1F1" stroke-miterlimit="10" cx="23.0451736" cy="8.5842524" r="2.3265519"/>
	</g>
</g>
</svg>
