<?xml version="1.0" encoding="utf-8"?>
<!-- Generator: Adobe Illustrator 17.0.0, SVG Export Plug-In . SVG Version: 6.00 Build 0)  -->
<!DOCTYPE svg PUBLIC "-//W3C//DTD SVG 1.1//EN" "http://www.w3.org/Graphics/SVG/1.1/DTD/svg11.dtd">
<svg version="1.1" id="Слой_1" xmlns="http://www.w3.org/2000/svg" xmlns:xlink="http://www.w3.org/1999/xlink" x="0px" y="0px"
	 width="14px" height="14px" viewBox="0 0 14 14" enable-background="new 0 0 14 14" xml:space="preserve">
<g>
	<path fill="#F2F2F2" d="M7,0c-3.8659668,0-7,3.1339722-7,7c0,3.8659668,3.1340332,7,7,7s7-3.1340332,7-7
		C14,3.1339722,10.8659668,0,7,0z M9.8284302,9.1212769c0.1952515,0.1953125,0.1952515,0.5119019,0,0.7071533
		s-0.5118408,0.1952515-0.7070923,0L7,7.7070923L4.8786621,9.8284302c-0.1952515,0.1952515-0.5118408,0.1952515-0.7070923,0
		s-0.1952515-0.5118408,0-0.7071533L6.2929077,7L4.1715698,4.8786621c-0.1952515-0.1952515-0.1952515-0.5118408,0-0.7070923
		s0.5118408-0.1952515,0.7070923,0L7,6.2929077l2.1213379-2.1213379c0.1952515-0.1952515,0.5118408-0.1952515,0.7070923,0
		s0.1952515,0.5118408,0,0.7070923L7.7070923,7L9.8284302,9.1212769z"/>
</g>
</svg>
