<?xml version="1.0" encoding="utf-8"?>
<!-- Generator: Adobe Illustrator 17.0.0, SVG Export Plug-In . SVG Version: 6.00 Build 0)  -->
<!DOCTYPE svg PUBLIC "-//W3C//DTD SVG 1.1//EN" "http://www.w3.org/Graphics/SVG/1.1/DTD/svg11.dtd">
<svg version="1.1" id="Слой_1" xmlns="http://www.w3.org/2000/svg" xmlns:xlink="http://www.w3.org/1999/xlink" x="0px" y="0px"
	 width="14px" height="14px" viewBox="0 0 14 14" enable-background="new 0 0 14 14" xml:space="preserve">
<path fill="#F2F2F2" enable-background="new    " d="M7,0C3.134,0,0,3.134,0,7c0,3.866,3.134,7,7,7s7-3.134,7-7
	C14,3.134,10.866,0,7,0z M7.558,11.312H6.55V10.04h1.008V11.312z M9.292,5.924c-0.196,0.312-0.446,0.612-0.75,0.9
	C8.294,7.072,8.096,7.266,7.948,7.406C7.8,7.546,7.69,7.684,7.618,7.82c-0.072,0.136-0.12,0.302-0.145,0.498
	C7.45,8.514,7.434,8.796,7.426,9.164H6.67C6.662,8.796,6.682,8.488,6.73,8.24c0.048-0.248,0.126-0.472,0.233-0.672
	c0.108-0.2,0.252-0.392,0.433-0.576C7.576,6.808,7.794,6.6,8.05,6.368c0.225-0.208,0.41-0.44,0.559-0.696
	C8.756,5.416,8.83,5.132,8.83,4.82c0-0.24-0.046-0.46-0.138-0.66C8.6,3.96,8.477,3.79,8.32,3.65C8.164,3.51,7.982,3.4,7.774,3.32
	C7.566,3.24,7.346,3.2,7.114,3.2c-0.32,0-0.604,0.056-0.853,0.168C6.014,3.48,5.81,3.634,5.65,3.83C5.49,4.026,5.37,4.256,5.29,4.52
	S5.174,5.072,5.182,5.384H4.426c0-0.424,0.061-0.81,0.181-1.158S4.904,3.582,5.14,3.338c0.236-0.244,0.522-0.434,0.858-0.57
	s0.72-0.204,1.152-0.204c0.336,0,0.649,0.05,0.941,0.15c0.292,0.1,0.55,0.246,0.774,0.438C9.09,3.344,9.266,3.576,9.395,3.848
	C9.521,4.12,9.586,4.432,9.586,4.784C9.586,5.232,9.488,5.612,9.292,5.924z"/>
</svg>
