<?xml version="1.0" encoding="utf-8"?>
<!-- Generator: Adobe Illustrator 17.0.0, SVG Export Plug-In . SVG Version: 6.00 Build 0)  -->
<!DOCTYPE svg PUBLIC "-//W3C//DTD SVG 1.1//EN" "http://www.w3.org/Graphics/SVG/1.1/DTD/svg11.dtd">
<svg version="1.1" id="Слой_1" xmlns="http://www.w3.org/2000/svg" xmlns:xlink="http://www.w3.org/1999/xlink" x="0px" y="0px"
	 width="14px" height="14px" viewBox="0 0 14 14" enable-background="new 0 0 14 14" xml:space="preserve">
<g>
	<path fill="#F2F2F2" d="M7,0c-3.8659668,0-7,3.1339722-7,7c0,3.8659668,3.1340332,7,7,7c3.8660278,0,7-3.1340332,7-7
		C14,3.1339722,10.8660278,0,7,0z M7.6409912,9.9719849c-0.0057983,0-0.0090942-0.0058594-0.0148315-0.0061646L7.6235962,9.9719849
		H4.2593384h-0.007019l-0.0054932-0.005188C4.0983887,9.9599609,3.9884033,9.847168,3.9667969,9.703064l-0.015564-0.0146484
		V9.6654663c0-0.0010376-0.0010986-0.0015869-0.0010986-0.0026245s0.0010986-0.0015869,0.0010986-0.0026245L3.9501343,6.2805176
		c0-0.1707153,0.1384277-0.3091431,0.3092041-0.3091431c0.0770874,0,0.1432495,0.0350952,0.1973877,0.0817871L4.463501,6.0501099
		l0.0100098,0.0100098c0.0023804,0.0022583,0.0040283,0.0039673,0.0062866,0.0062866L7.8457642,9.432373L7.8436279,9.437561
		c0.0632935,0.0566406,0.1065063,0.133667,0.1065063,0.2252808C7.9501343,9.8335571,7.8117676,9.9719849,7.6409912,9.9719849z
		 M10.0498657,7.7194214c0,0.1707764-0.1384277,0.3092041-0.3091431,0.3092041
		c-0.0770874,0-0.1431885-0.0350952-0.1973877-0.0817871L9.5365601,7.9498901L9.5265503,7.9398804
		C9.5241699,7.9376221,9.522522,7.9359741,9.5202637,7.9335938L6.1542358,4.5675659l0.0021362-0.005249
		C6.0930786,4.5056763,6.0498657,4.428772,6.0498657,4.3371582c0-0.1707764,0.1384277-0.3092041,0.3092041-0.3092041
		c0.0057983,0,0.0090942,0.0058594,0.0148315,0.0061646l0.0025635-0.0061646h3.3642578h0.007019l0.0054932,0.005188
		C9.9016113,4.039978,10.0115967,4.152771,10.0332031,4.296936l0.015564,0.0146484v0.0229492
		c0,0.0010376,0.0010986,0.0015869,0.0010986,0.0026245s-0.0010986,0.0015869-0.0010986,0.0026245L10.0498657,7.7194214z"/>
</g>
</svg>
