<?xml version="1.0" encoding="utf-8"?>
<!-- Generator: Adobe Illustrator 17.0.0, SVG Export Plug-In . SVG Version: 6.00 Build 0)  -->
<!DOCTYPE svg PUBLIC "-//W3C//DTD SVG 1.1//EN" "http://www.w3.org/Graphics/SVG/1.1/DTD/svg11.dtd">
<svg version="1.1" id="Слой_1" xmlns="http://www.w3.org/2000/svg" xmlns:xlink="http://www.w3.org/1999/xlink" x="0px" y="0px"
	 width="14px" height="14px" viewBox="0 0 14 14" enable-background="new 0 0 14 14" xml:space="preserve">
<g>
	<g>
		<path fill="#F2F2F2" d="M4.679749,5.8728333l0.0021973,0.005249h4.7603154c0.0032959,0.000061,0.0056152,0.000061,0.0088501,0
			h0.0141602l0.0026245-0.006958c0.0713501-0.0053101,0.1429443-0.0272217,0.1974487-0.0817261
			c0.1207275-0.1207275,0.1207275-0.3165283-0.000061-0.4372559L7.2747197,2.9631653
			C7.2739873,2.9624329,7.2744145,2.9612732,7.2736821,2.9605408S7.27179,2.9601746,7.2710576,2.9594421L7.2548223,2.9432068
			L7.2334599,2.9438782C7.1162114,2.8572083,6.9586797,2.8551941,6.8489385,2.9552917L6.8413701,2.9555359L6.8364263,2.9604797
			L4.45752,5.339386l0.0025635,0.0061646C4.455811,5.3493958,4.4493413,5.3475647,4.4452519,5.3516541
			c-0.1207886,0.1207886-0.1207886,0.3165283,0,0.4373169C4.5100102,5.8537292,4.5949712,5.877533,4.679749,5.8728333z"/>
		<path fill="#F2F2F2" d="M9.5424814,8.660553L9.5399179,8.6543884c0.0042725-0.0038452,0.0107422-0.0020142,0.0148315-0.0061035
			c0.1207886-0.1207886,0.1207275-0.3164673,0-0.4371948C9.4899912,8.1462708,9.4049692,8.122406,9.3201303,8.1271057
			l-0.0021362-0.005188H4.5578008c-0.0032349-0.000061-0.0056152-0.000061-0.0089111,0H4.5347295L4.532105,8.1288757
			c-0.0712891,0.005249-0.1428833,0.0272217-0.1973877,0.0817261c-0.1207886,0.1207886-0.1207886,0.3165283-0.000061,0.4372559
			l2.390625,2.3890381c0.0007324,0.0007324,0.0003052,0.0018921,0.0010376,0.0026245s0.0018921,0.0003052,0.0026245,0.0010376
			l0.0162354,0.0162354l0.0213623-0.0006104c0.1171875,0.0866089,0.2747192,0.088562,0.3845215-0.0115356l0.0075684-0.0002441
			l0.0049438-0.0049438L9.5424814,8.660553z"/>
	</g>
	<g>
		<path fill="#F2F2F2" d="M7,1.000001c3.3084097,0,6,2.6915901,6,6s-2.6915903,6-6,6s-6-2.6915903-6-6
			S3.6915901,1.000001,7,1.000001 M7,0.000001c-3.8659899,0-7,3.1340101-7,7s3.1340101,7,7,7s7-3.1340103,7-7
			S10.8659897,0.000001,7,0.000001L7,0.000001z"/>
	</g>
</g>
</svg>
