<?xml version="1.0" encoding="utf-8"?>
<!-- Generator: Adobe Illustrator 17.0.0, SVG Export Plug-In . SVG Version: 6.00 Build 0)  -->
<!DOCTYPE svg PUBLIC "-//W3C//DTD SVG 1.1//EN" "http://www.w3.org/Graphics/SVG/1.1/DTD/svg11.dtd">
<svg version="1.1" id="Слой_1" xmlns="http://www.w3.org/2000/svg" xmlns:xlink="http://www.w3.org/1999/xlink" x="0px" y="0px"
	 width="14px" height="14px" viewBox="0 0 14 14" enable-background="new 0 0 14 14" xml:space="preserve">
<g>
	<path fill="#F2F2F2" d="M2.0502446,2.0502827c-2.7336512,2.7336514-2.7336943,7.165801,0,9.8994951
		c2.7336514,2.7336512,7.165844,2.7336512,9.8994951,0c2.733695-2.7336941,2.7336512-7.1658435,0-9.8994951
		C9.2160454-0.6834117,4.7839394-0.6834117,2.0502446,2.0502827z M9.5547523,8.6482916
		C9.5506516,8.6523914,9.544178,8.6505795,9.5399055,8.6544199l0.0025463,0.0061722l-2.3788896,2.3788891l-0.0049629,0.0049629
		l-0.0075531,0.0002165c-0.1097946,0.1001272-0.267323,0.0981417-0.3844976,0.0115232l-0.0213637,0.0006475l-0.0162272-0.0162277
		c-0.0007339-0.0007343-0.0018992-0.0003452-0.0026326-0.0010796c-0.0007339-0.0007334-0.0003452-0.0018988-0.0010791-0.0026321
		L4.3346605,8.6478605C4.2139463,8.5271463,4.2139463,8.3313799,4.3347034,8.2106228
		c0.0545092-0.0545092,0.1261091-0.0764771,0.1974068-0.0817423L4.5347428,8.121932h0.0141559
		c0.0032802-0.0000858,0.0056539-0.0000429,0.0088906,0h4.7601962l0.0021572,0.0051794
		C9.4049492,8.122407,9.4899712,8.1463165,9.5547523,8.2110977C9.6754656,8.331811,9.6755095,8.5275345,9.5547523,8.6482916z
		 M9.6652803,5.3521571c0.1207571,0.1207571,0.1207571,0.3165236,0.0000439,0.4372377
		C9.610815,5.8439035,9.539258,5.865828,9.4679174,5.8711367L9.4652843,5.8780851H9.451129
		c-0.0032806,0.0000863-0.0056105,0.0000863-0.0088911,0h-4.760282L4.6797547,5.8728628
		C4.5949488,5.8775673,4.5100131,5.853744,4.4452324,5.7889633c-0.1207571-0.1207571-0.1207571-0.3165236,0-0.4372807
		c0.0040998-0.0041003,0.0105739-0.0022874,0.0148463-0.0061288L4.4575324,5.3393822L6.836422,2.9604928l0.0049634-0.0049632
		L6.848938,2.9553139c0.1097517-0.1000843,0.2672796-0.098099,0.3844976-0.0114369l0.0213637-0.0006475l0.0162272,0.0162277
		C7.2717605,2.9601908,7.2729259,2.9598024,7.2736592,2.960536c0,0,0.0003452,0.001899,0.0010791,0.0026326L9.6652803,5.3521571z"/>
</g>
</svg>
