<?xml version="1.0" encoding="utf-8"?>
<!-- Generator: Adobe Illustrator 17.0.0, SVG Export Plug-In . SVG Version: 6.00 Build 0)  -->
<!DOCTYPE svg PUBLIC "-//W3C//DTD SVG 1.1//EN" "http://www.w3.org/Graphics/SVG/1.1/DTD/svg11.dtd">
<svg version="1.1" id="Слой_1" xmlns="http://www.w3.org/2000/svg" xmlns:xlink="http://www.w3.org/1999/xlink" x="0px" y="0px"
	 width="23px" height="21px" viewBox="0 0 23 21" enable-background="new 0 0 23 21" xml:space="preserve">
<path fill="#494949" d="M9,13c0,0-0.907-0.757-1.583-0.685C6.741,12.386,5.5,12.867,5.5,14.182c0,1.559,1.839,1.555,2.705,0.929
	c0,0,1.18-0.508,1.19-2.111c0.009-1.633,0.007-5.578,0.007-5.578l5.539-1.25l0.015,5.109c0,0-0.608-0.6-1.942-0.257
	c0,0-1.616,0.572-1.457,2.058c0,0,0.229,1.296,2.321,0.895c0,0,1.413-0.253,1.548-1.73c0.06-0.652,0.062-0.874,0.062-0.874
	c0-1.612,0.012-6.869,0.012-6.869L9,6V13z"/>
</svg>
