<?xml version="1.0" encoding="utf-8"?>
<!-- Generator: Adobe Illustrator 17.0.0, SVG Export Plug-In . SVG Version: 6.00 Build 0)  -->
<!DOCTYPE svg PUBLIC "-//W3C//DTD SVG 1.1//EN" "http://www.w3.org/Graphics/SVG/1.1/DTD/svg11.dtd">
<svg version="1.1" id="Слой_1" xmlns="http://www.w3.org/2000/svg" xmlns:xlink="http://www.w3.org/1999/xlink" x="0px" y="0px"
	 width="50px" height="40px" viewBox="0 0 50 40" enable-background="new 0 0 50 40" xml:space="preserve">
<g>
	<path fill="#494949" d="M35.216,24.624C35,24.34,34.77,24.086,34.541,23.835c-0.391-0.428-0.76-0.831-1.017-1.369
		c-0.352-0.734-0.549-1.729-0.668-2.325c-0.037-0.185-0.067-0.338-0.094-0.444c-0.071-0.29-0.159-1.233-0.236-2.065l-0.083-0.876
		c-0.038-0.383-0.068-0.723-0.094-1.015c-0.045-0.513-0.08-0.888-0.122-1.104c-0.289-1.493-0.923-2.36-2.067-3.528
		c-0.958-0.978-2.783-1.598-3.677-1.856c-0.145-0.68-0.749-1.192-1.472-1.192c-0.72,0-1.322,0.508-1.469,1.184
		c-0.882,0.253-2.735,0.875-3.705,1.864c-1.144,1.168-1.777,2.035-2.066,3.527c-0.042,0.216-0.077,0.591-0.122,1.104
		c-0.025,0.292-0.055,0.632-0.094,1.015l-0.084,0.888c-0.077,0.827-0.165,1.766-0.236,2.054c-0.026,0.106-0.056,0.258-0.093,0.441
		c-0.118,0.596-0.316,1.593-0.668,2.328c-0.257,0.537-0.625,0.941-1.016,1.368c-0.229,0.251-0.46,0.505-0.676,0.789
		c-0.472,0.619-0.659,1.245-0.557,1.861c0.111,0.669,0.547,1.261,1.302,1.764c0.022,0.019,2.753,1.811,7.222,1.829l0.34,0.002
		c0.037,1.03,0.881,1.86,1.92,1.86c0.515,0,1-0.201,1.363-0.565c0.348-0.347,0.541-0.805,0.558-1.294l0.339-0.002
		c4.448-0.019,7.176-1.811,7.206-1.833c0.747-0.499,1.183-1.091,1.294-1.759C35.875,25.869,35.688,25.243,35.216,24.624z
		 M34.786,26.321c-0.064,0.385-0.354,0.753-0.927,1.138c-0.023,0.016-2.578,1.602-6.591,1.619L25,29.089l-2.244-0.012
		c-4.021-0.018-6.593-1.604-6.596-1.604l-0.083-0.06c-0.509-0.34-0.799-0.708-0.864-1.093c-0.055-0.333,0.067-0.7,0.365-1.092
		c0.198-0.259,0.41-0.49,0.62-0.72c0.422-0.462,0.859-0.94,1.18-1.611c0.406-0.849,0.619-1.923,0.747-2.565
		c0.033-0.165,0.06-0.302,0.083-0.397c0.089-0.36,0.172-1.254,0.26-2.199l0.084-0.881c0.039-0.387,0.069-0.731,0.095-1.027
		c0.041-0.465,0.069-0.805,0.107-1.001c0.221-1.142,0.625-1.818,1.799-3.019c0.76-0.774,2.289-1.309,3.125-1.559
		c0.25,0.486,0.751,0.823,1.334,0.823c0.402,0,0.78-0.157,1.065-0.441c0.111-0.111,0.196-0.239,0.266-0.375
		c0.841,0.252,2.35,0.784,3.103,1.552c1.175,1.2,1.579,1.877,1.8,3.019c0.038,0.195,0.066,0.536,0.107,1.002
		c0.026,0.296,0.056,0.64,0.095,1.026l0.083,0.869c0.088,0.951,0.172,1.85,0.261,2.211c0.023,0.097,0.051,0.234,0.084,0.401
		c0.127,0.641,0.341,1.714,0.746,2.562c0.321,0.671,0.758,1.149,1.18,1.612c0.21,0.229,0.421,0.46,0.619,0.719
		C34.719,25.621,34.842,25.988,34.786,26.321z"/>
</g>
</svg>
