<?xml version="1.0" encoding="utf-8"?>
<!-- Generator: Adobe Illustrator 17.0.0, SVG Export Plug-In . SVG Version: 6.00 Build 0)  -->
<!DOCTYPE svg PUBLIC "-//W3C//DTD SVG 1.1//EN" "http://www.w3.org/Graphics/SVG/1.1/DTD/svg11.dtd">
<svg version="1.1" id="Слой_1" xmlns="http://www.w3.org/2000/svg" xmlns:xlink="http://www.w3.org/1999/xlink" x="0px" y="0px"
	 width="50px" height="40px" viewBox="0 0 50 40" enable-background="new 0 0 50 40" xml:space="preserve">
<g>
	<g>
		<path fill="none" stroke="#494949" stroke-miterlimit="10" d="M26.668,29.108c0,0.382-0.311,0.392-0.694,0.392h-2.012
			c-0.383,0-0.694-0.009-0.694-0.392l-1.665-10.889c0-0.382,0.981-0.719,2.776-0.719h1.18c1.704,0,2.776,0.337,2.776,0.719
			L26.668,29.108z"/>
		<ellipse fill="none" stroke="#494949" stroke-miterlimit="10" cx="24.968" cy="13.295" rx="2.668" ry="2.662"/>
	</g>
	<g>
		<path fill="none" stroke="#494949" stroke-miterlimit="10" d="M21.299,19.015c0-0.278-1.191-0.515-2.428-0.515h-0.856
			C16.712,18.5,16,18.87,16,19.147l1.209,7.996c0,0.278,0.225,0.357,0.504,0.357H20"/>
		<circle fill="none" stroke="#494949" stroke-miterlimit="10" cx="18.445" cy="15.372" r="1.897"/>
	</g>
	<g>
		<path fill="none" stroke="#494949" stroke-miterlimit="10" d="M29.201,18.91c0-0.278,0.626-0.41,1.928-0.41h0.856
			c1.237,0,2.014,0.37,2.014,0.647l-1.209,7.996c0,0.278-0.225,0.357-0.504,0.357H31"/>
		<circle fill="none" stroke="#494949" stroke-miterlimit="10" cx="31.56" cy="15.372" r="1.897"/>
	</g>
</g>
</svg>
