<?xml version="1.0" encoding="utf-8"?>
<!-- Generator: Adobe Illustrator 17.0.0, SVG Export Plug-In . SVG Version: 6.00 Build 0)  -->
<!DOCTYPE svg PUBLIC "-//W3C//DTD SVG 1.1//EN" "http://www.w3.org/Graphics/SVG/1.1/DTD/svg11.dtd">
<svg version="1.1" id="Слой_1" xmlns="http://www.w3.org/2000/svg" xmlns:xlink="http://www.w3.org/1999/xlink" x="0px" y="0px"
	 width="23px" height="23px" viewBox="0 0 23 23" enable-background="new 0 0 23 23" xml:space="preserve">
<path fill="#494949" d="M18.543,9.63l-1.352-0.116c-0.077-0.22-0.166-0.433-0.267-0.64l0.882-1.049
	c0.167-0.199,0.155-0.493-0.029-0.677l-1.932-1.934c-0.184-0.184-0.477-0.197-0.675-0.029L14.109,6.08
	c-0.199-0.095-0.403-0.179-0.613-0.252l-0.117-1.37C13.357,4.199,13.14,4,12.88,4h-2.732c-0.26,0-0.476,0.199-0.498,0.458
	L9.532,5.843C9.321,5.918,9.116,6.004,8.916,6.101L7.83,5.185C7.632,5.018,7.339,5.031,7.154,5.214L5.223,7.148
	C5.039,7.332,5.027,7.626,5.194,7.825L6.12,8.926c-0.09,0.189-0.17,0.383-0.24,0.582L4.457,9.63C4.199,9.652,4,9.869,4,10.129v2.735
	c0,0.26,0.199,0.477,0.457,0.499l1.421,0.122c0.07,0.2,0.15,0.395,0.24,0.585l-0.924,1.098c-0.167,0.199-0.155,0.493,0.029,0.677
	l1.931,1.934c0.097,0.097,0.225,0.147,0.353,0.147c0.114,0,0.228-0.039,0.322-0.118l1.081-0.911
	c0.199,0.097,0.404,0.184,0.614,0.259l0.119,1.388C9.666,18.801,9.882,19,10.142,19h2.732c0.26,0,0.476-0.199,0.498-0.458
	l0.117-1.368c0.216-0.075,0.426-0.162,0.631-0.26l1.055,0.889c0.093,0.079,0.207,0.118,0.322,0.118c0.128,0,0.256-0.049,0.353-0.147
	l1.931-1.934c0.184-0.184,0.196-0.478,0.029-0.676l-0.882-1.049c0.1-0.207,0.189-0.419,0.265-0.638l1.349-0.116
	C18.801,13.34,19,13.124,19,12.864v-2.735C19,9.869,18.801,9.652,18.543,9.63z M8.535,11.5c0-1.656,1.346-3.004,3-3.004
	c1.654,0,3,1.347,3,3.004c0,1.656-1.346,3.004-3,3.004C9.881,14.504,8.535,13.156,8.535,11.5z"/>
</svg>
