<?xml version="1.0" encoding="utf-8"?>
<!-- Generator: Adobe Illustrator 17.0.0, SVG Export Plug-In . SVG Version: 6.00 Build 0)  -->
<!DOCTYPE svg PUBLIC "-//W3C//DTD SVG 1.1//EN" "http://www.w3.org/Graphics/SVG/1.1/DTD/svg11.dtd">
<svg version="1.1" id="Слой_1" xmlns="http://www.w3.org/2000/svg" xmlns:xlink="http://www.w3.org/1999/xlink" x="0px" y="0px"
	 width="23px" height="23px" viewBox="0 0 23 23" enable-background="new 0 0 23 23" xml:space="preserve">
<path fill="#494949" d="M11.499,6.006c0.276,0,0.5,0.224,0.5,0.5V17.5c0,0.276-0.224,0.5-0.5,0.5s-0.5-0.224-0.5-0.5V6.506
	C10.999,6.23,11.223,6.006,11.499,6.006z"/>
<g>
	<path fill="#494949" d="M11.499,6c0.128,0,0.256,0.049,0.354,0.146c0.195,0.195,0.195,0.512,0,0.707l-5,5
		c-0.195,0.195-0.512,0.195-0.707,0s-0.195-0.512,0-0.707l5-5C11.243,6.049,11.371,6,11.499,6z"/>
	<path fill="#494949" d="M11.499,6c0.128,0,0.256,0.049,0.354,0.146l5,5c0.195,0.195,0.195,0.512,0,0.707s-0.512,0.195-0.707,0l-5-5
		c-0.195-0.195-0.195-0.512,0-0.707C11.243,6.049,11.371,6,11.499,6z"/>
</g>
</svg>
