<?xml version="1.0" encoding="utf-8"?>
<!-- Generator: Adobe Illustrator 17.0.0, SVG Export Plug-In . SVG Version: 6.00 Build 0)  -->
<!DOCTYPE svg PUBLIC "-//W3C//DTD SVG 1.1//EN" "http://www.w3.org/Graphics/SVG/1.1/DTD/svg11.dtd">
<svg version="1.1" id="Слой_1" xmlns="http://www.w3.org/2000/svg" xmlns:xlink="http://www.w3.org/1999/xlink" x="0px" y="0px"
	 width="23px" height="23px" viewBox="0 0 23 23" enable-background="new 0 0 23 23" xml:space="preserve">
<path fill="#494949" d="M11.5,17.994c-0.276,0-0.5-0.224-0.5-0.5V6.5C11,6.224,11.224,6,11.5,6S12,6.224,12,6.5v10.994
	C12,17.77,11.776,17.994,11.5,17.994z"/>
<g>
	<path fill="#494949" d="M11.5,18c-0.128,0-0.256-0.049-0.354-0.146c-0.195-0.195-0.195-0.512,0-0.707l5-5
		c0.195-0.195,0.512-0.195,0.707,0s0.195,0.512,0,0.707l-5,5C11.756,17.951,11.628,18,11.5,18z"/>
	<path fill="#494949" d="M11.5,18c-0.128,0-0.256-0.049-0.354-0.146l-5-5c-0.195-0.195-0.195-0.512,0-0.707s0.512-0.195,0.707,0l5,5
		c0.195,0.195,0.195,0.512,0,0.707C11.756,17.951,11.628,18,11.5,18z"/>
</g>
</svg>
