<?xml version="1.0" encoding="utf-8"?>
<!-- Generator: Adobe Illustrator 17.0.0, SVG Export Plug-In . SVG Version: 6.00 Build 0)  -->
<!DOCTYPE svg PUBLIC "-//W3C//DTD SVG 1.1//EN" "http://www.w3.org/Graphics/SVG/1.1/DTD/svg11.dtd">
<svg version="1.1" id="Слой_1" xmlns="http://www.w3.org/2000/svg" xmlns:xlink="http://www.w3.org/1999/xlink" x="0px" y="0px"
	 width="400px" height="200px" viewBox="0 0 400 200" enable-background="new 0 0 400 200" xml:space="preserve">

<defs>
  <style type="text/css">
   <![CDATA[
    @font-face {
        font-family: 'HelveticaNeue-Light';
        src:url("/fonts/777240/5b85c7cc-6ad4-4226-83f5-9d19e2974123.eot?#iefix");
	    src:local("Helvetica Neue Light"), local("HelveticaNeue-Light"), url("/fonts/777240/3fc84193-a13f-4fe8-87f7-238748a4ac54.svg#3fc84193-a13f-4fe8-87f7-238748a4ac54") format("svg"), url("/fonts/777240/835e7b4f-b524-4374-b57b-9a8fc555fd4e.woff") format("woff"),url("/fonts/777240/2c694ef6-9615-473e-8cf4-d8d00c6bd973.ttf") format("truetype");
    }
   ]]>
 </style>
</defs>

<g>
	<rect x="128.115" y="12.484" fill="none" width="144.245" height="42.733"/>
	<text transform="matrix(1 0 0 1 132.7422 49.4031)" fill="#F2F2F2" font-family="'MyriadPro-Regular'" font-size="52">Carrot</text>
	<g>
		<g>
			<rect x="201.051" y="54.791" fill="none" width="71.477" height="13.86"/>
			<text transform="matrix(1 0 0 1 207.21 66.8602)" fill="#F2F2F2" font-family="'MyriadPro-Regular'" font-size="17">raw cafe</text>
		</g>
		<g>
			
				<ellipse transform="matrix(0.7183 0.6958 -0.6958 0.7183 101.0445 -118.0004)" fill="#3E8D0E" cx="196.227" cy="65.768" rx="6.699" ry="2.55"/>
			
				<ellipse transform="matrix(-0.1033 0.9947 -0.9947 -0.1033 285.2143 -128.1169)" fill="#3E8D0E" cx="200.36" cy="64.511" rx="6.699" ry="2.55"/>
			
				<ellipse transform="matrix(0.9999 -0.0159 0.0159 0.9999 -1.0846 3.1036)" fill="#F1690D" cx="194.644" cy="69.764" rx="6.699" ry="2.55"/>
		</g>
	</g>
</g>
<g>
	<text transform="matrix(1 0 0 1 97.3506 121.4634)" fill="#F2F2F2" font-family="'HelveticaNeue-Light'" font-size="17.01">до 1 000 рублей за репост</text>
</g>
<rect x="5.257" y="168.3" fill="none" width="390.128" height="30.957"/>
<text transform="matrix(1 0 0 1 130.7613 174.0125)"><tspan x="0" y="0" fill="#F2F2F2" font-family="'HelveticaNeue-Light'" font-size="8">Для сообществ спортивной тематики, </tspan><tspan x="20.736" y="8" fill="#F2F2F2" font-family="'HelveticaNeue-Light'" font-size="8">о здоровом образе жизни.</tspan></text>
</svg>
