<?xml version="1.0" encoding="utf-8"?>
<!-- Generator: Adobe Illustrator 17.0.0, SVG Export Plug-In . SVG Version: 6.00 Build 0)  -->
<!DOCTYPE svg PUBLIC "-//W3C//DTD SVG 1.1//EN" "http://www.w3.org/Graphics/SVG/1.1/DTD/svg11.dtd">
<svg version="1.1" id="Слой_1" xmlns="http://www.w3.org/2000/svg" xmlns:xlink="http://www.w3.org/1999/xlink" x="0px" y="0px"
	 width="139px" height="103px" viewBox="0 0 139 103" enable-background="new 0 0 139 103" xml:space="preserve">
<g>
	<path opacity="0.9" fill="#75A843" d="M55,45v23h25V45H55z M71.426,58.54c-0.135,1.477-1.548,1.73-1.548,1.73
		c-2.091,0.4-2.32-0.896-2.32-0.896c-0.16-1.486,1.457-2.058,1.457-2.058c1.334-0.343,1.942,0.257,1.942,0.257l0.081-5.131
		l-5.635,1.272c0,0-0.094,3.877-0.104,5.511c-0.009,1.603-1.093,2.178-1.093,2.178c-0.866,0.626-2.705,0.63-2.705-0.929
		c0-1.315,1.241-1.796,1.917-1.867c0.676-0.071,1.392,0.353,1.392,0.353l0.127-6.637l6.563-1.526c0,0-0.03,5.257-0.03,6.869
		C71.47,57.666,71.485,57.888,71.426,58.54z"/>
	<path opacity="0.5" fill="#75A843" d="M70,41v15h16V41H70z M80.512,49.83c-0.087,0.963-0.991,1.128-0.991,1.128
		c-1.338,0.261-1.485-0.584-1.485-0.584c-0.102-0.969,0.932-1.342,0.932-1.342c0.854-0.224,1.243,0.168,1.243,0.168l0.052-3.346
		l-3.606,0.83c0,0-0.06,2.529-0.066,3.594c-0.006,1.045-0.7,1.421-0.7,1.421c-0.554,0.408-1.731,0.411-1.731-0.606
		c0-0.857,0.794-1.171,1.227-1.218c0.433-0.047,0.891,0.23,0.891,0.23l0.081-4.329l4.201-0.995c0,0-0.019,3.428-0.019,4.48
		C80.541,49.26,80.55,49.405,80.512,49.83z"/>
	<path opacity="0.3" fill="#75A843" d="M50,38v25h28V38H50z M68.397,52.717c-0.151,1.605-1.734,1.88-1.734,1.88
		c-2.342,0.435-2.599-0.973-2.599-0.973c-0.179-1.615,1.631-2.237,1.631-2.237c1.494-0.373,2.175,0.28,2.175,0.28l0.091-5.577
		l-6.311,1.383c0,0-0.106,4.215-0.116,5.99c-0.01,1.742-1.224,2.368-1.224,2.368c-0.97,0.681-3.03,0.685-3.03-1.01
		c0-1.429,1.39-1.952,2.147-2.03c0.757-0.078,1.559,0.383,1.559,0.383l0.143-7.214l7.351-1.659c0,0-0.034,5.714-0.034,7.466
		C68.446,51.767,68.463,52.009,68.397,52.717z"/>
	<path opacity="0.1" fill="#75A843" d="M63,35v18h20V35H63z M76.14,45.597c-0.108,1.156-1.239,1.354-1.239,1.354
		c-1.673,0.313-1.856-0.701-1.856-0.701c-0.128-1.163,1.165-1.611,1.165-1.611c1.067-0.268,1.554,0.201,1.554,0.201l0.065-4.016
		l-4.508,0.996c0,0-0.075,3.035-0.083,4.313c-0.007,1.254-0.875,1.705-0.875,1.705c-0.693,0.49-2.164,0.493-2.164-0.727
		c0-1.029,0.993-1.406,1.534-1.462c0.541-0.056,1.114,0.276,1.114,0.276l0.102-5.194l5.251-1.194c0,0-0.024,4.114-0.024,5.376
		C76.176,44.912,76.188,45.087,76.14,45.597z"/>
</g>
</svg>
