<?xml version="1.0" encoding="utf-8"?>
<!-- Generator: Adobe Illustrator 17.0.0, SVG Export Plug-In . SVG Version: 6.00 Build 0)  -->
<!DOCTYPE svg PUBLIC "-//W3C//DTD SVG 1.1//EN" "http://www.w3.org/Graphics/SVG/1.1/DTD/svg11.dtd">
<svg version="1.1" id="Слой_1" xmlns="http://www.w3.org/2000/svg" xmlns:xlink="http://www.w3.org/1999/xlink" x="0px" y="0px"
	 width="139px" height="103px" viewBox="0 0 139 103" enable-background="new 0 0 139 103" xml:space="preserve">
<path opacity="0.1" fill="#75A843" d="M61,55h24V34H61V55z M76.428,37.707c0.813,0,1.472,0.659,1.472,1.472
	s-0.659,1.472-1.472,1.472s-1.472-0.659-1.472-1.472S75.615,37.707,76.428,37.707z M81,51H65.15l0.028-5.084l4.401-7.103
	l4.818,6.706l3.572-2.7L81,47.878V51z"/>
<path opacity="0.3" fill="#75A843" d="M50,62h29V37H50V62z M68.642,41.413c0.982,0,1.778,0.784,1.778,1.752
	c0,0.968-0.796,1.752-1.778,1.752c-0.982,0-1.778-0.784-1.778-1.752C66.864,42.198,67.66,41.413,68.642,41.413z M74.167,57.238
	H55.015l0.033-6.052l5.318-8.456l5.822,7.983l4.316-3.215l3.663,6.024V57.238z"/>
<path opacity="0.5" fill="#75A843" d="M71,56h18V41H71V56z M82.571,43.648c0.61,0,1.104,0.471,1.104,1.051s-0.494,1.051-1.104,1.051
	s-1.104-0.471-1.104-1.051S81.961,43.648,82.571,43.648z M86,53.143H74.112l0.021-3.631l3.301-5.074l3.614,4.79l2.679-1.929
	L86,50.913V53.143z"/>
<path fill="#75A843" d="M55,68h24V47H55V68z M70.428,50.707c0.813,0,1.472,0.659,1.472,1.472s-0.659,1.472-1.472,1.472
	s-1.472-0.659-1.472-1.472S69.615,50.707,70.428,50.707z M75,64H59.15l0.028-5.084l4.401-7.103l4.818,6.706l3.572-2.7L75,60.878V64z
	"/>
</svg>
