<?xml version="1.0" encoding="utf-8"?>
<!-- Generator: Adobe Illustrator 17.0.0, SVG Export Plug-In . SVG Version: 6.00 Build 0)  -->
<!DOCTYPE svg PUBLIC "-//W3C//DTD SVG 1.1//EN" "http://www.w3.org/Graphics/SVG/1.1/DTD/svg11.dtd">
<svg version="1.1" id="Слой_1" xmlns="http://www.w3.org/2000/svg" xmlns:xlink="http://www.w3.org/1999/xlink" x="0px" y="0px"
	 width="20px" height="22px" viewBox="0 0 20 22" enable-background="new 0 0 20 22" xml:space="preserve">
<path fill="#494949" d="M6.619,16.326c0,0-1.432-0.848-2.785-0.705C2.482,15.764,0,16.726,0,19.356c0,3.119,3.678,3.11,5.41,1.858
	c0,0,2.168-1.151,2.186-4.357C7.616,13.591,7.804,5.836,7.804,5.836l11.27-2.545l-0.163,10.262c0,0-1.217-1.201-3.885-0.515
	c0,0-3.233,1.144-2.913,4.116c0,0,0.459,2.591,4.641,1.791c0,0,2.826-0.506,3.096-3.46c0.119-1.303,0.089-1.748,0.089-1.748
	C19.94,10.514,20,0,20,0L6.873,3.052"/>
</svg>
