<?xml version="1.0" encoding="utf-8"?>
<!-- Generator: Adobe Illustrator 17.0.0, SVG Export Plug-In . SVG Version: 6.00 Build 0)  -->
<!DOCTYPE svg PUBLIC "-//W3C//DTD SVG 1.1//EN" "http://www.w3.org/Graphics/SVG/1.1/DTD/svg11.dtd">
<svg version="1.1" id="Слой_1" xmlns="http://www.w3.org/2000/svg" xmlns:xlink="http://www.w3.org/1999/xlink" x="0px" y="0px"
	 width="16px" height="16px" viewBox="0 0 16 16" enable-background="new 0 0 16 16" xml:space="preserve">
<g>
	<g>
		<path fill="#494949" d="M8,15.5c-4.136,0-7.5-3.364-7.5-7.5S3.864,0.5,8,0.5s7.5,3.364,7.5,7.5S12.136,15.5,8,15.5z"/>
		<path fill="#F2F2F2" d="M8,1c3.866,0,7,3.134,7,7c0,3.866-3.134,7-7,7s-7-3.134-7-7C1,4.134,4.134,1,8,1 M8,7.293L5.879,5.172
			C5.781,5.074,5.653,5.025,5.525,5.025S5.269,5.074,5.172,5.172c-0.195,0.195-0.195,0.512,0,0.707L7.293,8l-2.121,2.121
			c-0.195,0.195-0.195,0.512,0,0.707c0.098,0.098,0.226,0.146,0.354,0.146s0.256-0.049,0.354-0.146L8,8.707l2.121,2.121
			c0.098,0.098,0.226,0.146,0.354,0.146s0.256-0.049,0.354-0.146c0.195-0.195,0.195-0.512,0-0.707L8.707,8l2.121-2.121
			c0.195-0.195,0.195-0.512,0-0.707c-0.098-0.098-0.226-0.146-0.354-0.146s-0.256,0.049-0.354,0.146L8,7.293 M8,0
			C3.589,0,0,3.589,0,8s3.589,8,8,8s8-3.589,8-8S12.411,0,8,0L8,0z"/>
	</g>
</g>
</svg>
