<?xml version="1.0" encoding="utf-8"?>
<!-- Generator: Adobe Illustrator 17.0.0, SVG Export Plug-In . SVG Version: 6.00 Build 0)  -->
<!DOCTYPE svg PUBLIC "-//W3C//DTD SVG 1.1//EN" "http://www.w3.org/Graphics/SVG/1.1/DTD/svg11.dtd">
<svg version="1.1" id="Слой_1" xmlns="http://www.w3.org/2000/svg" xmlns:xlink="http://www.w3.org/1999/xlink" x="0px" y="0px"
	 width="20px" height="22px" viewBox="0 0 20 22" enable-background="new 0 0 20 22" xml:space="preserve">
<g>
	<g>
		<path fill="none" stroke="#F1F1F1" stroke-miterlimit="10" d="M11.957,20.455c0,0.395-0.32,1.045-0.715,1.045H9.169
			c-0.395,0-0.715-0.65-0.715-1.045L6.737,9.227c0-0.395,1.011-0.727,2.86-0.727h1.216c1.756,0,2.86,0.332,2.86,0.727L11.957,20.455
			z"/>
		<circle fill="none" stroke="#F1F1F1" stroke-miterlimit="10" cx="10.205" cy="3.485" r="2.75"/>
	</g>
	<g>
		<path fill="none" stroke="#F1F1F1" stroke-miterlimit="10" d="M5.881,9.885c0-0.287-0.685-1.385-1.959-1.385H3.04
			c-1.342,0-2.076,0.562-2.076,0.848l1.246,9.02c0,0.287,0.232,1.132,0.519,1.132H4"/>
		<circle fill="none" stroke="#F1F1F1" stroke-miterlimit="10" cx="3.484" cy="5.63" r="1.955"/>
	</g>
	<g>
		<path fill="none" stroke="#F1F1F1" stroke-miterlimit="10" d="M14.479,9.348c0-0.287,0.734-0.848,2.076-0.848h0.882
			c1.275,0,2.076,0.562,2.076,0.848l-1.246,9.02c0,0.287-0.232,1.132-0.519,1.132h-1.505c-0.287,0-0.519-0.845-0.519-1.132"/>
		<circle fill="none" stroke="#F1F1F1" stroke-miterlimit="10" cx="16.998" cy="5.63" r="1.955"/>
	</g>
</g>
</svg>
