<?xml version="1.0" encoding="utf-8"?>
<!-- Generator: Adobe Illustrator 17.0.0, SVG Export Plug-In . SVG Version: 6.00 Build 0)  -->
<!DOCTYPE svg PUBLIC "-//W3C//DTD SVG 1.1//EN" "http://www.w3.org/Graphics/SVG/1.1/DTD/svg11.dtd">
<svg version="1.1" id="tabSide" xmlns="http://www.w3.org/2000/svg" xmlns:xlink="http://www.w3.org/1999/xlink" x="0px" y="0px"
	 width="50px" height="32px" viewBox="-934.039 556.5 50 32" enable-background="new -934.039 556.5 50 32" xml:space="preserve">
<g>
	<path fill="#efefef" d="M-935.387,589l1.53-1.021c1.82-0.263,7.326-1.799,9.832-10.669c2.779-9.841,3.44-12.095,3.523-12.376
		l0.016-0.053l0.03-0.144c0.169-0.788,1.937-7.738,10.418-7.738c8.324,0,10.74,5.669,11.282,7.407
		c0.084,0.27,0.153,0.483,0.211,0.626c0.031,0.109,0.522,1.747,3.497,12.277c2.527,8.952,9.368,10.452,10.88,10.676l2.534,1.014
		H-935.387z"/>
	<path fill="#E6E6E6" d="M-910.039,557.5c7.982,0,10.288,5.4,10.804,7.052c0.08,0.26,0.149,0.471,0.207,0.621
		c0.081,0.269,0.658,2.22,3.498,12.273c0.462,1.637,3.168,9.826,11.231,11.026l0.068,0.027h-49.505l0.064-0.043
		c2.012-0.323,7.591-2.032,10.128-11.011c2.609-9.24,3.357-11.811,3.531-12.404l0.017-0.057l0.031-0.106l0.006-0.092
		C-919.729,563.799-917.952,557.5-910.039,557.5 M-910.039,556.5c-9.306,0-10.905,8.119-10.913,8.145l-0.004,0.06l-0.017,0.057
		c-0.004,0.015-0.543,1.822-3.534,12.413c-2.461,8.708-7.869,10.115-9.532,10.325l-2.999,2h57.999l-5-2
		c-1.66-0.231-8.095-1.705-10.529-10.325c-2.961-10.482-3.467-12.175-3.514-12.329c-0.054-0.134-0.119-0.335-0.197-0.589
		C-898.941,562.136-901.688,556.5-910.039,556.5L-910.039,556.5z"/>
</g>
</svg>
