<?xml version="1.0" encoding="utf-8"?>
<!-- Generator: Adobe Illustrator 17.0.0, SVG Export Plug-In . SVG Version: 6.00 Build 0)  -->
<!DOCTYPE svg PUBLIC "-//W3C//DTD SVG 1.1//EN" "http://www.w3.org/Graphics/SVG/1.1/DTD/svg11.dtd">
<svg version="1.1" id="Слой_1" xmlns="http://www.w3.org/2000/svg" xmlns:xlink="http://www.w3.org/1999/xlink" x="0px" y="0px"
	 width="24px" height="21px" viewBox="0 0 24 21" enable-background="new 0 0 24 21" xml:space="preserve">
<g>
	<path fill="#F2F2F2" d="M0,0v20.9375h24V0H0z M9,16H5v-3h4V16z M9,12H5V9h4V12z M9,8H5V5h4V8z M14,16h-4v-3h4V16z M14,12h-4V9h4V12
		z M14,8h-4V5h4V8z M19,16h-4v-3h4V16z M19,12h-4V9h4V12z M19,8h-4V5h4V8z"/>
</g>
</svg>
