<?xml version="1.0" encoding="utf-8"?>
<!-- Generator: Adobe Illustrator 17.0.0, SVG Export Plug-In . SVG Version: 6.00 Build 0)  -->
<!DOCTYPE svg PUBLIC "-//W3C//DTD SVG 1.1//EN" "http://www.w3.org/Graphics/SVG/1.1/DTD/svg11.dtd">
<svg version="1.1" id="Слой_1" xmlns="http://www.w3.org/2000/svg" xmlns:xlink="http://www.w3.org/1999/xlink" x="0px" y="0px"
	 width="12px" height="12px" viewBox="0 0 12 12" enable-background="new 0 0 12 12" xml:space="preserve">
<g>
	<path fill="#F2F2F2" d="M6,0C2.686,0,0,2.686,0,6s2.686,6,6,6s6-2.686,6-6S9.314,0,6,0z M8.424,7.818
		c0.167,0.167,0.167,0.439,0,0.606s-0.439,0.167-0.606,0L6,6.606L4.182,8.424c-0.167,0.167-0.439,0.167-0.606,0
		s-0.167-0.439,0-0.606L5.394,6L3.576,4.182c-0.167-0.167-0.167-0.439,0-0.606s0.439-0.167,0.606,0L6,5.394l1.818-1.818
		c0.167-0.167,0.439-0.167,0.606,0s0.167,0.439,0,0.606L6.606,6L8.424,7.818z"/>
</g>
</svg>
