<?xml version="1.0" encoding="utf-8"?>
<!-- Generator: Adobe Illustrator 17.0.0, SVG Export Plug-In . SVG Version: 6.00 Build 0)  -->
<!DOCTYPE svg PUBLIC "-//W3C//DTD SVG 1.1//EN" "http://www.w3.org/Graphics/SVG/1.1/DTD/svg11.dtd">
<svg version="1.1" id="Слой_1" xmlns="http://www.w3.org/2000/svg" xmlns:xlink="http://www.w3.org/1999/xlink" x="0px" y="0px"
	 width="12px" height="12px" viewBox="0 0 12 12" enable-background="new 0 0 12 12" xml:space="preserve">
<g>
	<path fill="#F2F2F2" d="M6,0C2.686,0,0,2.686,0,6s2.686,6,6,6s6-2.686,6-6S9.314,0,6,0z M6.549,8.547
		c-0.005,0-0.008-0.005-0.013-0.005L6.535,8.547H3.651H3.645L3.64,8.543C3.513,8.537,3.419,8.44,3.4,8.317L3.387,8.304v-0.02
		c0-0.001-0.001-0.001-0.001-0.002c0-0.001,0.001-0.001,0.001-0.002L3.386,5.383c0-0.146,0.119-0.265,0.265-0.265
		c0.066,0,0.123,0.03,0.169,0.07l0.006-0.003l0.009,0.009C3.836,5.196,3.838,5.198,3.84,5.2l2.885,2.885L6.723,8.089
		c0.054,0.049,0.091,0.115,0.091,0.193C6.814,8.429,6.696,8.547,6.549,8.547z M8.614,6.617c0,0.146-0.119,0.265-0.265,0.265
		c-0.066,0-0.123-0.03-0.169-0.07L8.174,6.814L8.166,6.806C8.164,6.804,8.162,6.802,8.16,6.8L5.275,3.915l0.002-0.004
		C5.223,3.862,5.186,3.796,5.186,3.718c0-0.146,0.119-0.265,0.265-0.265c0.005,0,0.008,0.005,0.013,0.005l0.002-0.005H8.35h0.006
		L8.36,3.457C8.487,3.463,8.581,3.56,8.6,3.683l0.013,0.013v0.02c0,0.001,0.001,0.001,0.001,0.002c0,0.001-0.001,0.001-0.001,0.002
		L8.614,6.617z"/>
</g>
</svg>
