<?xml version="1.0" encoding="utf-8"?>
<!-- Generator: Adobe Illustrator 17.0.0, SVG Export Plug-In . SVG Version: 6.00 Build 0)  -->
<!DOCTYPE svg PUBLIC "-//W3C//DTD SVG 1.1//EN" "http://www.w3.org/Graphics/SVG/1.1/DTD/svg11.dtd">
<svg version="1.1" id="Слой_1" xmlns="http://www.w3.org/2000/svg" xmlns:xlink="http://www.w3.org/1999/xlink" x="0px" y="0px"
	 width="70px" height="54px" viewBox="0 0 70 54" enable-background="new 0 0 70 54" xml:space="preserve">
<path d="M41.892,38.502c-0.181-2.003-0.112-3.401-0.112-5.231c0.907-0.476,2.532-3.51,2.807-6.074
	c0.713-0.058,1.838-0.754,2.167-3.502c0.178-1.475-0.528-2.305-0.958-2.566c1.161-3.49,3.571-14.289-4.458-15.405
	c-0.826-1.451-2.943-2.186-5.692-2.186c-11.002,0.203-12.329,8.308-9.917,17.59c-0.429,0.261-1.135,1.091-0.958,2.566
	c0.331,2.747,1.454,3.443,2.167,3.502c0.273,2.562,1.963,5.598,2.873,6.074c0,1.83,0.068,3.228-0.113,5.231
	C27.52,44.355,12.831,42.712,12.153,54h47.219C58.695,42.712,44.069,44.355,41.892,38.502z"/>
</svg>
