<?xml version="1.0" encoding="utf-8"?>
<!-- Generator: Adobe Illustrator 17.0.0, SVG Export Plug-In . SVG Version: 6.00 Build 0)  -->
<!DOCTYPE svg PUBLIC "-//W3C//DTD SVG 1.1//EN" "http://www.w3.org/Graphics/SVG/1.1/DTD/svg11.dtd">
<svg version="1.1" id="Слой_1" xmlns="http://www.w3.org/2000/svg" xmlns:xlink="http://www.w3.org/1999/xlink" x="0px" y="0px"
	 width="21px" height="17px" viewBox="0 0 21 17" enable-background="new 0 0 21 17" xml:space="preserve">
<path fill="#494949" d="M19.496,4.666h-7.608V1.439c0-0.558-0.337-1.066-0.865-1.303c-0.527-0.237-1.151-0.161-1.6,0.196
	L0.543,7.393C0.199,7.667,0,8.072,0,8.5c0,0.428,0.199,0.833,0.543,1.107l8.881,7.061C9.699,16.887,10.04,17,10.384,17
	c0.217,0,0.435-0.045,0.639-0.136c0.528-0.237,0.865-0.745,0.865-1.303v-3.227h7.608c0.831,0,1.504-0.644,1.504-1.439V6.105
	C21,5.311,20.327,4.666,19.496,4.666z"/>
</svg>
