<?xml version="1.0" encoding="utf-8"?>
<!-- Generator: Adobe Illustrator 17.0.0, SVG Export Plug-In . SVG Version: 6.00 Build 0)  -->
<!DOCTYPE svg PUBLIC "-//W3C//DTD SVG 1.1//EN" "http://www.w3.org/Graphics/SVG/1.1/DTD/svg11.dtd">
<svg version="1.1" id="Слой_1" xmlns="http://www.w3.org/2000/svg" xmlns:xlink="http://www.w3.org/1999/xlink" x="0px" y="0px"
	 width="24px" height="24px" viewBox="0 0 24 24" enable-background="new 0 0 24 24" xml:space="preserve">
<g>
	<g>
		<path fill="none" stroke="#494949" stroke-miterlimit="10" d="M13.3,19.471c0,0.28-0.227,1.029-0.507,1.029h-1.471
			c-0.28,0-0.507-0.749-0.507-1.029L9.596,11.26c0-0.28,0.717-0.76,2.029-0.76h0.862c1.246,0,2.029,0.48,2.029,0.76L13.3,19.471z"/>
		<circle fill="none" stroke="#494949" stroke-miterlimit="10" cx="12.057" cy="7.142" r="1.951"/>
	</g>
	<g>
		<path fill="none" stroke="#494949" stroke-miterlimit="10" d="M9.662,12.08c0-0.203-1.159-0.58-2.063-0.58H6.973
			c-0.952,0-1.473-0.001-1.473,0.202l0.884,6.197c0,0.203,0.165,0.601,0.368,0.601H9"/>
		<circle fill="none" stroke="#494949" stroke-miterlimit="10" cx="7.288" cy="8.664" r="1.387"/>
	</g>
	<g>
		<path fill="none" stroke="#494949" stroke-miterlimit="10" d="M15.088,11.702c0-0.203,0.521-0.202,1.473-0.202h0.626
			c0.904,0,1.473-0.001,1.473,0.202l-0.884,6.197c0,0.203-0.165,0.601-0.368,0.601H16.34c-0.203,0-0.368-0.397-0.368-0.601"/>
		<circle fill="none" stroke="#494949" stroke-miterlimit="10" cx="16.876" cy="8.664" r="1.387"/>
	</g>
</g>
<g>
	<rect x="17" y="3.083" fill="#494949" width="5" height="0.833"/>
	<rect x="19.083" y="1" fill="#494949" width="0.833" height="5"/>
</g>
</svg>
