<?xml version="1.0" encoding="utf-8"?>
<!-- Generator: Adobe Illustrator 17.0.0, SVG Export Plug-In . SVG Version: 6.00 Build 0)  -->
<!DOCTYPE svg PUBLIC "-//W3C//DTD SVG 1.1//EN" "http://www.w3.org/Graphics/SVG/1.1/DTD/svg11.dtd">
<svg version="1.1" id="Слой_1" xmlns="http://www.w3.org/2000/svg" xmlns:xlink="http://www.w3.org/1999/xlink" x="0px" y="0px"
	 width="26px" height="21px" viewBox="0 0 26 21" enable-background="new 0 0 26 21" xml:space="preserve">
<g>
	<g>
		<path fill="#494949" d="M10.273,18h-1.3c-0.542,0-0.948-0.575-0.948-1.089l-1.07-6.922C6.949,9.104,8.174,9,9.242,9h0.762
			c1.564,0,2.293,0.29,2.293,0.913l-1.082,7.074C11.222,17.425,10.816,18,10.273,18z M9.059,17h1.129
			c0.017-0.028,0.032-0.067,0.033-0.09l1.04-6.795C11.063,10.062,10.67,10,10.004,10H9.242c-0.716,0-1.086,0.064-1.263,0.112
			l1.04,6.723C9.024,16.91,9.042,16.967,9.059,17z"/>
		<path fill="#494949" d="M9.624,8.56c-1.227,0-2.224-0.998-2.224-2.224s0.998-2.224,2.224-2.224c1.226,0,2.224,0.998,2.224,2.224
			S10.85,8.56,9.624,8.56z M9.624,5.112c-0.675,0-1.224,0.549-1.224,1.224S8.949,7.56,9.624,7.56s1.224-0.549,1.224-1.224
			S10.298,5.112,9.624,5.112z"/>
	</g>
	<g>
		<path fill="#494949" d="M16.273,16h-1.3c-0.543,0-0.949-0.575-0.949-1.089l-1.07-6.922C12.949,7.104,14.175,7,15.242,7h0.763
			c1.564,0,2.293,0.29,2.293,0.913l-1.082,7.074C17.222,15.425,16.816,16,16.273,16z M15.059,15h1.13
			c0.018-0.028,0.032-0.067,0.033-0.09l1.039-6.795C17.063,8.062,16.671,8,16.005,8h-0.763c-0.716,0-1.086,0.064-1.263,0.112
			l1.039,6.723C15.023,14.911,15.041,14.967,15.059,15z"/>
		<path fill="#494949" d="M15.623,6.56c-1.227,0-2.224-0.998-2.224-2.224s0.997-2.224,2.224-2.224s2.225,0.998,2.225,2.224
			S16.85,6.56,15.623,6.56z M15.623,3.112c-0.675,0-1.224,0.549-1.224,1.224s0.549,1.224,1.224,1.224s1.225-0.549,1.225-1.224
			S16.298,3.112,15.623,3.112z"/>
	</g>
</g>
</svg>
