<?xml version="1.0" encoding="utf-8"?>
<!-- Generator: Adobe Illustrator 17.0.0, SVG Export Plug-In . SVG Version: 6.00 Build 0)  -->
<!DOCTYPE svg PUBLIC "-//W3C//DTD SVG 1.1//EN" "http://www.w3.org/Graphics/SVG/1.1/DTD/svg11.dtd">
<svg version="1.1" id="Слой_1" xmlns="http://www.w3.org/2000/svg" xmlns:xlink="http://www.w3.org/1999/xlink" x="0px" y="0px"
	 width="26px" height="21px" viewBox="0 0 26 21" enable-background="new 0 0 26 21" xml:space="preserve">
<g>
	<path fill="#494949" d="M9.242,10c-0.716,0-1.086,0.064-1.263,0.112l1.04,6.723C9.024,16.91,9.042,16.967,9.059,17h1.129
		c0.017-0.028,0.032-0.067,0.033-0.09l1.04-6.795C11.063,10.062,10.67,10,10.004,10H9.242z"/>
	<circle fill="#494949" cx="9.624" cy="6.336" r="1.224"/>
	<circle fill="#494949" cx="15.623" cy="4.336" r="1.224"/>
	<path fill="#494949" d="M15.242,8c-0.716,0-1.086,0.064-1.263,0.112l1.039,6.723c0.005,0.076,0.022,0.132,0.04,0.165h1.13
		c0.018-0.028,0.032-0.067,0.033-0.09l1.039-6.795C17.063,8.062,16.671,8,16.005,8H15.242z"/>
	<path fill="#494949" d="M0,0v21h26V0H0z M15.623,2.112c1.227,0,2.225,0.998,2.225,2.224S16.85,6.56,15.623,6.56
		s-2.224-0.998-2.224-2.224S14.396,2.112,15.623,2.112z M9.624,4.112c1.226,0,2.224,0.998,2.224,2.224S10.85,8.56,9.624,8.56
		c-1.227,0-2.224-0.998-2.224-2.224S8.397,4.112,9.624,4.112z M11.216,16.987c0.006,0.438-0.4,1.013-0.942,1.013h-1.3
		c-0.542,0-0.948-0.575-0.948-1.089l-1.07-6.922C6.949,9.104,8.174,9,9.242,9h0.762c1.564,0,2.293,0.29,2.293,0.913L11.216,16.987z
		 M17.216,14.987C17.222,15.425,16.816,16,16.273,16h-1.3c-0.543,0-0.949-0.575-0.949-1.089l-1.07-6.922
		C12.949,7.104,14.175,7,15.242,7h0.763c1.564,0,2.293,0.29,2.293,0.913L17.216,14.987z"/>
</g>
</svg>
