<?xml version="1.0" encoding="utf-8"?>
<!-- Generator: Adobe Illustrator 17.0.0, SVG Export Plug-In . SVG Version: 6.00 Build 0)  -->
<!DOCTYPE svg PUBLIC "-//W3C//DTD SVG 1.1//EN" "http://www.w3.org/Graphics/SVG/1.1/DTD/svg11.dtd">
<svg version="1.1" id="Слой_1" xmlns="http://www.w3.org/2000/svg" xmlns:xlink="http://www.w3.org/1999/xlink" x="0px" y="0px"
	 width="31px" height="21px" viewBox="0 0 31 21" enable-background="new 0 0 31 21" xml:space="preserve">
<path fill="#494949" d="M0,0v21h31V0H0z M4,7h4v3H4V7z M8,16H4v-3h4V16z M13,16H9v-3h4V16z M18,16h-4v-3h4V16z M18,12H4v-1h14V12z
	 M9,10V7h4v3H9z M18,10h-4V7h4V10z M18,6H4V5h14V6z M28.418,9.354l-3.003,3c-0.098,0.098-0.226,0.146-0.354,0.146
	c-0.126,0-0.253-0.048-0.35-0.143l-3.062-3c-0.197-0.193-0.201-0.51-0.008-0.707c0.194-0.195,0.512-0.201,0.707-0.007l2.709,2.654
	l2.652-2.65c0.195-0.195,0.512-0.195,0.707,0S28.613,9.159,28.418,9.354z"/>
</svg>
