<?xml version="1.0" encoding="utf-8"?>
<!-- Generator: Adobe Illustrator 17.0.0, SVG Export Plug-In . SVG Version: 6.00 Build 0)  -->
<!DOCTYPE svg PUBLIC "-//W3C//DTD SVG 1.1//EN" "http://www.w3.org/Graphics/SVG/1.1/DTD/svg11.dtd">
<svg version="1.1" id="Слой_1" xmlns="http://www.w3.org/2000/svg" xmlns:xlink="http://www.w3.org/1999/xlink" x="0px" y="0px"
	 width="23px" height="23px" viewBox="0 0 23 23" enable-background="new 0 0 23 23" xml:space="preserve">
<g>
	<g>
		<path fill="#F2F2F2" d="M3,8v4h7V8H3z"/>
	</g>
</g>
<g>
	<g>
		<path fill="#F2F2F2" d="M11,8v4h7V8H11z"/>
	</g>
</g>
<g>
	<g>
		<path fill="#F2F2F2" d="M3,13v4h7v-4H3z"/>
	</g>
</g>
<g opacity="0.3">
	<g>
		<path fill="#F2F2F2" d="M4,7v4h7V7H4z"/>
	</g>
</g>
<g opacity="0.3">
	<g>
		<path fill="#F2F2F2" d="M12,7v4h7V7H12z"/>
	</g>
</g>
<g opacity="0.3">
	<g>
		<path fill="#F2F2F2" d="M4,12v4h7v-4H4z"/>
	</g>
</g>
<g opacity="0.3">
	<g>
		<path fill="#F2F2F2" d="M12,12v4h7v-4H12z"/>
	</g>
</g>
<g opacity="0.1">
	<g>
		<path fill="#F2F2F2" d="M5,6v4h7V6H5z"/>
	</g>
</g>
<g opacity="0.1">
	<g>
		<path fill="#F2F2F2" d="M13,6v4h7V6H13z"/>
	</g>
</g>
<g opacity="0.1">
	<g>
		<path fill="#F2F2F2" d="M5,11v4h7v-4H5z"/>
	</g>
</g>
<g opacity="0.1">
	<g>
		<path fill="#F2F2F2" d="M13,11v4h7v-4H13z"/>
	</g>
</g>
<g>
	<g>
		<path fill="#F2F2F2" d="M11,13v4h7v-4H11z"/>
	</g>
</g>
</svg>
