<?xml version="1.0" encoding="utf-8"?>
<!-- Generator: Adobe Illustrator 17.0.0, SVG Export Plug-In . SVG Version: 6.00 Build 0)  -->
<!DOCTYPE svg PUBLIC "-//W3C//DTD SVG 1.1//EN" "http://www.w3.org/Graphics/SVG/1.1/DTD/svg11.dtd">
<svg version="1.1" id="Слой_1" xmlns="http://www.w3.org/2000/svg" xmlns:xlink="http://www.w3.org/1999/xlink" x="0px" y="0px"
	 width="23px" height="23px" viewBox="0 0 23 23" enable-background="new 0 0 23 23" xml:space="preserve">
<path fill="#F2F2F2" d="M18.5430126,9.6303053l-1.3515511-0.1163511c-0.0770187-0.2198076-0.1663666-0.4331388-0.2673702-0.640419
	l0.8816891-1.0486269c0.1674652-0.1989698,0.1547699-0.4927807-0.0288048-0.6765962l-1.931941-1.93397
	c-0.1835756-0.183815-0.4770041-0.1965256-0.6752272-0.0288429l-1.0612364,0.8944488
	c-0.1986504-0.094841-0.4026709-0.1792932-0.6126719-0.2521348L13.378479,4.4575715
	c-0.0219707-0.2586122-0.2382584-0.4575825-0.4979982-0.4575825h-2.7316675c-0.2597399,0-0.4760275,0.1989703-0.4979982,0.4575825
	L9.5318699,5.8431516C9.3208914,5.9180708,9.1158333,6.0043564,8.9164515,6.1014581L7.8297043,5.1854992
	C7.6319695,5.0178165,7.338541,5.0305271,7.1544771,5.2143421l-1.9314518,1.93397
	c-0.1835761,0.1838155-0.19627,0.4776263-0.0288062,0.6765962l0.9259963,1.1012411
	C6.0305023,9.114975,5.9503713,9.3087511,5.8803706,9.5077829L4.4569864,9.6303053C4.1987109,9.6523046,4,9.8688745,4,10.128953
	v2.7347393c0,0.2600784,0.1987109,0.4766483,0.4569864,0.4986477l1.4205766,0.1222782
	c0.0700006,0.2001314,0.1503763,0.394824,0.2403331,0.5846272l-0.923677,1.0984917
	c-0.1674638,0.1989698-0.1547699,0.4927807,0.0288062,0.6765957l1.9314518,1.9339705
	c0.0971584,0.0972843,0.2250757,0.1466599,0.3534813,0.1466599c0.1142464,0,0.2284932-0.0391083,0.3217459-0.1178169
	l1.0811319-0.9111919c0.1989555,0.0972233,0.4036474,0.1835098,0.6141977,0.2585506L9.64398,18.5424061
	c0.0219707,0.2586136,0.2382584,0.4575825,0.4979982,0.4575825h2.7316666c0.2597408,0,0.4760284-0.1989689,0.4979982-0.4575825
	l0.1174202-1.3676128c0.2164097-0.0747356,0.4263506-0.1620617,0.6307373-0.2600784l1.055378,0.8894978
	c0.0932522,0.0787086,0.2074986,0.1178188,0.3217459,0.1178188c0.1284056,0,0.2563219-0.0493774,0.3534813-0.1466618
	l1.9314508-1.9339695c0.1835766-0.183816,0.19627-0.4776268,0.0288067-0.6761074l-0.8816891-1.048871
	c0.1000881-0.2065477,0.1889458-0.4190226,0.2652931-0.6379757l1.3487453-0.116106
	C18.8012886,13.3403406,19,13.1237707,19,12.8636923V10.128953C19,9.8688745,18.8012886,9.6523046,18.5430126,9.6303053z
	 M8.53508,11.5000505c0-1.6561699,1.3456936-3.0036182,2.9997063-3.0036182c1.6540747,0,2.9997072,1.3474483,2.9997072,3.0036182
	c0,1.65623-1.3456326,3.0036173-2.9997072,3.0036173C9.8807735,14.5036678,8.53508,13.1562805,8.53508,11.5000505z"/>
</svg>
