<?xml version="1.0" standalone="no"?><!DOCTYPE svg PUBLIC "-//W3C//DTD SVG 1.1//EN" "http://www.w3.org/Graphics/SVG/1.1/DTD/svg11.dtd"><svg width="100%" height="100%" viewBox="0 0 20 20" version="1.1" xmlns="http://www.w3.org/2000/svg" xmlns:xlink="http://www.w3.org/1999/xlink" xml:space="preserve" style="fill-rule:evenodd;clip-rule:evenodd;stroke-linejoin:round;stroke-miterlimit:1.41421;"><g id="Layer1"><path d="M10,0c5.52285,0 10,4.47715 10,10c0,5.52285 -4.47715,10 -10,10c-5.52285,0 -10,-4.47715 -10,-10c0,-5.52285 4.47715,-10 10,-10ZM10.0593,13.807c0.443674,0 0.80074,0.130671 1.0712,0.392013c0.270459,0.261342 0.405688,0.595617 0.405688,1.00282c0,0.40113 -0.135229,0.732366 -0.405688,0.993708c-0.270459,0.261342 -0.627525,0.392013 -1.0712,0.392013c-0.437596,0 -0.791624,-0.130671 -1.06208,-0.392013c-0.270459,-0.261342 -0.405688,-0.592578 -0.405688,-0.993708c0,-0.40113 0.135229,-0.733885 0.405688,-0.998266c0.270459,-0.264381 0.624486,-0.396572 1.06208,-0.396572ZM11.1532,12.3666l-2.18798,0l-0.309964,-9.19864l2.80791,0l-0.309964,9.19864Z" style="fill:#9fec33;"/></g></svg>