<?xml version="1.0" standalone="no"?>
<!DOCTYPE svg PUBLIC "-//W3C//DTD SVG 1.1//EN" "http://www.w3.org/Graphics/SVG/1.1/DTD/svg11.dtd">
<svg width="100%" height="100%" viewBox="0 0 60 90" version="1.1" xmlns="http://www.w3.org/2000/svg" xmlns:xlink="http://www.w3.org/1999/xlink" xml:space="preserve" style="fill-rule:evenodd;clip-rule:evenodd;stroke-linejoin:round;stroke-miterlimit:1.41421;">
    <g id="Layer1">
        <path id="path5065" d="M21.6705,0.129226C21.6194,17.7106 21.9161,39.1116 21.865,56.6929C5.29848,50.0292 -2.85788,60.3528 1.1607,71.371C3.73948,78.4415 18.2789,83.3384 27.7665,68.6864C27.7651,68.6175 27.9616,67.5604 27.9476,66.7277C27.7521,55.1135 27.4491,37.8141 27.2856,22.8689L53.4934,33.7633C53.5465,44.6697 53.6244,55.4991 53.5915,66.844C37.0249,60.1802 28.8581,70.504 32.8767,81.5222C35.3967,88.4315 49.2325,93.4231 58.7203,79.9666C58.873,79.75 59.0505,79.3186 59.6634,77.7991C59.709,77.686 59.984,76.4613 60,74.8456L59.7089,15.7523C59.6117,15.7498 59.5146,15.748 59.4173,15.7454L59.4376,15.7036C57.102,14.5914 23.7578,0.184403 21.6705,0.129226ZM27.1736,11.8881L53.4684,23.0833C53.4705,24.6838 53.4793,26.266 53.4844,27.8507L27.2234,16.8633C27.201,15.4133 27.2007,13.1466 27.1736,11.8881Z" style="fill:black;fill-rule:nonzero;"/>
    </g>
</svg>
