<?xml version="1.0" encoding="utf-8"?>
<!-- Generator: Adobe Illustrator 17.0.0, SVG Export Plug-In . SVG Version: 6.00 Build 0)  -->
<!DOCTYPE svg PUBLIC "-//W3C//DTD SVG 1.1//EN" "http://www.w3.org/Graphics/SVG/1.1/DTD/svg11.dtd">
<svg version="1.1" id="Слой_1" xmlns="http://www.w3.org/2000/svg" xmlns:xlink="http://www.w3.org/1999/xlink" x="0px" y="0px"
	 width="75px" height="70px" viewBox="0 0 75 70" enable-background="new 0 0 75 70" xml:space="preserve">
<text transform="matrix(1 0 0 1 0.9999 19.4342)" font-family="'HelveticaNeue-Light'" font-size="20">Рейтинг</text>
<path fill="#333333" d="M54.367,45.36l-3.289-0.283c-0.187-0.535-0.405-1.054-0.651-1.558l2.145-2.552
	c0.407-0.484,0.377-1.199-0.07-1.646l-4.701-4.706c-0.447-0.447-1.161-0.478-1.643-0.07l-2.582,2.177
	c-0.483-0.231-0.98-0.436-1.491-0.614L41.8,32.773c-0.053-0.629-0.58-1.113-1.212-1.113h-6.647c-0.632,0-1.158,0.484-1.212,1.113
	l-0.289,3.372c-0.513,0.182-1.012,0.392-1.498,0.629l-2.644-2.229c-0.481-0.408-1.195-0.377-1.643,0.07l-4.7,4.706
	c-0.447,0.447-0.478,1.162-0.07,1.646l2.253,2.68c-0.218,0.459-0.413,0.931-0.584,1.415l-3.464,0.298
	c-0.628,0.054-1.112,0.581-1.112,1.213v6.655c0,0.633,0.484,1.16,1.112,1.213l3.457,0.298c0.17,0.487,0.366,0.961,0.585,1.423
	l-2.248,2.673c-0.407,0.484-0.377,1.199,0.07,1.646l4.7,4.706c0.236,0.237,0.548,0.357,0.86,0.357c0.278,0,0.556-0.095,0.783-0.287
	l2.631-2.217c0.484,0.237,0.982,0.447,1.495,0.629l0.289,3.377c0.053,0.629,0.58,1.113,1.212,1.113h6.647
	c0.632,0,1.158-0.484,1.212-1.113l0.286-3.328c0.527-0.182,1.037-0.394,1.535-0.633l2.568,2.164
	c0.227,0.192,0.505,0.287,0.783,0.287c0.312,0,0.624-0.12,0.86-0.357l4.7-4.706c0.447-0.447,0.478-1.162,0.07-1.645l-2.145-2.552
	c0.244-0.503,0.46-1.02,0.646-1.552l3.282-0.283c0.628-0.054,1.112-0.581,1.112-1.213v-6.655
	C55.479,45.94,54.996,45.413,54.367,45.36z M30.014,49.91c0-4.03,3.275-7.309,7.299-7.309c4.025,0,7.299,3.279,7.299,7.309
	c0,4.03-3.274,7.309-7.299,7.309C33.289,57.218,30.014,53.94,30.014,49.91z"/>
</svg>
