<?xml version="1.0" encoding="utf-8"?>
<!-- Generator: Adobe Illustrator 17.0.0, SVG Export Plug-In . SVG Version: 6.00 Build 0)  -->
<!DOCTYPE svg PUBLIC "-//W3C//DTD SVG 1.1//EN" "http://www.w3.org/Graphics/SVG/1.1/DTD/svg11.dtd">
<svg version="1.1" id="Слой_1" xmlns="http://www.w3.org/2000/svg" xmlns:xlink="http://www.w3.org/1999/xlink" x="0px" y="0px"
	 width="25px" height="25px" viewBox="0 0 25 25" enable-background="new 0 0 25 25" xml:space="preserve">
<path fill="#E6E6E6" d="M20.5,12.673c0-0.276-0.224-0.5-0.5-0.5s-0.5,0.224-0.5,0.5c0,3.859-3.141,7-7,7s-7-3.141-7-7
	c0-3.752,2.971-6.817,6.683-6.984l-1.424,1.656c-0.081,0.095-0.121,0.211-0.121,0.326c0,0.141,0.059,0.28,0.174,0.379
	c0.21,0.181,0.525,0.156,0.705-0.053l2.224-2.586c0.143-0.167,0.153-0.398,0.047-0.577c-0.029-0.059-0.069-0.114-0.123-0.159
	l-2.592-2.228c-0.21-0.181-0.525-0.156-0.705,0.053c-0.081,0.095-0.121,0.211-0.121,0.326c0,0.141,0.059,0.28,0.174,0.379
	l1.728,1.486C7.902,4.876,4.5,8.38,4.5,12.673c0,4.411,3.589,8,8,8S20.5,17.085,20.5,12.673z"/>
</svg>
