<?xml version="1.0" encoding="utf-8"?>
<!-- Generator: Adobe Illustrator 17.0.0, SVG Export Plug-In . SVG Version: 6.00 Build 0)  -->
<!DOCTYPE svg PUBLIC "-//W3C//DTD SVG 1.1//EN" "http://www.w3.org/Graphics/SVG/1.1/DTD/svg11.dtd">
<svg version="1.1" id="Слой_1" xmlns="http://www.w3.org/2000/svg" xmlns:xlink="http://www.w3.org/1999/xlink" x="0px" y="0px"
	 width="23px" height="21px" viewBox="0 0 23 21" enable-background="new 0 0 23 21" xml:space="preserve">
<path fill="#F2F2F2" d="M0,0v21h23V0H0z M15.488,11.373c0,0-0.003,0.222-0.062,0.874c-0.135,1.477-1.548,1.73-1.548,1.73
	c-2.091,0.4-2.32-0.896-2.32-0.896c-0.16-1.486,1.457-2.058,1.457-2.058c1.334-0.343,1.942,0.257,1.942,0.257l-0.015-5.109
	l-5.539,1.25c0,0,0.002,3.945-0.007,5.578c-0.009,1.603-1.19,2.111-1.19,2.111C7.339,15.737,5.5,15.742,5.5,14.182
	c0-1.315,1.241-1.796,1.917-1.868C8.093,12.243,9,13,9,13V6l6.5-1.496C15.5,4.504,15.488,9.761,15.488,11.373z"/>
</svg>
