<?xml version="1.0" encoding="utf-8"?>
<!-- Generator: Adobe Illustrator 17.0.0, SVG Export Plug-In . SVG Version: 6.00 Build 0)  -->
<!DOCTYPE svg PUBLIC "-//W3C//DTD SVG 1.1//EN" "http://www.w3.org/Graphics/SVG/1.1/DTD/svg11.dtd">
<svg version="1.1" id="Слой_1" xmlns="http://www.w3.org/2000/svg" xmlns:xlink="http://www.w3.org/1999/xlink" x="0px" y="0px"
	 width="20px" height="20px" viewBox="0 0 20 20" enable-background="new 0 0 20 20" xml:space="preserve">
<g>
	<g>
		<path fill="#333333" d="M15,1c2.209,0,4,1.791,4,4v10c0,2.209-1.791,4-4,4H5c-2.209,0-4-1.791-4-4V5c0-2.209,1.791-4,4-4H15 M15,0
			H5C2.243,0,0,2.243,0,5v10c0,2.757,2.243,5,5,5h10c2.757,0,5-2.243,5-5V5C20,2.243,17.757,0,15,0L15,0z"/>
	</g>
	<line fill="none" stroke="#333333" stroke-linejoin="round" stroke-miterlimit="10" x1="6" y1="19.5" x2="6" y2="0.5"/>
</g>
</svg>
