<?xml version="1.0" encoding="utf-8"?>
<!-- Generator: Adobe Illustrator 17.0.0, SVG Export Plug-In . SVG Version: 6.00 Build 0)  -->
<!DOCTYPE svg PUBLIC "-//W3C//DTD SVG 1.1//EN" "http://www.w3.org/Graphics/SVG/1.1/DTD/svg11.dtd">
<svg version="1.1" id="Слой_1" xmlns="http://www.w3.org/2000/svg" xmlns:xlink="http://www.w3.org/1999/xlink" x="0px" y="0px"
	 width="34px" height="34px" viewBox="0 0 34 34" enable-background="new 0 0 34 34" xml:space="preserve">
<g opacity="0.2">
	<g>
		<g>
			<path fill="#F2F2F2" d="M8.021,17.054v6h10v-6H8.021z"/>
		</g>
	</g>
	<g>
		<g>
			<path fill="#F2F2F2" d="M19.021,17.054v6h10v-6H19.021z"/>
		</g>
	</g>
	<g>
		<g>
			<path fill="#F2F2F2" d="M19.021,10.054v6h10v-6H19.021z"/>
		</g>
	</g>
	<g>
		<g>
			<path fill="#F2F2F2" d="M8.021,10.054v6h10v-6H8.021z"/>
		</g>
	</g>
</g>
<g opacity="0.5">
	<g>
		<g>
			<path fill="#F2F2F2" d="M7.021,18.054v6h10v-6H7.021z"/>
		</g>
	</g>
	<g>
		<g>
			<path fill="#F2F2F2" d="M18.021,18.054v6h10v-6H18.021z"/>
		</g>
	</g>
	<g>
		<g>
			<path fill="#F2F2F2" d="M18.021,11.054v6h10v-6H18.021z"/>
		</g>
	</g>
	<g>
		<g>
			<path fill="#F2F2F2" d="M7.021,11.054v6h10v-6H7.021z"/>
		</g>
	</g>
</g>
<g>
	<g>
		<g>
			<path fill="#F2F2F2" d="M6.021,19.054v6h10v-6H6.021z"/>
		</g>
	</g>
	<g>
		<g>
			<path fill="#F2F2F2" d="M17.021,19.054v6h10v-6H17.021z"/>
		</g>
	</g>
	<g>
		<g>
			<path fill="#F2F2F2" d="M17.021,12.054v6h10v-6H17.021z"/>
		</g>
	</g>
	<g>
		<g>
			<path fill="#F2F2F2" d="M6.021,12.054v6h10v-6H6.021z"/>
		</g>
	</g>
</g>
</svg>
