<?xml version="1.0" encoding="utf-8"?>
<!-- Generator: Adobe Illustrator 17.0.0, SVG Export Plug-In . SVG Version: 6.00 Build 0)  -->
<!DOCTYPE svg PUBLIC "-//W3C//DTD SVG 1.1//EN" "http://www.w3.org/Graphics/SVG/1.1/DTD/svg11.dtd">
<svg version="1.1" id="Слой_1" xmlns="http://www.w3.org/2000/svg" xmlns:xlink="http://www.w3.org/1999/xlink" x="0px" y="0px"
	 width="14px" height="14px" viewBox="0 0 14 14" enable-background="new 0 0 14 14" xml:space="preserve">
<g>
	<path fill="#494949" d="M7,0C3.134,0,0,3.134,0,7c0,3.866,3.134,7,7,7s7-3.134,7-7C14,3.134,10.866,0,7,0z M9.828,9.121
		c0.195,0.195,0.195,0.512,0,0.707s-0.512,0.195-0.707,0L7,7.707L4.879,9.828c-0.195,0.195-0.512,0.195-0.707,0
		s-0.195-0.512,0-0.707L6.293,7L4.172,4.879c-0.195-0.195-0.195-0.512,0-0.707s0.512-0.195,0.707,0L7,6.293l2.121-2.121
		c0.195-0.195,0.512-0.195,0.707,0s0.195,0.512,0,0.707L7.707,7L9.828,9.121z"/>
</g>
</svg>
