<?xml version="1.0" encoding="utf-8"?>
<!-- Generator: Adobe Illustrator 17.0.0, SVG Export Plug-In . SVG Version: 6.00 Build 0)  -->
<!DOCTYPE svg PUBLIC "-//W3C//DTD SVG 1.1//EN" "http://www.w3.org/Graphics/SVG/1.1/DTD/svg11.dtd">
<svg version="1.1" id="Слой_1" xmlns="http://www.w3.org/2000/svg" xmlns:xlink="http://www.w3.org/1999/xlink" x="0px" y="0px"
	 width="14px" height="14px" viewBox="0 0 14 14" enable-background="new 0 0 14 14" xml:space="preserve">
<g>
	<path fill="#494949" d="M2.05,2.05c-2.734,2.734-2.734,7.166,0,9.899c2.734,2.734,7.166,2.734,9.899,0
		c2.734-2.734,2.734-7.166,0-9.899C9.216-0.683,4.784-0.683,2.05,2.05z M9.555,8.648C9.551,8.652,9.544,8.651,9.54,8.654
		l0.003,0.006l-2.379,2.379l-0.005,0.005l-0.008,0c-0.11,0.1-0.267,0.098-0.384,0.012l-0.021,0.001l-0.016-0.016
		c-0.001-0.001-0.002,0-0.003-0.001c-0.001-0.001,0-0.002-0.001-0.003L4.335,8.648c-0.121-0.121-0.121-0.316,0-0.437
		c0.055-0.055,0.126-0.076,0.197-0.082l0.003-0.007h0.014c0.003,0,0.006,0,0.009,0h4.76L9.32,8.127
		c0.085-0.005,0.17,0.019,0.235,0.084C9.675,8.332,9.676,8.528,9.555,8.648z M9.665,5.352c0.121,0.121,0.121,0.317,0,0.437
		C9.611,5.844,9.539,5.866,9.468,5.871L9.465,5.878H9.451c-0.003,0-0.006,0-0.009,0h-4.76L4.68,5.873
		C4.595,5.878,4.51,5.854,4.445,5.789c-0.121-0.121-0.121-0.317,0-0.437C4.449,5.348,4.456,5.349,4.46,5.346L4.458,5.339L6.836,2.96
		l0.005-0.005l0.008,0c0.11-0.1,0.267-0.098,0.384-0.011l0.021-0.001l0.016,0.016c0.001,0.001,0.002,0,0.003,0.001
		c0,0,0,0.002,0.001,0.003L9.665,5.352z"/>
</g>
</svg>
