<?xml version="1.0" encoding="utf-8"?>
<!-- Generator: Adobe Illustrator 17.0.0, SVG Export Plug-In . SVG Version: 6.00 Build 0)  -->
<!DOCTYPE svg PUBLIC "-//W3C//DTD SVG 1.1//EN" "http://www.w3.org/Graphics/SVG/1.1/DTD/svg11.dtd">
<svg version="1.1" id="Слой_1" xmlns="http://www.w3.org/2000/svg" xmlns:xlink="http://www.w3.org/1999/xlink" x="0px" y="0px"
	 width="14px" height="14px" viewBox="0 0 14 14" enable-background="new 0 0 14 14" xml:space="preserve">
<g>
	<g>
		<path fill="#494949" d="M4.68,5.873l0.002,0.005h4.76c0.003,0,0.006,0,0.009,0h0.014l0.003-0.007
			c0.071-0.005,0.143-0.027,0.197-0.082c0.121-0.121,0.121-0.317,0-0.437L7.275,2.963c-0.001-0.001,0-0.002-0.001-0.003
			s-0.002,0-0.003-0.001L7.255,2.943L7.233,2.944C7.116,2.857,6.959,2.855,6.849,2.955l-0.008,0L6.836,2.96L4.458,5.339L4.46,5.346
			C4.456,5.349,4.449,5.348,4.445,5.352c-0.121,0.121-0.121,0.317,0,0.437C4.51,5.854,4.595,5.878,4.68,5.873z"/>
		<path fill="#494949" d="M9.542,8.661L9.54,8.654c0.004-0.004,0.011-0.002,0.015-0.006c0.121-0.121,0.121-0.316,0-0.437
			C9.49,8.146,9.405,8.122,9.32,8.127L9.318,8.122h-4.76c-0.003,0-0.006,0-0.009,0H4.535L4.532,8.129
			C4.461,8.134,4.389,8.156,4.335,8.211c-0.121,0.121-0.121,0.317,0,0.437l2.391,2.389c0.001,0.001,0,0.002,0.001,0.003
			s0.002,0,0.003,0.001l0.016,0.016l0.021-0.001c0.117,0.087,0.275,0.089,0.385-0.012l0.008,0l0.005-0.005L9.542,8.661z"/>
	</g>
	<g>
		<path fill="#494949" d="M7,1c3.308,0,6,2.692,6,6s-2.692,6-6,6s-6-2.692-6-6S3.692,1,7,1 M7,0C3.134,0,0,3.134,0,7s3.134,7,7,7
			s7-3.134,7-7S10.866,0,7,0L7,0z"/>
	</g>
</g>
</svg>
