<?xml version="1.0" encoding="utf-8"?>
<!-- Generator: Adobe Illustrator 17.0.0, SVG Export Plug-In . SVG Version: 6.00 Build 0)  -->
<!DOCTYPE svg PUBLIC "-//W3C//DTD SVG 1.1//EN" "http://www.w3.org/Graphics/SVG/1.1/DTD/svg11.dtd">
<svg version="1.1" id="Слой_1" xmlns="http://www.w3.org/2000/svg" xmlns:xlink="http://www.w3.org/1999/xlink" x="0px" y="0px"
	 width="14px" height="14px" viewBox="0 0 14 14" enable-background="new 0 0 14 14" xml:space="preserve">
<g>
	<path fill="#494949" d="M7,0C3.134,0,0,3.134,0,7c0,3.866,3.134,7,7,7c3.866,0,7-3.134,7-7C14,3.134,10.866,0,7,0z M7.641,9.972
		c-0.006,0-0.009-0.006-0.015-0.006L7.624,9.972H4.259H4.252L4.247,9.967c-0.148-0.007-0.258-0.12-0.28-0.264L3.951,9.688V9.665
		c0-0.001-0.001-0.002-0.001-0.003S3.951,9.661,3.951,9.66L3.95,6.281c0-0.171,0.138-0.309,0.309-0.309
		c0.077,0,0.143,0.035,0.197,0.082L4.464,6.05l0.01,0.01C4.476,6.062,4.478,6.064,4.48,6.066l3.366,3.366L7.844,9.438
		C7.907,9.494,7.95,9.571,7.95,9.663C7.95,9.834,7.812,9.972,7.641,9.972z M10.05,7.719c0,0.171-0.138,0.309-0.309,0.309
		c-0.077,0-0.143-0.035-0.197-0.082L9.537,7.95l-0.01-0.01C9.524,7.938,9.523,7.936,9.52,7.934L6.154,4.568l0.002-0.005
		C6.093,4.506,6.05,4.429,6.05,4.337c0-0.171,0.138-0.309,0.309-0.309c0.006,0,0.009,0.006,0.015,0.006l0.003-0.006h3.364h0.007
		l0.005,0.005c0.148,0.007,0.258,0.12,0.28,0.264l0.016,0.015v0.023c0,0.001,0.001,0.002,0.001,0.003s-0.001,0.002-0.001,0.003
		L10.05,7.719z"/>
</g>
</svg>
