<?xml version="1.0" encoding="utf-8"?>
<!-- Generator: Adobe Illustrator 17.0.0, SVG Export Plug-In . SVG Version: 6.00 Build 0)  -->
<!DOCTYPE svg PUBLIC "-//W3C//DTD SVG 1.1//EN" "http://www.w3.org/Graphics/SVG/1.1/DTD/svg11.dtd">
<svg version="1.1" id="Слой_1" xmlns="http://www.w3.org/2000/svg" xmlns:xlink="http://www.w3.org/1999/xlink" x="0px" y="0px"
	 width="24px" height="21px" viewBox="0 0 24 21" enable-background="new 0 0 24 21" xml:space="preserve">
<g>
	<path fill="#F2F2F2" d="M10.33,10.22c0.164-0.108,0.294-0.246,0.39-0.414c0.096-0.168,0.164-0.353,0.204-0.552
		c0.04-0.2,0.06-0.396,0.06-0.589c0-0.191-0.02-0.39-0.06-0.594c-0.041-0.204-0.108-0.392-0.204-0.563
		c-0.096-0.172-0.226-0.312-0.39-0.42c-0.164-0.108-0.37-0.162-0.618-0.162c-0.256,0-0.466,0.054-0.63,0.162
		c-0.164,0.107-0.294,0.248-0.39,0.42C8.596,7.68,8.53,7.867,8.494,8.071S8.439,8.474,8.439,8.665c0,0.192,0.018,0.389,0.054,0.589
		C8.53,9.453,8.596,9.638,8.691,9.806c0.096,0.168,0.226,0.306,0.39,0.414c0.164,0.107,0.374,0.162,0.63,0.162
		C9.959,10.382,10.166,10.327,10.33,10.22z"/>
	<path fill="#F2F2F2" d="M15.988,11.623c-0.097-0.172-0.227-0.312-0.391-0.42c-0.164-0.107-0.37-0.162-0.618-0.162
		c-0.256,0-0.466,0.055-0.63,0.162c-0.164,0.108-0.294,0.248-0.391,0.42c-0.096,0.173-0.162,0.36-0.197,0.564
		c-0.036,0.204-0.055,0.402-0.055,0.594c0,0.192,0.019,0.389,0.055,0.588c0.035,0.2,0.102,0.385,0.197,0.553
		c0.097,0.168,0.227,0.306,0.391,0.413c0.164,0.108,0.374,0.162,0.63,0.162c0.248,0,0.454-0.054,0.618-0.162
		c0.164-0.107,0.294-0.245,0.391-0.413c0.096-0.168,0.163-0.353,0.203-0.553c0.04-0.199,0.061-0.396,0.061-0.588
		c0-0.191-0.021-0.39-0.061-0.594S16.084,11.796,15.988,11.623z"/>
	<path fill="#F2F2F2" d="M0,0v21h24V0H0z M8.248,10.268c-0.152-0.204-0.264-0.444-0.336-0.72C7.839,9.271,7.804,8.974,7.804,8.653
		c0-0.319,0.036-0.618,0.108-0.894c0.072-0.276,0.184-0.517,0.336-0.721s0.35-0.363,0.594-0.479c0.244-0.116,0.534-0.174,0.87-0.174
		s0.626,0.058,0.87,0.174s0.442,0.275,0.594,0.479c0.152,0.204,0.264,0.444,0.336,0.721c0.072,0.275,0.108,0.574,0.108,0.894
		c0,0.32-0.036,0.618-0.108,0.895c-0.072,0.275-0.184,0.516-0.336,0.72c-0.152,0.204-0.35,0.364-0.594,0.479
		c-0.244,0.116-0.534,0.175-0.87,0.175s-0.626-0.059-0.87-0.175C8.598,10.632,8.399,10.472,8.248,10.268z M9.255,15.254l5.436-9.097
		h0.564l-5.424,9.097H9.255z M16.779,13.663c-0.072,0.276-0.184,0.517-0.336,0.721s-0.35,0.361-0.594,0.474s-0.534,0.168-0.87,0.168
		s-0.626-0.056-0.87-0.168s-0.441-0.27-0.594-0.474s-0.264-0.444-0.336-0.721c-0.072-0.275-0.107-0.573-0.107-0.894
		s0.035-0.618,0.107-0.895c0.072-0.275,0.184-0.516,0.336-0.72s0.35-0.364,0.594-0.479c0.244-0.116,0.534-0.175,0.87-0.175
		s0.626,0.059,0.87,0.175c0.244,0.115,0.441,0.275,0.594,0.479s0.264,0.444,0.336,0.72c0.072,0.276,0.108,0.574,0.108,0.895
		S16.852,13.388,16.779,13.663z"/>
</g>
</svg>
