<?xml version="1.0" encoding="utf-8"?>
<!-- Generator: Adobe Illustrator 17.0.0, SVG Export Plug-In . SVG Version: 6.00 Build 0)  -->
<!DOCTYPE svg PUBLIC "-//W3C//DTD SVG 1.1//EN" "http://www.w3.org/Graphics/SVG/1.1/DTD/svg11.dtd">
<svg version="1.1" id="Слой_1" xmlns="http://www.w3.org/2000/svg" xmlns:xlink="http://www.w3.org/1999/xlink" x="0px" y="0px"
	 width="24px" height="21px" viewBox="0 0 24 21" enable-background="new 0 0 24 21" xml:space="preserve">
<path fill="#F2F2F2" d="M0,0v21h24V0H0z M5.738,14.857H4.981v-6.24h-2.22v-0.54c0.328-0.008,0.626-0.025,0.894-0.054
	s0.5-0.094,0.696-0.198c0.196-0.104,0.36-0.262,0.492-0.474C4.976,7.14,5.07,6.842,5.125,6.457h0.612V14.857z M14.233,14.857H8.702
	c0.008-0.416,0.08-0.784,0.216-1.104c0.136-0.32,0.316-0.608,0.54-0.864s0.476-0.49,0.756-0.702c0.28-0.212,0.568-0.416,0.864-0.612
	c0.296-0.195,0.59-0.396,0.882-0.6s0.554-0.422,0.787-0.654c0.231-0.231,0.405-0.47,0.521-0.714s0.174-0.534,0.174-0.87
	c0-0.271-0.05-0.514-0.149-0.726c-0.101-0.212-0.236-0.393-0.408-0.54c-0.172-0.148-0.372-0.26-0.6-0.336s-0.47-0.114-0.726-0.114
	c-0.344,0-0.638,0.064-0.882,0.192c-0.244,0.128-0.442,0.3-0.594,0.516s-0.262,0.464-0.33,0.744S9.653,9.05,9.662,9.361H8.906
	c-0.008-0.432,0.042-0.83,0.15-1.194C9.164,7.804,9.33,7.489,9.554,7.226c0.224-0.265,0.506-0.47,0.846-0.618
	c0.34-0.147,0.738-0.222,1.194-0.222c0.368,0,0.709,0.05,1.026,0.149c0.315,0.101,0.592,0.248,0.828,0.444
	C13.684,7.176,13.867,7.422,14,7.718c0.131,0.296,0.197,0.64,0.197,1.031c0,0.353-0.058,0.673-0.174,0.96
	c-0.116,0.288-0.271,0.553-0.468,0.792c-0.196,0.24-0.42,0.463-0.672,0.666c-0.252,0.204-0.519,0.395-0.798,0.57
	c-0.2,0.137-0.436,0.286-0.708,0.45s-0.534,0.346-0.786,0.546c-0.252,0.2-0.474,0.418-0.666,0.654
	c-0.192,0.235-0.312,0.494-0.36,0.773h4.668V14.857z M20.863,13.579c-0.156,0.316-0.366,0.582-0.63,0.798
	c-0.264,0.217-0.572,0.379-0.924,0.486c-0.353,0.108-0.72,0.162-1.104,0.162c-0.432,0-0.83-0.064-1.193-0.192
	c-0.364-0.128-0.677-0.312-0.937-0.552s-0.456-0.536-0.588-0.888c-0.132-0.353-0.182-0.756-0.149-1.212h0.756
	c-0.017,0.336,0.021,0.64,0.113,0.912c0.092,0.271,0.229,0.504,0.408,0.695c0.18,0.192,0.404,0.343,0.672,0.45
	c0.269,0.108,0.57,0.162,0.906,0.162c0.28,0,0.548-0.04,0.804-0.12s0.484-0.199,0.685-0.359c0.199-0.16,0.359-0.356,0.479-0.589
	c0.12-0.231,0.181-0.495,0.181-0.792c0-0.304-0.053-0.565-0.156-0.785c-0.104-0.221-0.248-0.404-0.433-0.553
	c-0.184-0.147-0.397-0.258-0.642-0.33c-0.244-0.071-0.506-0.107-0.786-0.107h-0.636V10.13h0.636c0.192,0,0.391-0.03,0.594-0.091
	c0.204-0.06,0.389-0.151,0.553-0.275s0.298-0.282,0.401-0.475c0.104-0.191,0.156-0.42,0.156-0.684c0-0.28-0.048-0.518-0.144-0.714
	c-0.097-0.196-0.229-0.36-0.396-0.492s-0.362-0.228-0.582-0.288c-0.22-0.06-0.458-0.09-0.714-0.09c-0.312,0-0.588,0.052-0.828,0.156
	c-0.24,0.104-0.442,0.25-0.605,0.438c-0.164,0.188-0.286,0.412-0.366,0.672c-0.08,0.261-0.116,0.546-0.108,0.858h-0.756
	c0-0.4,0.062-0.769,0.187-1.104c0.123-0.336,0.3-0.625,0.527-0.869c0.229-0.244,0.506-0.437,0.834-0.576
	c0.328-0.141,0.696-0.21,1.104-0.21c0.328,0,0.647,0.042,0.96,0.126c0.312,0.084,0.59,0.212,0.834,0.384s0.439,0.392,0.588,0.66
	c0.147,0.268,0.222,0.59,0.222,0.966c0,0.456-0.122,0.852-0.366,1.188c-0.244,0.337-0.594,0.561-1.05,0.673v0.023
	c0.553,0.088,0.979,0.318,1.278,0.69s0.45,0.834,0.45,1.386C21.098,12.897,21.02,13.264,20.863,13.579z"/>
</svg>
