<?xml version="1.0" encoding="utf-8"?>
<!-- Generator: Adobe Illustrator 17.0.0, SVG Export Plug-In . SVG Version: 6.00 Build 0)  -->
<!DOCTYPE svg PUBLIC "-//W3C//DTD SVG 1.1//EN" "http://www.w3.org/Graphics/SVG/1.1/DTD/svg11.dtd">
<svg version="1.1" id="Слой_1" xmlns="http://www.w3.org/2000/svg" xmlns:xlink="http://www.w3.org/1999/xlink" x="0px" y="0px"
	 width="30px" height="15px" viewBox="0 0 30 15" enable-background="new 0 0 30 15" xml:space="preserve">
<g>
	<path fill="none" stroke="#575756" stroke-width="0.9025577" stroke-linecap="round" stroke-miterlimit="10" d="M3.1290276,7.5
		c8.1519814-9.4906788,17.2781048-8.5672731,23.7419434,0.0099735"/>
	<path fill="none" stroke="#575756" stroke-width="0.9025577" stroke-linecap="round" stroke-miterlimit="10" d="M3.1290276,7.5
		c8.1519814,9.4906788,17.2781048,8.5672741,23.7419434-0.0099735"/>
	<g>
		<path fill="#575756" d="M15.3931561,3.38785c2.27108,0,4.1121502,1.8410699,4.1121502,4.1121502
			s-1.8410702,4.1121502-4.1121502,4.1121502S11.2810059,9.77108,11.2810059,7.5S13.122076,3.38785,15.3931561,3.38785
			 M15.3931561,2.4852901c-2.7651196,0-5.0147104,2.2495899-5.0147104,5.0147099s2.2495909,5.0147104,5.0147104,5.0147104
			S20.4078655,10.2651196,20.4078655,7.5S18.1582756,2.4852901,15.3931561,2.4852901L15.3931561,2.4852901z"/>
	</g>
</g>
</svg>
