<?xml version="1.0" encoding="utf-8"?>
<!-- Generator: Adobe Illustrator 17.0.0, SVG Export Plug-In . SVG Version: 6.00 Build 0)  -->
<!DOCTYPE svg PUBLIC "-//W3C//DTD SVG 1.1//EN" "http://www.w3.org/Graphics/SVG/1.1/DTD/svg11.dtd">
<svg version="1.1" id="Слой_1" xmlns="http://www.w3.org/2000/svg" xmlns:xlink="http://www.w3.org/1999/xlink" x="0px" y="0px"
	 width="40px" height="70px" viewBox="0 0 40 70" enable-background="new 0 0 40 70" xml:space="preserve">
<g>
	<rect x="5" fill="#B3B3B3" width="5" height="5"/>
	<rect y="5" fill="#B3B3B3" width="5" height="5"/>
	<rect x="5" y="10" fill="#B3B3B3" width="5" height="5"/>
	<rect y="15" fill="#B3B3B3" width="5" height="5"/>
	<rect x="5" y="20" fill="#B3B3B3" width="5" height="5"/>
	<rect y="25" fill="#B3B3B3" width="5" height="5"/>
	<rect x="5" y="30" fill="#B3B3B3" width="5" height="5"/>
	<rect y="35" fill="#B3B3B3" width="5" height="5"/>
	<rect x="5" y="40" fill="#B3B3B3" width="5" height="5"/>
	<path fill="#B3B3B3" d="M7.143,46.92H2.857C1.279,46.92,0,48.105,0,49.567v17.206c0,1.462,1.279,2.647,2.857,2.647h4.286
		c1.578,0,2.857-1.185,2.857-2.647V49.567C10,48.105,8.721,46.92,7.143,46.92z M8.75,65.522c0,1.462-1.279,2.647-2.857,2.647H4.107
		c-1.578,0-2.857-1.185-2.857-2.647v-4.706c0-1.462,1.279-2.647,2.857-2.647h1.786c1.578,0,2.857,1.185,2.857,2.647V65.522z"/>
</g>
</svg>
