<?xml version="1.0" encoding="utf-8"?>
<!-- Generator: Adobe Illustrator 17.0.0, SVG Export Plug-In . SVG Version: 6.00 Build 0)  -->
<!DOCTYPE svg PUBLIC "-//W3C//DTD SVG 1.1//EN" "http://www.w3.org/Graphics/SVG/1.1/DTD/svg11.dtd">
<svg version="1.1" id="Слой_1" xmlns="http://www.w3.org/2000/svg" xmlns:xlink="http://www.w3.org/1999/xlink" x="0px" y="0px"
	 width="40px" height="70px" viewBox="0 0 40 70" enable-background="new 0 0 40 70" xml:space="preserve">
<g>
	<path fill="#F2F2F2" d="M40,19.788V2c0-1.105-0.895-2-2-2L20.532,0L40,19.788z"/>
</g>
<g>
	<path fill="#CCCCCC" d="M20.532,0L40,19.788H22.532c-1.105,0-2-0.895-2-2V0 M20.532-1c-0.127,0-0.256,0.024-0.379,0.075
		C19.778-0.772,19.532-0.406,19.532,0v17.788c0,1.654,1.346,3,3,3H40c0.403,0,0.767-0.242,0.922-0.614s0.073-0.8-0.209-1.088
		L21.245-0.701C21.054-0.896,20.795-1,20.532-1L20.532-1z"/>
</g>
</svg>
