<?xml version="1.0" encoding="utf-8"?>
<!-- Generator: Adobe Illustrator 17.0.0, SVG Export Plug-In . SVG Version: 6.00 Build 0)  -->
<!DOCTYPE svg PUBLIC "-//W3C//DTD SVG 1.1//EN" "http://www.w3.org/Graphics/SVG/1.1/DTD/svg11.dtd">
<svg version="1.1" id="Слой_1" xmlns="http://www.w3.org/2000/svg" xmlns:xlink="http://www.w3.org/1999/xlink" x="0px" y="0px"
	 width="1210px" height="5787.942px" viewBox="0 0 1210 5787.942" enable-background="new 0 0 1210 5787.942" xml:space="preserve">

<defs>
  <style type="text/css">
   <![CDATA[
    @font-face {
        font-family: 'HelveticaNeue-Light';
        src:url("/fonts/777240/5b85c7cc-6ad4-4226-83f5-9d19e2974123.eot?#iefix");
	    src:local("Helvetica Neue Light"), local("HelveticaNeue-Light"), url("/fonts/777240/3fc84193-a13f-4fe8-87f7-238748a4ac54.svg#3fc84193-a13f-4fe8-87f7-238748a4ac54") format("svg"), url("/fonts/777240/835e7b4f-b524-4374-b57b-9a8fc555fd4e.woff") format("woff"),url("/fonts/777240/2c694ef6-9615-473e-8cf4-d8d00c6bd973.ttf") format("truetype");
    }
   ]]>
 </style>
</defs>

<g id="vZ3QuQ.tif">
	
		<image overflow="visible" width="2174" height="1304" id="Layer_0_1_" xlink:href="55ECAD3839E31CB.jpeg"  transform="matrix(0.2331 0 0 0.2331 359.5139 127.245)">
	</image>
</g>
<rect x="105.917" y="599.998" display="none" fill="#9AD000" width="20.432" height="600"/>
<rect x="105.917" y="1251.079" display="none" fill="#0031B9" width="20.432" height="600"/>
<rect x="105.917" y="2023.357" display="none" fill="#45FF6F" width="20.432" height="600"/>
<rect x="105.917" y="2624.356" display="none" fill="#00455C" width="20.432" height="600"/>
<rect x="105.917" y="3223.767" display="none" fill="#DAFF2E" width="20.432" height="600"/>
<rect x="105.917" y="2.614" display="none" fill="#FDFF00" width="20.432" height="600"/>
<rect x="388.122" y="26.971" fill="none" width="433.761" height="45.415"/>
<text transform="matrix(1 0 0 1 543.0875 59.8149)" fill="#333333" font-family="'HelveticaNeue-Light'" font-size="46">Темы.</text>
<rect x="204.864" y="462.481" fill="none" width="808.277" height="125.531"/>
<text transform="matrix(1 0 0 1 208.6763 476.7605)"><tspan x="0" y="0" fill="#333333" font-family="'HelveticaNeue-Light'" font-size="20">Чтобы отправить много постов, нужно создать много постов. Почти за 3 года в buzzlike </tspan><tspan x="8.31" y="25" fill="#333333" font-family="'HelveticaNeue-Light'" font-size="20">произведено около 30 000 000 постов. Мы хорошо знакомы с социальными сетями и </tspan><tspan x="42.731" y="50" fill="#333333" font-family="'HelveticaNeue-Light'" font-size="20">изучили опыт классических медиа в управлении контентом. Каков результат? </tspan><tspan x="149.889" y="75" fill="#333333" font-family="'HelveticaNeue-Light'" font-size="20">Наиболее продвинутый сервис управления контентом.</tspan></text>
<rect x="213.284" y="1064.507" fill="none" width="783.438" height="128.741"/>
<text transform="matrix(1 0 0 1 263.8163 1078.7867)"><tspan x="0" y="0" fill="#333333" font-family="'HelveticaNeue-Light'" font-size="20">Объединенные посты и материалы образуют тему, внутри которой удобно </tspan><tspan x="-13.79" y="25" fill="#333333" font-family="'HelveticaNeue-Light'" font-size="20">ориентироваться в публикациях, быстро создавать новые, легко дополнять и </tspan><tspan x="7.4" y="50" fill="#333333" font-family="'HelveticaNeue-Light'" font-size="20">редактировать имеющиеся посты. Простой в использовании инструмент </tspan><tspan x="58.14" y="75" fill="#333333" font-family="'HelveticaNeue-Light'" font-size="20">составления публикаций из наборов тематического контента. </tspan></text>
<text transform="matrix(1 0 0 1 445.5126 93.3925)" fill="#666666" font-family="'HelveticaNeue-Light'" font-size="24">Месторождение публикаций.</text>
<g>
	<g>
		<text transform="matrix(1 0 0 1 459.1807 716.2879)" fill="#666666" font-family="'HelveticaNeue-Light'" font-size="24">Уникальные возможности.</text>
	</g>
	<g>
		<text transform="matrix(1 0 0 1 401.7293 678.9888)" fill="#333333" font-family="'HelveticaNeue-Light'" font-size="46">Специальное место.</text>
	</g>
</g>
<g>
	<g>
		<text transform="matrix(1 0 0 1 459.1807 1344.2878)" fill="#666666" font-family="'HelveticaNeue-Light'" font-size="24">Уникальные возможности.</text>
	</g>
	<g>
		<text transform="matrix(1 0 0 1 401.7293 1306.9888)" fill="#333333" font-family="'HelveticaNeue-Light'" font-size="46">Специальное место.</text>
	</g>
</g>
<line fill="none" stroke="#999999" stroke-miterlimit="10" x1="222.659" y1="599.674" x2="986.659" y2="599.674"/>
<g>
	<line fill="none" stroke="#999999" stroke-miterlimit="10" x1="259.659" y1="1011.674" x2="973.659" y2="1011.674"/>
	
		<image overflow="visible" width="2971" height="1921" xlink:href="55ECAD3839E31C9.png"  transform="matrix(0.24 0 0 0.24 259.2657 757.8506)">
	</image>
</g>
<rect x="698.062" y="1482.229" fill="none" width="358.027" height="185.707"/>
<text transform="matrix(1 0 0 1 698.062 1492.2255)"><tspan x="0" y="0" fill="#494949" font-family="'HelveticaNeue-Light'" font-size="14">Создать серию постов из картинок или папок. </tspan><tspan x="0" y="20.55" fill="#494949" font-family="'HelveticaNeue-Light'" font-size="14">Добавить в каждый пост заголовок или хэштег. Убрать </tspan><tspan x="0" y="41.1" fill="#494949" font-family="'HelveticaNeue-Light'" font-size="14">текст из всех постов или исправить опечатку сразу во </tspan><tspan x="0" y="61.65" fill="#494949" font-family="'HelveticaNeue-Light'" font-size="14">всех постах. Buzzlike предложит короткий путь через </tspan><tspan x="0" y="82.2" fill="#494949" font-family="'HelveticaNeue-Light'" font-size="14">целые последовательности действий в один клик в </tspan><tspan x="0" y="102.75" fill="#494949" font-family="'HelveticaNeue-Light'" font-size="14">нужных местах. Меньше рутины. Больше удовольствия </tspan><tspan x="0" y="123.3" fill="#494949" font-family="'HelveticaNeue-Light'" font-size="14">от процесса. Посты в теме расположены справа.</tspan></text>
<g>
	<text transform="matrix(1 0 0 1 698.0616 1436.6459)" fill="#333333" font-family="'HelveticaNeue-Light'" font-size="25.2923">Работа с постами.</text>
</g>
<g>
	<text transform="matrix(1 0 0 1 698.062 1464.8568)" fill="#666666" font-family="'HelveticaNeue-Light'" font-size="21">Готовые сценарии.</text>
</g>
<rect x="209.841" y="1482.229" fill="none" width="386.314" height="188.096"/>
<text transform="matrix(1 0 0 1 209.8414 1492.2255)"><tspan x="0" y="0" fill="#494949" font-family="'HelveticaNeue-Light'" font-size="14">Контент-инженер за день сталкивается с большим </tspan><tspan x="0" y="20.55" fill="#494949" font-family="'HelveticaNeue-Light'" font-size="14">количеством тематик. Для поддержания качества работы </tspan><tspan x="0" y="41.1" fill="#494949" font-family="'HelveticaNeue-Light'" font-size="14">важно сохранять способность фокусироваться на </tspan><tspan x="0" y="61.65" fill="#494949" font-family="'HelveticaNeue-Light'" font-size="14">отдельном тексте, посте, теме. Мы отвели специальное </tspan><tspan x="0" y="82.2" fill="#494949" font-family="'HelveticaNeue-Light'" font-size="14">место, где вы можете собрать нужные материалы на </tspan><tspan x="0" y="102.75" fill="#494949" font-family="'HelveticaNeue-Light'" font-size="14">конкретную тематику и сберечь внимание. Внутри темы </tspan><tspan x="0" y="123.3" fill="#494949" font-family="'HelveticaNeue-Light'" font-size="14">слева располагаются все материалы этой темы.</tspan></text>
<g>
	<text transform="matrix(1 0 0 1 209.841 1436.6464)" fill="#333333" font-family="'HelveticaNeue-Light'" font-size="25.2923">Контентное окружение.</text>
</g>
<g>
	<text transform="matrix(1 0 0 1 209.8409 1464.8566)" fill="#666666" font-family="'HelveticaNeue-Light'" font-size="21">Фокусироваться на теме легко.</text>
</g>
<rect x="0.003" y="2059.676" fill="#FDC300" width="1210" height="310"/>
<g>
	<text transform="matrix(1 0 0 1 365.8468 2229.9585)" fill="#494949" font-family="'HelveticaNeue-Light'" font-size="84.1735">Возможности.</text>
</g>
<g>
	<text transform="matrix(1 0 0 1 495.5613 2491.4116)" fill="#666666" font-family="'HelveticaNeue-Light'" font-size="24">Смотрите как удобно.</text>
</g>
<g>
	<text transform="matrix(1 0 0 1 499.1085 2454.1125)" fill="#333333" font-family="'HelveticaNeue-Light'" font-size="46">Навигация.</text>
</g>
<rect x="257.335" y="3082.934" fill="none" width="323.723" height="188.841"/>
<text transform="matrix(1 0 0 1 257.334 3092.9302)"><tspan x="0" y="0" fill="#494949" font-family="'HelveticaNeue-Light'" font-size="14">Тема может быть достаточно обширна. Это </tspan><tspan x="0" y="20.55" fill="#494949" font-family="'HelveticaNeue-Light'" font-size="14">дополняет требования к  навигации по контенту </tspan><tspan x="0" y="41.1" fill="#494949" font-family="'HelveticaNeue-Light'" font-size="14">внутри темы. В buzzlike вы можете быстро </tspan><tspan x="0" y="61.65" fill="#494949" font-family="'HelveticaNeue-Light'" font-size="14">переключаться между типами контента. Коробки </tspan><tspan x="0" y="82.2" fill="#494949" font-family="'HelveticaNeue-Light'" font-size="14">с фотографиями, стопки текстов, аудиозаписи — </tspan><tspan x="0" y="102.75" fill="#494949" font-family="'HelveticaNeue-Light'" font-size="14">все по полочкам внутри каждой темы.</tspan></text>
<rect x="257.32" y="3493.35" fill="none" width="300.757" height="241.917"/>
<text transform="matrix(1 0 0 1 257.32 3503.3467)"><tspan x="0" y="0" fill="#494949" font-family="'HelveticaNeue-Light'" font-size="14">Чтобы нужные материалы всегда были под </tspan><tspan x="0" y="20.55" fill="#494949" font-family="'HelveticaNeue-Light'" font-size="14">рукой, добавьте их в тему. Выберите нужный </tspan><tspan x="0" y="41.1" fill="#494949" font-family="'HelveticaNeue-Light'" font-size="14">контент в разделе «материалы», переместите </tspan><tspan x="0" y="61.65" fill="#494949" font-family="'HelveticaNeue-Light'" font-size="14">их в тему перетаскиванием или через панель </tspan><tspan x="0" y="82.2" fill="#494949" font-family="'HelveticaNeue-Light'" font-size="14">буфера. Повторное добавление контента </tspan><tspan x="0" y="102.75" fill="#494949" font-family="'HelveticaNeue-Light'" font-size="14">невозможно. При добавлении папки в тему, </tspan><tspan x="0" y="123.3" fill="#494949" font-family="'HelveticaNeue-Light'" font-size="14">будет добавлено все содержимое папки. Так </tspan><tspan x="0" y="143.85" fill="#494949" font-family="'HelveticaNeue-Light'" font-size="14">же вы можете загрузить материалы сразу в </tspan><tspan x="0" y="164.4" fill="#494949" font-family="'HelveticaNeue-Light'" font-size="14">тему. Для этого нажмите кнопку «загрузить» в </tspan><tspan x="0" y="184.949" fill="#494949" font-family="'HelveticaNeue-Light'" font-size="14">шапке.</tspan></text>
<rect x="645.633" y="3857.794" fill="none" width="325.913" height="242.432"/>
<text transform="matrix(1 0 0 1 645.6339 3867.7905)"><tspan x="0" y="0" fill="#494949" font-family="'HelveticaNeue-Light'" font-size="14">Выберите нужные материалы в теме. Растяните </tspan><tspan x="0" y="20.55" fill="#494949" font-family="'HelveticaNeue-Light'" font-size="14">рамку выделения аналогично операционной </tspan><tspan x="0" y="41.1" fill="#494949" font-family="'HelveticaNeue-Light'" font-size="14">системе или выделите поочереди с удержанием </tspan><tspan x="0" y="61.65" fill="#494949" font-family="'HelveticaNeue-Light'" font-size="14">ctrl. Нажмите на шестеренку в шапке или </tspan><tspan x="0" y="82.2" fill="#494949" font-family="'HelveticaNeue-Light'" font-size="14">вызовите контекстное меню (правая кнопка). </tspan><tspan x="0" y="102.75" fill="#494949" font-family="'HelveticaNeue-Light'" font-size="14">Выберите пункт «Создать серию постов в теме». </tspan><tspan x="0" y="123.3" fill="#494949" font-family="'HelveticaNeue-Light'" font-size="14">По количеству выбранных материалов и папок </tspan><tspan x="0" y="143.85" fill="#494949" font-family="'HelveticaNeue-Light'" font-size="14">будут созданы посты внутри текущей темы .</tspan></text>
<rect x="645.633" y="4062.901" fill="none" width="338.096" height="229.084"/>
<text transform="matrix(1 0 0 1 645.6329 4072.8975)"><tspan x="0" y="0" fill="#494949" font-family="'HelveticaNeue-Light'" font-size="14">Вы можете создать пустой пост с помощью кнопки </tspan><tspan x="0" y="20.55" fill="#494949" font-family="'HelveticaNeue-Light'" font-size="14">в шапке или контекстного меню. Чтобы создать </tspan><tspan x="0" y="41.1" fill="#494949" font-family="'HelveticaNeue-Light'" font-size="14">пост из материалов темы — выберите нужные и </tspan><tspan x="0" y="61.65" fill="#494949" font-family="'HelveticaNeue-Light'" font-size="14">создайте пост через контекстное меню или кнопку в </tspan><tspan x="0" y="82.2" fill="#494949" font-family="'HelveticaNeue-Light'" font-size="14">шапке. При перетаскивании материалов в пост в </tspan><tspan x="0" y="102.75" fill="#494949" font-family="'HelveticaNeue-Light'" font-size="14">выпадающем списке действий так же доступен </tspan><tspan x="0" y="123.3" fill="#494949" font-family="'HelveticaNeue-Light'" font-size="14">вариант «создать пост». </tspan></text>
<rect x="645.633" y="2828.934" fill="none" width="314.533" height="188.841"/>
<text transform="matrix(1 0 0 1 645.633 2838.9302)"><tspan x="0" y="0" fill="#494949" font-family="'HelveticaNeue-Light'" font-size="14">Вы можете сфокусироваться только на </tspan><tspan x="0" y="20.55" fill="#494949" font-family="'HelveticaNeue-Light'" font-size="14">неотправленных постах или выбрать только </tspan><tspan x="0" y="41.1" fill="#494949" font-family="'HelveticaNeue-Light'" font-size="14">незапланированные с помощью внутренних </tspan><tspan x="0" y="61.65" fill="#494949" font-family="'HelveticaNeue-Light'" font-size="14">фильтров в теме. Сортировка постов так же </tspan><tspan x="0" y="82.2" fill="#494949" font-family="'HelveticaNeue-Light'" font-size="14">может помочь быстро найти последние </tspan><tspan x="0" y="102.75" fill="#494949" font-family="'HelveticaNeue-Light'" font-size="14">редактированные посты или пост на самую </tspan><tspan x="0" y="123.3" fill="#494949" font-family="'HelveticaNeue-Light'" font-size="14">позднюю дату.</tspan></text>
<rect x="257.32" y="2828.934" fill="none" width="332.105" height="188.841"/>
<text transform="matrix(1 0 0 1 257.3201 2838.9302)"><tspan x="0" y="0" fill="#494949" font-family="'HelveticaNeue-Light'" font-size="14">Вам могут быть нужны посты, отправленные на </tspan><tspan x="0" y="20.55" fill="#494949" font-family="'HelveticaNeue-Light'" font-size="14">прошлой неделе, редактированные вчера или </tspan><tspan x="0" y="41.1" fill="#494949" font-family="'HelveticaNeue-Light'" font-size="14">отправленные в сообщество «ХФЦ».</tspan><tspan x="0" y="61.65" fill="#494949" font-family="'HelveticaNeue-Light'" font-size="14">Выберите сортировку по одному из нескольких </tspan><tspan x="0" y="82.2" fill="#494949" font-family="'HelveticaNeue-Light'" font-size="14">параметров и быстро найдете искомые посты или </tspan><tspan x="0" y="102.75" fill="#494949" font-family="'HelveticaNeue-Light'" font-size="14">темы.</tspan></text>
<g>
	<text transform="matrix(1 0 0 1 257.3203 2819.8345)" fill="#494949" font-family="'HelveticaNeue'" font-size="14">Сортировка и фильтрация тем </text>
</g>
<g>
	<text transform="matrix(1 0 0 1 645.6334 2819.8345)" fill="#494949" font-family="'HelveticaNeue'" font-size="14">Сортировка постов в теме</text>
</g>
<g>
</g>
<g>
	<text transform="matrix(1 0 0 1 257.3201 3073.8345)" fill="#494949" font-family="'HelveticaNeue'" font-size="14">Быстрое перемещение по типам контента</text>
</g>
<g>
	<text transform="matrix(1 0 0 1 257.32 3484.6506)" fill="#494949" font-family="'HelveticaNeue'" font-size="14">Добавление материалов в тему</text>
</g>
<g>
	<text transform="matrix(1 0 0 1 645.6331 3849.0942)" fill="#494949" font-family="'HelveticaNeue'" font-size="14">Создание серии постов</text>
</g>
<g>
	<text transform="matrix(1 0 0 1 645.6331 4054.2012)" fill="#494949" font-family="'HelveticaNeue'" font-size="14">Создание поста в теме</text>
</g>
<rect x="257.32" y="4957.134" fill="none" width="668.803" height="229.084"/>
<text transform="matrix(1 0 0 1 257.3201 4967.1304)"><tspan x="0" y="0" fill="#494949" font-family="'HelveticaNeue-Light'" font-size="14">Чтобы создать текст в посте, кликните на иконку «Т» в заголовке поста. Можно выбрать уже </tspan><tspan x="0" y="20.55" fill="#494949" font-family="'HelveticaNeue-Light'" font-size="14">существующий в теме текст и перетащить на пост. Добавление в пост так же возможно при </tspan><tspan x="0" y="41.1" fill="#494949" font-family="'HelveticaNeue-Light'" font-size="14">перетаскивании из панели буфера или из окна материалов. Вы можете добавлять несколько текстов к </tspan><tspan x="0" y="61.65" fill="#494949" font-family="'HelveticaNeue-Light'" font-size="14">одному посту. Это удобно для прикрепления хэштегов или компановки текста из абзацев.</tspan></text>
<g>
	<text transform="matrix(1 0 0 1 442.0716 4385.1948)" fill="#333333" font-family="'HelveticaNeue-Light'" font-size="46">Сборка постов.</text>
</g>
<g>
	<text transform="matrix(1 0 0 1 499.6203 4422.4937)" fill="#666666" font-family="'HelveticaNeue-Light'" font-size="24">Быстрые действия.</text>
</g>
<g>
	<rect x="257.983" y="4491.343" fill="none" width="320" height="138.96"/>
	<text transform="matrix(0.9947 0 0 1 257.9832 4501.3389)"><tspan x="0" y="0" fill="#494949" font-family="'HelveticaNeue-Light'" font-size="14">Выберите нужные материалы и добавьте их в </tspan><tspan x="0" y="20.55" fill="#494949" font-family="'HelveticaNeue-Light'" font-size="14">каждый пост внутри темы. Для этого вызовите </tspan><tspan x="0" y="41.1" fill="#494949" font-family="'HelveticaNeue-Light'" font-size="14">контекстное меню или нажмите кнопку в шапке </tspan><tspan x="0" y="61.65" fill="#494949" font-family="'HelveticaNeue-Light'" font-size="14">«во все». Повторное добавление одного объекта </tspan><tspan x="0" y="82.2" fill="#494949" font-family="'HelveticaNeue-Light'" font-size="14">исключено. При перетаскивании материала на </tspan><tspan x="0" y="102.75" fill="#494949" font-family="'HelveticaNeue-Light'" font-size="14">окно темы так же доступен вариант действия </tspan><tspan x="0" y="123.3" fill="#494949" font-family="'HelveticaNeue-Light'" font-size="14">«Добавить во все посты».</tspan></text>
</g>
<g>
	<text transform="matrix(1 0 0 1 257.32 4482.6436)" fill="#494949" font-family="'HelveticaNeue'" font-size="14">Добавление во все посты</text>
</g>
<rect x="257.32" y="4679.982" fill="none" width="320" height="134.91"/>
<text transform="matrix(0.9947 0 0 1 257.3201 4689.9775)"><tspan x="0" y="0" fill="#494949" font-family="'HelveticaNeue-Light'" font-size="14">Чтобы убрать материал из всех постов, </tspan><tspan x="0" y="20.55" fill="#494949" font-family="'HelveticaNeue-Light'" font-size="14">например, в случае ошибочного добавления, </tspan><tspan x="0" y="41.1" fill="#494949" font-family="'HelveticaNeue-Light'" font-size="14">исключите этот материал из темы. Для этого </tspan><tspan x="0" y="61.65" fill="#494949" font-family="'HelveticaNeue-Light'" font-size="14">щелкните правой кнопкой на ненужном </tspan><tspan x="0" y="82.2" fill="#494949" font-family="'HelveticaNeue-Light'" font-size="14">материале и выберите пункт «Убрать из темы». </tspan><tspan x="0" y="102.75" fill="#494949" font-family="'HelveticaNeue-Light'" font-size="14">Исключенный материал будет удален из всех </tspan><tspan x="0" y="123.3" fill="#494949" font-family="'HelveticaNeue-Light'" font-size="14">постов этой темы.</tspan></text>
<g>
	<text transform="matrix(1 0 0 1 257.3201 4671.2822)" fill="#494949" font-family="'HelveticaNeue'" font-size="14">Исключение из всех постов</text>
</g>
<g>
	<text transform="matrix(1 0 0 1 257.3203 4948.4341)" fill="#494949" font-family="'HelveticaNeue'" font-size="14">Создание текста в посте</text>
</g>
<image overflow="visible" width="1405" height="725" xlink:href="55ECAD3839E31CF.jpeg"  transform="matrix(0.24 0 0 0.24 650.6331 3050.998)">
</image>
<g>
	<text transform="matrix(1 0 0 1 489.4324 3384.4116)" fill="#666666" font-family="'HelveticaNeue-Light'" font-size="24">Единично и сериями.</text>
</g>
<g>
	<text transform="matrix(1 0 0 1 418.452 3347.1125)" fill="#333333" font-family="'HelveticaNeue-Light'" font-size="46">Создание постов.</text>
</g>
<image overflow="visible" width="2853" height="984" xlink:href="55ECAD3839E31C8.jpeg"  transform="matrix(0.24 0 0 0.24 241.0031 2539.998)">
</image>
<image overflow="visible" width="1388" height="1571" xlink:href="55ECAD3839E31C6.jpeg"  transform="matrix(0.24 0 0 0.24 246.8889 3827.8442)">
</image>
<image overflow="visible" width="2396" height="1855" xlink:href="55ECAD3839E31C7.png"  transform="matrix(0.24 0 0 0.24 612.6331 4350.5273)">
</image>
<image overflow="visible" width="3138" height="667" xlink:href="55ECAD3839E31D7.jpeg"  transform="matrix(0.24 0 0 0.24 228.503 5061.4175)">
</image>
<line fill="none" stroke="#999999" stroke-miterlimit="10" x1="222.659" y1="5221.674" x2="986.659" y2="5221.674"/>
<line fill="none" stroke="#999999" stroke-miterlimit="10" x1="222.659" y1="4875.674" x2="986.659" y2="4875.674"/>
<rect x="645.633" y="5576.928" fill="none" width="298.573" height="121.31"/>
<text transform="matrix(1 0 0 1 645.6332 5586.9248)"><tspan x="0" y="0" fill="#494949" font-family="'HelveticaNeue-Light'" font-size="14">Меняйте порядок следования изображений, </tspan><tspan x="0" y="20.55" fill="#494949" font-family="'HelveticaNeue-Light'" font-size="14">видео или аудио простым перетаскиванием. </tspan><tspan x="0" y="41.1" fill="#494949" font-family="'HelveticaNeue-Light'" font-size="14">Можно выбрать сразу несколько объектов </tspan><tspan x="0" y="61.65" fill="#494949" font-family="'HelveticaNeue-Light'" font-size="14">(удержите ctrl) и перетащить их. При </tspan><tspan x="0" y="82.2" fill="#494949" font-family="'HelveticaNeue-Light'" font-size="14">перетаскивании картинки с описанием, они </tspan><tspan x="0" y="102.75" fill="#494949" font-family="'HelveticaNeue-Light'" font-size="14">переместится вместе с ним.</tspan></text>
<g>
	<text transform="matrix(1 0 0 1 645.633 5568.2285)" fill="#494949" font-family="'HelveticaNeue'" font-size="14">Изменение порядка изображений</text>
</g>
<image overflow="visible" width="6001" height="3751" xlink:href="55ECAD3839E31D9.png"  transform="matrix(0.24 0 0 0.24 597.3105 3216.821)">
</image>
<rect x="254.052" y="5331.34" fill="none" width="302.101" height="117.473"/>
<text transform="matrix(1 0 0 1 254.0517 5341.3364)"><tspan x="0" y="0" fill="#494949" font-family="'HelveticaNeue-Light'" font-size="14">При перетаскивании текста на изображение в </tspan><tspan x="0" y="20.55" fill="#494949" font-family="'HelveticaNeue-Light'" font-size="14">посте, текст будет прикреплен как описание. </tspan><tspan x="0" y="41.1" fill="#494949" font-family="'HelveticaNeue-Light'" font-size="14">Чтобы открепить описнаие, наведите курсор </tspan><tspan x="0" y="61.65" fill="#494949" font-family="'HelveticaNeue-Light'" font-size="14">на текст и нажмите появившийся на тексте </tspan><tspan x="0" y="82.2" fill="#494949" font-family="'HelveticaNeue-Light'" font-size="14">крестик. Для каждого изображения доступна </tspan><tspan x="0" y="102.75" fill="#494949" font-family="'HelveticaNeue-Light'" font-size="14">привязка только одного описания.</tspan></text>
<g>
	<text transform="matrix(1 0 0 1 253.3884 5322.6401)" fill="#494949" font-family="'HelveticaNeue'" font-size="14">Добавление описания картинке</text>
</g>
<g>
	<polyline fill="#F2F2F2" points="648.037,5414.248 648.225,5400.052 658.508,5409.376 653.472,5410.42 656.765,5417.78 
		655.714,5418.269 652.28,5411.09 	"/>
	<polyline fill="#494949" points="648.936,5412.977 649.083,5401.897 657.109,5409.175 653.178,5409.989 656.6,5417.785 
		655.78,5418.167 652.247,5410.513 	"/>
</g>
<g>
	<polyline fill="#F2F2F2" points="305.513,5599.838 305.701,5585.644 315.985,5594.967 310.948,5596.011 314.241,5603.372 
		313.19,5603.86 309.756,5596.681 	"/>
	<polyline fill="#494949" points="306.413,5598.568 306.559,5587.489 314.585,5594.766 310.654,5595.581 314.076,5603.376 
		313.256,5603.758 309.724,5596.104 	"/>
</g>
<g>
	<polyline fill="#F2F2F2" points="720.106,3580.1 720.293,3565.905 730.577,3575.229 725.54,3576.272 728.834,3583.633 
		727.783,3584.121 724.348,3576.942 	"/>
	<polyline fill="#494949" points="721.005,3578.829 721.151,3567.75 729.177,3575.027 725.247,3575.842 728.669,3583.637 
		727.848,3584.019 724.316,3576.365 	"/>
</g>
<g>
	<defs>
		<rect id="SVGID_1_" x="504.473" y="1815.302" width="132.185" height="101.083"/>
	</defs>
	<clipPath id="SVGID_2_">
		<use xlink:href="#SVGID_1_"  overflow="visible"/>
	</clipPath>
	<g id="ZZiCdZ.tif" clip-path="url(#SVGID_2_)">
		
			<image overflow="visible" width="300" height="300" id="Layer_0_2_" xlink:href="55ECAD3839E31DB.jpeg"  transform="matrix(0.4406 0 0 0.4406 504.4731 1799.7502)">
		</image>
	</g>
</g>
<g>
	<defs>
		<rect id="SVGID_3_" x="356.348" y="1815.302" width="132.185" height="101.083"/>
	</defs>
	<clipPath id="SVGID_4_">
		<use xlink:href="#SVGID_3_"  overflow="visible"/>
	</clipPath>
	<g id="SA9o0n.tif" clip-path="url(#SVGID_4_)">
		
			<image overflow="visible" width="300" height="300" id="Layer_0_3_" xlink:href="C6B3509205DD3268.jpeg"  transform="matrix(0.4406 0 0 0.4406 356.3478 1799.7502)">
		</image>
	</g>
</g>
<g>
	<defs>
		<rect id="SVGID_5_" x="504.473" y="1701" width="132.185" height="101.083"/>
	</defs>
	<clipPath id="SVGID_6_">
		<use xlink:href="#SVGID_5_"  overflow="visible"/>
	</clipPath>
	<g id="_x33_3f3Ml.tif" clip-path="url(#SVGID_6_)">
		
			<image overflow="visible" width="300" height="300" id="Layer_0_4_" xlink:href="C6B3509205DD326F.jpeg"  transform="matrix(0.4406 0 0 0.4406 504.4731 1685.4487)">
		</image>
	</g>
</g>
<g>
	<defs>
		<rect id="SVGID_7_" x="209" y="1815.302" width="132.185" height="101.083"/>
	</defs>
	<clipPath id="SVGID_8_">
		<use xlink:href="#SVGID_7_"  overflow="visible"/>
	</clipPath>
	<g id="_x36_Z8cBv.tif" clip-path="url(#SVGID_8_)">
		
			<image overflow="visible" width="300" height="300" id="Layer_0_7_" xlink:href="C6B3509205DD3269.jpeg"  transform="matrix(0.4406 0 0 0.4406 209 1799.7502)">
		</image>
	</g>
</g>
<g>
	<defs>
		<rect id="SVGID_9_" x="356.348" y="1701" width="132.185" height="101.083"/>
	</defs>
	<clipPath id="SVGID_10_">
		<use xlink:href="#SVGID_9_"  overflow="visible"/>
	</clipPath>
	<g id="nHttxS.tif" clip-path="url(#SVGID_10_)">
		
			<image overflow="visible" width="300" height="300" id="Layer_0_8_" xlink:href="C6B3509205DD326B.jpeg"  transform="matrix(0.4406 0 0 0.4406 356.3478 1685.4487)">
		</image>
	</g>
</g>
<g>
	<defs>
		<rect id="SVGID_11_" x="209" y="1701" width="132.185" height="101.083"/>
	</defs>
	<clipPath id="SVGID_12_">
		<use xlink:href="#SVGID_11_"  overflow="visible"/>
	</clipPath>
	<g id="NPFfWe.tif" clip-path="url(#SVGID_12_)">
		
			<image overflow="visible" width="300" height="300" id="Layer_0_9_" xlink:href="C6B3509205DD3276.jpeg"  transform="matrix(0.4406 0 0 0.4406 209 1685.4487)">
		</image>
	</g>
</g>
<g>
	<g>
		<defs>
			<rect id="SVGID_13_" x="689" y="1686" width="336.036" height="148.008"/>
		</defs>
		<clipPath id="SVGID_14_">
			<use xlink:href="#SVGID_13_"  overflow="visible"/>
		</clipPath>
		<g clip-path="url(#SVGID_14_)">

		</g>

		<g id="wdyJtX.tif">
			
				<image overflow="visible" width="706" height="400" id="Layer_0_6_" xlink:href="C6B3509205DD3278.png"  transform="matrix(0.5 0 0 0.5 242.0868 5525.7432)">
			</image>
		</g>
		<image overflow="visible" width="1633" height="1193" xlink:href="C6B3509205DD3278.jpg"  transform="matrix(0.24 0 0 0.24 703.6147 1667.8982)">
		</image>
	</g>
</g>
<line fill="none" stroke="#999999" stroke-miterlimit="10" x1="222.659" y1="3035.674" x2="986.659" y2="3035.674"/>
<line fill="none" stroke="#999999" stroke-miterlimit="10" x1="222.659" y1="3242.674" x2="986.659" y2="3242.674"/>
<line fill="none" stroke="#999999" stroke-miterlimit="10" x1="222.659" y1="3765.674" x2="986.659" y2="3765.674"/>
<line fill="none" stroke="#999999" stroke-miterlimit="10" x1="222.659" y1="4277.674" x2="986.659" y2="4277.674"/>
<g id="WRoefT.tif">
	
		<image overflow="visible" width="694" height="456" id="Layer_0_5_" xlink:href="C6B3509205DD3278.jpeg"  transform="matrix(0.5 0 0 0.5 631.5 5278)">
	</image>
</g>
<g id="wdyJtX.tif">
	
		<image overflow="visible" width="706" height="400" id="Layer_0_6_" xlink:href="C6B3509205DD3279.jpeg"  transform="matrix(0.5 0 0 0.5 242.0868 5525.7432)">
	</image>
</g>
</svg>
