<?xml version="1.0" encoding="utf-8"?>
<!-- Generator: Adobe Illustrator 17.0.0, SVG Export Plug-In . SVG Version: 6.00 Build 0)  -->
<!DOCTYPE svg PUBLIC "-//W3C//DTD SVG 1.1//EN" "http://www.w3.org/Graphics/SVG/1.1/DTD/svg11.dtd">
<svg version="1.1" id="Слой_1" xmlns="http://www.w3.org/2000/svg" xmlns:xlink="http://www.w3.org/1999/xlink" x="0px" y="0px"
	 width="360px" height="5px" viewBox="0 0 360 5" enable-background="new 0 0 360 5" xml:space="preserve">
<g opacity="0.4">
	<g>
		
			<line fill="none" stroke="#61A3CB" stroke-linecap="round" stroke-linejoin="round" x1="29.5" y1="14.657" x2="29.5" y2="14.657"/>
		<line fill="none" stroke="#61A3CB" stroke-linecap="round" stroke-linejoin="round" x1="29.5" y1="0.5" x2="29.504" y2="0.5"/>
		<line fill="none" stroke="#61A3CB" stroke-linecap="round" stroke-linejoin="round" x1="29.504" y1="0.5" x2="29.504" y2="0.5"/>
		
			<line fill="none" stroke="#61A3CB" stroke-linecap="round" stroke-linejoin="round" x1="29.504" y1="14.657" x2="29.5" y2="14.657"/>
	</g>
</g>
<g opacity="0.4">
	<g>
		
			<line fill="none" stroke="#61A3CB" stroke-linecap="round" stroke-linejoin="round" x1="58.998" y1="14.657" x2="58.998" y2="14.657"/>
		<line fill="none" stroke="#61A3CB" stroke-linecap="round" stroke-linejoin="round" x1="59.5" y1="0.5" x2="59.504" y2="0.5"/>
		<line fill="none" stroke="#61A3CB" stroke-linecap="round" stroke-linejoin="round" x1="59.504" y1="0.5" x2="59.504" y2="0.5"/>
		
			<line fill="none" stroke="#61A3CB" stroke-linecap="round" stroke-linejoin="round" x1="59.002" y1="14.657" x2="58.998" y2="14.657"/>
	</g>
</g>
<g opacity="0.4">
	<g>
		
			<line fill="none" stroke="#61A3CB" stroke-linecap="round" stroke-linejoin="round" x1="89.5" y1="14.657" x2="89.5" y2="14.657"/>
		<line fill="none" stroke="#61A3CB" stroke-linecap="round" stroke-linejoin="round" x1="89.5" y1="0.5" x2="89.504" y2="0.5"/>
		<line fill="none" stroke="#61A3CB" stroke-linecap="round" stroke-linejoin="round" x1="89.504" y1="0.5" x2="89.504" y2="0.5"/>
		
			<line fill="none" stroke="#61A3CB" stroke-linecap="round" stroke-linejoin="round" x1="89.504" y1="14.657" x2="89.5" y2="14.657"/>
	</g>
</g>
<g>
	<g>
		
			<line fill="none" stroke="#61A3CB" stroke-linecap="round" stroke-linejoin="round" x1="119.5" y1="14.657" x2="119.5" y2="14.657"/>
		<line fill="none" stroke="#61A3CB" stroke-linecap="round" stroke-linejoin="round" x1="119.5" y1="0.5" x2="119.504" y2="0.5"/>
		
			<line fill="none" stroke="#61A3CB" stroke-linecap="round" stroke-linejoin="round" x1="119.504" y1="0.5" x2="119.504" y2="0.5"/>
		
			<line fill="none" stroke="#61A3CB" stroke-linecap="round" stroke-linejoin="round" x1="119.504" y1="14.657" x2="119.5" y2="14.657"/>
	</g>
</g>
<g opacity="0.4">
	<g>
		
			<line fill="none" stroke="#61A3CB" stroke-linecap="round" stroke-linejoin="round" x1="149.5" y1="14.657" x2="149.5" y2="14.657"/>
		<line fill="none" stroke="#61A3CB" stroke-linecap="round" stroke-linejoin="round" x1="149.5" y1="0.5" x2="149.504" y2="0.5"/>
		
			<line fill="none" stroke="#61A3CB" stroke-linecap="round" stroke-linejoin="round" x1="149.504" y1="0.5" x2="149.504" y2="0.5"/>
		
			<line fill="none" stroke="#61A3CB" stroke-linecap="round" stroke-linejoin="round" x1="149.504" y1="14.657" x2="149.5" y2="14.657"/>
	</g>
</g>
<g opacity="0.4">
	<g>
		
			<line fill="none" stroke="#61A3CB" stroke-linecap="round" stroke-linejoin="round" x1="179.5" y1="14.657" x2="179.5" y2="14.657"/>
		<line fill="none" stroke="#61A3CB" stroke-linecap="round" stroke-linejoin="round" x1="179.5" y1="0.5" x2="179.504" y2="0.5"/>
		
			<line fill="none" stroke="#61A3CB" stroke-linecap="round" stroke-linejoin="round" x1="179.504" y1="0.5" x2="179.504" y2="0.5"/>
		
			<line fill="none" stroke="#61A3CB" stroke-linecap="round" stroke-linejoin="round" x1="179.504" y1="14.657" x2="179.5" y2="14.657"/>
	</g>
</g>
<g opacity="0.4">
	<g>
		
			<line fill="none" stroke="#61A3CB" stroke-linecap="round" stroke-linejoin="round" x1="210.5" y1="14.657" x2="210.5" y2="14.657"/>
		<line fill="none" stroke="#61A3CB" stroke-linecap="round" stroke-linejoin="round" x1="210.5" y1="0.5" x2="210.504" y2="0.5"/>
		
			<line fill="none" stroke="#61A3CB" stroke-linecap="round" stroke-linejoin="round" x1="210.504" y1="0.5" x2="210.504" y2="0.5"/>
		
			<line fill="none" stroke="#61A3CB" stroke-linecap="round" stroke-linejoin="round" x1="210.504" y1="14.657" x2="210.5" y2="14.657"/>
	</g>
</g>
<g>
	<g>
		
			<line fill="none" stroke="#61A3CB" stroke-linecap="round" stroke-linejoin="round" x1="240.5" y1="14.657" x2="240.5" y2="14.657"/>
		<line fill="none" stroke="#61A3CB" stroke-linecap="round" stroke-linejoin="round" x1="240.5" y1="0.5" x2="240.504" y2="0.5"/>
		
			<line fill="none" stroke="#61A3CB" stroke-linecap="round" stroke-linejoin="round" x1="240.504" y1="0.5" x2="240.504" y2="0.5"/>
		
			<line fill="none" stroke="#61A3CB" stroke-linecap="round" stroke-linejoin="round" x1="240.504" y1="14.657" x2="240.5" y2="14.657"/>
	</g>
</g>
<g opacity="0.4">
	<g>
		
			<line fill="none" stroke="#61A3CB" stroke-linecap="round" stroke-linejoin="round" x1="270.5" y1="14.657" x2="270.5" y2="14.657"/>
		<line fill="none" stroke="#61A3CB" stroke-linecap="round" stroke-linejoin="round" x1="270.5" y1="0.5" x2="270.504" y2="0.5"/>
		
			<line fill="none" stroke="#61A3CB" stroke-linecap="round" stroke-linejoin="round" x1="270.504" y1="0.5" x2="270.504" y2="0.5"/>
		
			<line fill="none" stroke="#61A3CB" stroke-linecap="round" stroke-linejoin="round" x1="270.504" y1="14.657" x2="270.5" y2="14.657"/>
	</g>
</g>
<g opacity="0.4">
	<g>
		
			<line fill="none" stroke="#61A3CB" stroke-linecap="round" stroke-linejoin="round" x1="300.5" y1="14.657" x2="300.5" y2="14.657"/>
		<line fill="none" stroke="#61A3CB" stroke-linecap="round" stroke-linejoin="round" x1="300.5" y1="0.5" x2="300.504" y2="0.5"/>
		
			<line fill="none" stroke="#61A3CB" stroke-linecap="round" stroke-linejoin="round" x1="300.504" y1="0.5" x2="300.504" y2="0.5"/>
		
			<line fill="none" stroke="#61A3CB" stroke-linecap="round" stroke-linejoin="round" x1="300.504" y1="14.657" x2="300.5" y2="14.657"/>
	</g>
</g>
<g opacity="0.4">
	<g>
		
			<line fill="none" stroke="#61A3CB" stroke-linecap="round" stroke-linejoin="round" x1="330.5" y1="14.657" x2="330.5" y2="14.657"/>
		<line fill="none" stroke="#61A3CB" stroke-linecap="round" stroke-linejoin="round" x1="330.5" y1="0.5" x2="330.504" y2="0.5"/>
		
			<line fill="none" stroke="#61A3CB" stroke-linecap="round" stroke-linejoin="round" x1="330.504" y1="0.5" x2="330.504" y2="0.5"/>
		
			<line fill="none" stroke="#61A3CB" stroke-linecap="round" stroke-linejoin="round" x1="330.504" y1="14.657" x2="330.5" y2="14.657"/>
	</g>
</g>
</svg>
