<?xml version="1.0" encoding="utf-8"?>
<!-- Generator: Adobe Illustrator 17.0.0, SVG Export Plug-In . SVG Version: 6.00 Build 0)  -->
<!DOCTYPE svg PUBLIC "-//W3C//DTD SVG 1.1//EN" "http://www.w3.org/Graphics/SVG/1.1/DTD/svg11.dtd">
<svg version="1.1" id="Слой_1" xmlns="http://www.w3.org/2000/svg" xmlns:xlink="http://www.w3.org/1999/xlink" x="0px" y="0px"
	 width="180px" height="5px" viewBox="0 0 180 5" enable-background="new 0 0 180 5" xml:space="preserve">
<g opacity="0.4">
	<g>
		<line fill="none" stroke="#61A3CB" stroke-linecap="round" stroke-linejoin="round" x1="15.5" y1="7.5" x2="15.5" y2="7.5"/>
		<line fill="none" stroke="#61A3CB" stroke-linecap="round" stroke-linejoin="round" x1="15.5" y1="0.5" x2="15.502" y2="0.5"/>
		<line fill="none" stroke="#61A3CB" stroke-linecap="round" stroke-linejoin="round" x1="15.502" y1="0.5" x2="15.502" y2="0.5"/>
		<line fill="none" stroke="#61A3CB" stroke-linecap="round" stroke-linejoin="round" x1="15.502" y1="7.5" x2="15.5" y2="7.5"/>
	</g>
</g>
<g opacity="0.4">
	<g>
		<line fill="none" stroke="#61A3CB" stroke-linecap="round" stroke-linejoin="round" x1="30.5" y1="7.5" x2="30.5" y2="7.5"/>
		<line fill="none" stroke="#61A3CB" stroke-linecap="round" stroke-linejoin="round" x1="30.5" y1="0.5" x2="30.502" y2="0.5"/>
		<line fill="none" stroke="#61A3CB" stroke-linecap="round" stroke-linejoin="round" x1="30.502" y1="0.5" x2="30.502" y2="0.5"/>
		<line fill="none" stroke="#61A3CB" stroke-linecap="round" stroke-linejoin="round" x1="30.502" y1="7.5" x2="30.5" y2="7.5"/>
	</g>
</g>
<g opacity="0.4">
	<g>
		<line fill="none" stroke="#61A3CB" stroke-linecap="round" stroke-linejoin="round" x1="45.5" y1="7.5" x2="45.5" y2="7.5"/>
		<line fill="none" stroke="#61A3CB" stroke-linecap="round" stroke-linejoin="round" x1="45.5" y1="0.5" x2="45.502" y2="0.5"/>
		<line fill="none" stroke="#61A3CB" stroke-linecap="round" stroke-linejoin="round" x1="45.502" y1="0.5" x2="45.502" y2="0.5"/>
		<line fill="none" stroke="#61A3CB" stroke-linecap="round" stroke-linejoin="round" x1="45.502" y1="7.5" x2="45.5" y2="7.5"/>
	</g>
</g>
<g>
	<g>
		<line fill="none" stroke="#61A3CB" stroke-linecap="round" stroke-linejoin="round" x1="60.5" y1="7.5" x2="60.5" y2="7.5"/>
		<line fill="none" stroke="#61A3CB" stroke-linecap="round" stroke-linejoin="round" x1="60.5" y1="0.5" x2="60.502" y2="0.5"/>
		<line fill="none" stroke="#61A3CB" stroke-linecap="round" stroke-linejoin="round" x1="60.502" y1="0.5" x2="60.502" y2="0.5"/>
		<line fill="none" stroke="#61A3CB" stroke-linecap="round" stroke-linejoin="round" x1="60.502" y1="7.5" x2="60.5" y2="7.5"/>
	</g>
</g>
<g opacity="0.4">
	<g>
		<line fill="none" stroke="#61A3CB" stroke-linecap="round" stroke-linejoin="round" x1="75.5" y1="7.5" x2="75.5" y2="7.5"/>
		<line fill="none" stroke="#61A3CB" stroke-linecap="round" stroke-linejoin="round" x1="75.5" y1="0.5" x2="75.502" y2="0.5"/>
		<line fill="none" stroke="#61A3CB" stroke-linecap="round" stroke-linejoin="round" x1="75.502" y1="0.5" x2="75.502" y2="0.5"/>
		<line fill="none" stroke="#61A3CB" stroke-linecap="round" stroke-linejoin="round" x1="75.502" y1="7.5" x2="75.5" y2="7.5"/>
	</g>
</g>
<g opacity="0.4">
	<g>
		<line fill="none" stroke="#61A3CB" stroke-linecap="round" stroke-linejoin="round" x1="90.5" y1="7.5" x2="90.5" y2="7.5"/>
		<line fill="none" stroke="#61A3CB" stroke-linecap="round" stroke-linejoin="round" x1="90.5" y1="0.5" x2="90.502" y2="0.5"/>
		<line fill="none" stroke="#61A3CB" stroke-linecap="round" stroke-linejoin="round" x1="90.502" y1="0.5" x2="90.502" y2="0.5"/>
		<line fill="none" stroke="#61A3CB" stroke-linecap="round" stroke-linejoin="round" x1="90.502" y1="7.5" x2="90.5" y2="7.5"/>
	</g>
</g>
<g opacity="0.4">
	<g>
		<line fill="none" stroke="#61A3CB" stroke-linecap="round" stroke-linejoin="round" x1="105.5" y1="7.5" x2="105.5" y2="7.5"/>
		<line fill="none" stroke="#61A3CB" stroke-linecap="round" stroke-linejoin="round" x1="105.5" y1="0.5" x2="105.502" y2="0.5"/>
		
			<line fill="none" stroke="#61A3CB" stroke-linecap="round" stroke-linejoin="round" x1="105.502" y1="0.5" x2="105.502" y2="0.5"/>
		<line fill="none" stroke="#61A3CB" stroke-linecap="round" stroke-linejoin="round" x1="105.502" y1="7.5" x2="105.5" y2="7.5"/>
	</g>
</g>
<g>
	<g>
		<line fill="none" stroke="#61A3CB" stroke-linecap="round" stroke-linejoin="round" x1="120.5" y1="7.5" x2="120.5" y2="7.5"/>
		<line fill="none" stroke="#61A3CB" stroke-linecap="round" stroke-linejoin="round" x1="120.5" y1="0.5" x2="120.502" y2="0.5"/>
		
			<line fill="none" stroke="#61A3CB" stroke-linecap="round" stroke-linejoin="round" x1="120.502" y1="0.5" x2="120.502" y2="0.5"/>
		<line fill="none" stroke="#61A3CB" stroke-linecap="round" stroke-linejoin="round" x1="120.502" y1="7.5" x2="120.5" y2="7.5"/>
	</g>
</g>
<g opacity="0.4">
	<g>
		<line fill="none" stroke="#61A3CB" stroke-linecap="round" stroke-linejoin="round" x1="135.5" y1="7.5" x2="135.5" y2="7.5"/>
		<line fill="none" stroke="#61A3CB" stroke-linecap="round" stroke-linejoin="round" x1="135.5" y1="0.5" x2="135.502" y2="0.5"/>
		
			<line fill="none" stroke="#61A3CB" stroke-linecap="round" stroke-linejoin="round" x1="135.502" y1="0.5" x2="135.502" y2="0.5"/>
		<line fill="none" stroke="#61A3CB" stroke-linecap="round" stroke-linejoin="round" x1="135.502" y1="7.5" x2="135.5" y2="7.5"/>
	</g>
</g>
<g opacity="0.4">
	<g>
		<line fill="none" stroke="#61A3CB" stroke-linecap="round" stroke-linejoin="round" x1="150.5" y1="7.5" x2="150.5" y2="7.5"/>
		<line fill="none" stroke="#61A3CB" stroke-linecap="round" stroke-linejoin="round" x1="150.5" y1="0.5" x2="150.502" y2="0.5"/>
		
			<line fill="none" stroke="#61A3CB" stroke-linecap="round" stroke-linejoin="round" x1="150.502" y1="0.5" x2="150.502" y2="0.5"/>
		<line fill="none" stroke="#61A3CB" stroke-linecap="round" stroke-linejoin="round" x1="150.502" y1="7.5" x2="150.5" y2="7.5"/>
	</g>
</g>
<g opacity="0.4">
	<g>
		<line fill="none" stroke="#61A3CB" stroke-linecap="round" stroke-linejoin="round" x1="165.5" y1="7.5" x2="165.5" y2="7.5"/>
		<line fill="none" stroke="#61A3CB" stroke-linecap="round" stroke-linejoin="round" x1="165.5" y1="0.5" x2="165.502" y2="0.5"/>
		
			<line fill="none" stroke="#61A3CB" stroke-linecap="round" stroke-linejoin="round" x1="165.502" y1="0.5" x2="165.502" y2="0.5"/>
		<line fill="none" stroke="#61A3CB" stroke-linecap="round" stroke-linejoin="round" x1="165.502" y1="7.5" x2="165.5" y2="7.5"/>
	</g>
</g>
</svg>
