<?xml version="1.0" encoding="utf-8"?>
<!-- Generator: Adobe Illustrator 17.0.0, SVG Export Plug-In . SVG Version: 6.00 Build 0)  -->
<!DOCTYPE svg PUBLIC "-//W3C//DTD SVG 1.1//EN" "http://www.w3.org/Graphics/SVG/1.1/DTD/svg11.dtd">
<svg version="1.1" id="Слой_1" xmlns="http://www.w3.org/2000/svg" xmlns:xlink="http://www.w3.org/1999/xlink" x="0px" y="0px"
	 width="1210px" height="6018.934px" viewBox="0 0 1210 6018.934" enable-background="new 0 0 1210 6018.934" xml:space="preserve">

<defs>
  <style type="text/css">
   <![CDATA[
    @font-face {
        font-family: 'HelveticaNeue-Light';
        src:url("/fonts/777240/5b85c7cc-6ad4-4226-83f5-9d19e2974123.eot?#iefix");
	    src:local("Helvetica Neue Light"), local("HelveticaNeue-Light"), url("/fonts/777240/3fc84193-a13f-4fe8-87f7-238748a4ac54.svg#3fc84193-a13f-4fe8-87f7-238748a4ac54") format("svg"), url("/fonts/777240/835e7b4f-b524-4374-b57b-9a8fc555fd4e.woff") format("woff"),url("/fonts/777240/2c694ef6-9615-473e-8cf4-d8d00c6bd973.ttf") format("truetype");
    }
   ]]>
 </style>
</defs>

<rect x="0.616" y="1593.453" fill="#F2F2F2" width="1210" height="425"/>
<image overflow="visible" width="2079" height="1296" xlink:href="BEB648A5F2544E2F.jpeg"  transform="matrix(0.24 0 0 0.24 359 124)">
</image>
<rect x="388.735" y="15.849" fill="none" width="433.761" height="45.415"/>
<text transform="matrix(1 0 0 1 514.5143 48.6924)" fill="#333333" font-family="'HelveticaNeue-Light'" font-size="46">Контент.</text>
<rect x="292.981" y="451.435" fill="none" width="621.216" height="160.568"/>
<text transform="matrix(1 0 0 1 296.2225 465.7144)"><tspan x="0" y="0" fill="#333333" font-family="'HelveticaNeue-Light'" font-size="20">Свежий взгляд на распространение и хранение контента позволил </tspan><tspan x="30.569" y="25" fill="#333333" font-family="'HelveticaNeue-Light'" font-size="20">нам найти решения совершенно нового уровня. Соединение </tspan><tspan x="-3.101" y="50" fill="#333333" font-family="'HelveticaNeue-Light'" font-size="20">современных потребностей и возможностей передовых технологий </tspan><tspan x="7.378" y="75" fill="#333333" font-family="'HelveticaNeue-Light'" font-size="20">рождает хранилище будущего, которое можно использовать уже </tspan><tspan x="268.517" y="100" fill="#333333" font-family="'HelveticaNeue-Light'" font-size="20">сегодня.</tspan></text>
<rect x="0.616" y="598.453" fill="#F2F2F2" width="1210" height="600"/>
<g>
	<rect x="294.068" y="2443.018" fill="none" width="621.538" height="95.185"/>
	<text transform="matrix(1 0 0 1 314.683 2453.0134)"><tspan x="0" y="0" fill="#494949" font-family="'HelveticaNeue-Light'" font-size="14">Если начать загрузку, находясь в папке, загруженный контент попадет в эту папку. Вам не </tspan><tspan x="-1.337" y="20.55" fill="#494949" font-family="'HelveticaNeue-Light'" font-size="14">нужно дожидаться окончания загрузки. Перейдите в другую папку и загрузите следующую </tspan><tspan x="17.996" y="41.1" fill="#494949" font-family="'HelveticaNeue-Light'" font-size="14">порцию. Загрузка и распределение контента по папкам пройдет в фоновом режиме.</tspan></text>
</g>
<line fill="none" stroke="#999999" stroke-miterlimit="10" x1="237" y1="2577.5" x2="977" y2="2577.5"/>
<rect x="295.3" y="1388.645" fill="none" width="620.631" height="139.898"/>
<text transform="matrix(1 0 0 1 309.0845 1398.6406)"><tspan x="0" y="0" fill="#333333" font-family="'HelveticaNeue-Light'" font-size="14">Чтобы что-то отправить, нужно что-то добавить. Наблюдая за работой контент-менеджеров </tspan><tspan x="-6.664" y="20.55" fill="#333333" font-family="'HelveticaNeue-Light'" font-size="14">агентств и крупнейших сетей сообществ, мы обнаружили значительный ресурс для экономии. </tspan><tspan x="8.667" y="41.1" fill="#333333" font-family="'HelveticaNeue-Light'" font-size="14">Время ожидания загрузки. Каждого файла в каждую соцсеть. Мы привлекли технологии, </tspan><tspan x="7.469" y="61.65" fill="#333333" font-family="'HelveticaNeue-Light'" font-size="14">идеально подходящие для задач, где нужна асинхронность и фоновые режимы; решения, </tspan><tspan x="-7.196" y="82.2" fill="#333333" font-family="'HelveticaNeue-Light'" font-size="14">способные совмещать параллельность и последовательности. Сочетание, которое позволяют </tspan><tspan x="113.476" y="102.75" fill="#333333" font-family="'HelveticaNeue-Light'" font-size="14">распорядиться сотнями тысяч человеко-часов разумнее.</tspan></text>
<rect x="-0.159" y="5417.353" fill="#F2F2F2" width="1210" height="600"/>
<rect x="-0.159" y="3858.982" fill="#74A93C" width="1210" height="335.22"/>
<g>
	<rect x="195.629" y="909.134" fill="none" width="383.22" height="142.899"/>
	<text transform="matrix(1 0 0 1 195.6296 919.13)"><tspan x="0" y="0" fill="#333333" font-family="'HelveticaNeue-Light'" font-size="14">В buzzlike можно гибко задать структуру отображения </tspan><tspan x="0" y="21" fill="#333333" font-family="'HelveticaNeue-Light'" font-size="14">контента. Когда нужно увидеть отправленные вчера видео </tspan><tspan x="0" y="42" fill="#333333" font-family="'HelveticaNeue-Light'" font-size="14">ил</tspan><tspan x="15.525" y="42" fill="#333333" font-family="'HelveticaNeue-Light'" font-size="14">и</tspan><tspan x="23.981" y="42" fill="#333333" font-family="'HelveticaNeue-Light'" font-size="14"> загруженные во вторник утром картинки — просто </tspan><tspan x="0" y="63" fill="#333333" font-family="'HelveticaNeue-Light'" font-size="14">разверните весь массив своих материалов и посмотрите с </tspan><tspan x="0" y="84" fill="#333333" font-family="'HelveticaNeue-Light'" font-size="14">нужной стороны. Даже неопубликованные тексты, которые </tspan><tspan x="0" y="105" fill="#333333" font-family="'HelveticaNeue-Light'" font-size="14">редактировались на текущей неделе найдутся в пару </tspan><tspan x="0" y="126" fill="#333333" font-family="'HelveticaNeue-Light'" font-size="14">кликов. Теперь вы можете больше.</tspan></text>
	<text transform="matrix(1 0 0 1 195.6157 776.5807)"><tspan x="0" y="0" fill="#333333" font-family="'HelveticaNeue-Light'" font-size="37">Вы сможете больше.</tspan><tspan x="0" y="41" fill="#333333" font-family="'HelveticaNeue-Light'" font-size="37">Когда увидите больше.</tspan></text>
	<g>
		<text transform="matrix(1 0 0 1 195.616 856.7911)"><tspan x="0" y="0" fill="#666666" font-family="'HelveticaNeue-Light'" font-size="21">Первое профессиональное хранилище </tspan><tspan x="0" y="26" fill="#666666" font-family="'HelveticaNeue-Light'" font-size="21">контента для social media.</tspan></text>
	</g>
</g>
<image overflow="visible" width="2363" height="2413" xlink:href="BEB648A5F2544E2D.png"  transform="matrix(0.24 0 0 0.24 662 609)">
</image>
<text transform="matrix(1 0 0 1 479.2817 82.2705)" fill="#666666" font-family="'HelveticaNeue-Light'" font-size="24">В облаке. И в порядке.</text>
<image overflow="visible" width="1809" height="1030" xlink:href="BEB648A5F2544E33.png"  transform="matrix(0.24 0 0 0.24 619 1682)">
</image>
<image overflow="visible" width="2013" height="1638" xlink:href="BEB648A5F2544E35.jpeg"  transform="matrix(0.24 0 0 0.24 170 3019)">
</image>
<image overflow="visible" width="2623" height="732" xlink:href="BEB648A5F2544E37.jpeg"  transform="matrix(0.24 0 0 0.24 260.9374 2167.0986)">
</image>
<g>
	<rect x="309.49" y="2370.637" fill="none" width="194.317" height="68.719"/>
	<text transform="matrix(1 0 0 1 309.4894 2380.6338)" fill="#494949" font-family="'HelveticaNeue-Light'" font-size="14">Загрузите фото животных</text>
	<g>
		<text transform="matrix(1 0 0 1 309.4893 2364.2419)" fill="#494949" font-family="'HelveticaNeue-Light'" font-size="14">Сначала</text>
	</g>
</g>
<g>
	<rect x="548.523" y="2370.637" fill="none" width="216.377" height="68.719"/>
	<text transform="matrix(1 0 0 1 548.5226 2380.6338)" fill="#494949" font-family="'HelveticaNeue-Light'" font-size="14">Загрузите белые фото</text>
	<g>
		<text transform="matrix(1 0 0 1 548.5226 2364.2417)" fill="#494949" font-family="'HelveticaNeue-Light'" font-size="14">Затем</text>
	</g>
</g>
<g>
	<rect x="757.425" y="2370.637" fill="none" width="194.317" height="68.719"/>
	<text transform="matrix(1 0 0 1 757.4254 2380.6338)"><tspan x="0" y="0" fill="#494949" font-family="'HelveticaNeue-Light'" font-size="14">И коллажи. Все </tspan><tspan x="0" y="16" fill="#494949" font-family="'HelveticaNeue-Light'" font-size="14">одновременно.</tspan></text>
	<g>
		<text transform="matrix(1 0 0 1 757.4135 2364.2417)" fill="#494949" font-family="'HelveticaNeue-Light'" font-size="14">Далее</text>
	</g>
</g>
<g>
	<rect x="297.542" y="1778.736" fill="none" width="262.519" height="121.692"/>
	<text transform="matrix(1 0 0 1 297.5415 1788.7314)"><tspan x="0" y="0" fill="#494949" font-family="'HelveticaNeue-Light'" font-size="14">Загружайте новые порции контента, </tspan><tspan x="0" y="20.55" fill="#494949" font-family="'HelveticaNeue-Light'" font-size="14">пока добавляются предыдущие. В один </tspan><tspan x="0" y="41.1" fill="#494949" font-family="'HelveticaNeue-Light'" font-size="14">клик доступны операции с каждой </tspan><tspan x="0" y="61.65" fill="#494949" font-family="'HelveticaNeue-Light'" font-size="14">порцией загрузки отдельно или в любом </tspan><tspan x="0" y="82.2" fill="#494949" font-family="'HelveticaNeue-Light'" font-size="14">сочетании. Загрузка осуществляется в </tspan><tspan x="0" y="102.75" fill="#494949" font-family="'HelveticaNeue-Light'" font-size="14">фоновом режиме. </tspan></text>
	<g>
		<text transform="matrix(1 0 0 1 297.5416 1733.153)" fill="#333333" font-family="'HelveticaNeue-Light'" font-size="25.2923">Загрузка. </text>
	</g>
	<g>
		<text transform="matrix(1 0 0 1 297.5415 1761.3635)" fill="#666666" font-family="'HelveticaNeue-Light'" font-size="21">Быстрые последовательности.</text>
	</g>
</g>
<g>
	<text transform="matrix(1 0 0 1 485.6155 2096.8318)" fill="#333333" font-family="'HelveticaNeue-Light'" font-size="25.2923">Добавление в папки.</text>
</g>
<g>
	<text transform="matrix(1 0 0 1 511.1497 2124.8425)" fill="#666666" font-family="'HelveticaNeue-Light'" font-size="21">В порядке очереди.</text>
</g>
<rect x="388.735" y="1293.296" fill="none" width="433.761" height="45.415"/>
<text transform="matrix(1 0 0 1 471.619 1326.1398)" fill="#333333" font-family="'HelveticaNeue-Light'" font-size="46">Добавление.</text>
<text transform="matrix(1 0 0 1 462.4932 1359.7179)" fill="#666666" font-family="'HelveticaNeue-Light'" font-size="24">Моментально или в фоне.</text>
<g>
	<rect x="295.616" y="2689.429" fill="none" width="305.763" height="27.661"/>
	<text transform="matrix(1 0 0 1 295.6158 2707.2798)" fill="#333333" font-family="'HelveticaNeue-Light'" font-size="25">Поиск.</text>
	<rect x="295.616" y="2752.621" fill="none" width="334.759" height="183.429"/>
	<text transform="matrix(1 0 0 1 295.6158 2762.7786)"><tspan x="0" y="0" fill="#333333" font-family="'HelveticaNeue-Light'" font-size="14.2269">Поиск занимает значительную часть работы </tspan><tspan x="0" y="20.55" fill="#333333" font-family="'HelveticaNeue-Light'" font-size="14.2269">контент-инженера. Buzzlike позволяет искать </tspan><tspan x="0" y="41.1" fill="#333333" font-family="'HelveticaNeue-Light'" font-size="14.2269">виде</tspan><tspan x="30.588" y="41.1" fill="#333333" font-family="'HelveticaNeue-Light'" font-size="14.2269">о</tspan><tspan x="38.213" y="41.1" fill="#333333" font-family="'HelveticaNeue-Light'" font-size="14.2269"> по названию в youtube и vk одновременно, </tspan><tspan x="0" y="61.649" fill="#333333" font-family="'HelveticaNeue-Light'" font-size="14.2269">найти и добавить несколько картинок или видео </tspan><tspan x="0" y="82.199" fill="#333333" font-family="'HelveticaNeue-Light'" font-size="14.2269">по гиперссылкам. Формат контента распознается </tspan><tspan x="0" y="102.75" fill="#333333" font-family="'HelveticaNeue-Light'" font-size="14.2269">автоматически — просто добавьте пачку </tspan><tspan x="0" y="123.3" fill="#333333" font-family="'HelveticaNeue-Light'" font-size="14.2269">гиперссылок в строку поиска. Поиск, как и любой </tspan><tspan x="0" y="143.85" fill="#333333" font-family="'HelveticaNeue-Light'" font-size="14.2269">другой процесс, происходит параллельно с </tspan><tspan x="0" y="164.399" fill="#333333" font-family="'HelveticaNeue-Light'" font-size="14.2269">другими.</tspan></text>
	<g>
		<text transform="matrix(1 0 0 1 295.616 2733.8096)" fill="#666666" font-family="'HelveticaNeue-Light'" font-size="21">Единый и многогранный.</text>
	</g>
</g>
<g>
	<rect x="679.592" y="3117.686" fill="none" width="305.763" height="27.661"/>
	<text transform="matrix(1 0 0 1 679.5922 3135.7456)" fill="#333333" font-family="'HelveticaNeue-Light'" font-size="25.2923">Импорт из соцсетей.</text>
	<rect x="679.592" y="3180.878" fill="none" width="334.759" height="136.521"/>
	<text transform="matrix(1 0 0 1 679.5922 3191.0356)"><tspan x="0" y="0" fill="#333333" font-family="'HelveticaNeue-Light'" font-size="14.2269">Импорт из соцсети альбома с 10 фото займет в </tspan><tspan x="0" y="20.55" fill="#333333" font-family="'HelveticaNeue-Light'" font-size="14.2269">среднем 0 секунд. Импорт 500 картинок — 0 </tspan><tspan x="0" y="41.1" fill="#333333" font-family="'HelveticaNeue-Light'" font-size="14.2269">секунд. Импортируйте большие альбомы и сразу </tspan><tspan x="0" y="61.649" fill="#333333" font-family="'HelveticaNeue-Light'" font-size="14.2269">приступайте к планированию. При добавлении </tspan><tspan x="0" y="82.199" fill="#333333" font-family="'HelveticaNeue-Light'" font-size="14.2269">импортированных изображений в соцсеть, все </tspan><tspan x="0" y="102.75" fill="#333333" font-family="'HelveticaNeue-Light'" font-size="14.2269">лайки к изображению или видео будут </tspan><tspan x="0" y="123.3" fill="#333333" font-family="'HelveticaNeue-Light'" font-size="14.2269">отображены и на стене и в альбоме.</tspan></text>
	<g>
		<text transform="matrix(1 0 0 1 679.5923 3162.0667)" fill="#666666" font-family="'HelveticaNeue-Light'" font-size="21">Моментальный.</text>
	</g>
</g>
<rect x="196.237" y="3542.905" fill="none" width="305.763" height="27.661"/>
<text transform="matrix(1 0 0 1 196.2367 3560.9639)" fill="#333333" font-family="'HelveticaNeue-Light'" font-size="25.2923">Excel-friendly</text>
<rect x="196.236" y="3606.096" fill="none" width="303.126" height="136.521"/>
<text transform="matrix(1 0 0 1 196.2362 3616.2539)"><tspan x="0" y="0" fill="#333333" font-family="'HelveticaNeue-Light'" font-size="14.2269">Часть работы с контентом в некоторых </tspan><tspan x="0" y="20.55" fill="#333333" font-family="'HelveticaNeue-Light'" font-size="14.2269">случаях происходит в электронных таблицах. </tspan><tspan x="0" y="41.1" fill="#333333" font-family="'HelveticaNeue-Light'" font-size="14.2269">Невероятное количество времени можно </tspan><tspan x="0" y="61.649" fill="#333333" font-family="'HelveticaNeue-Light'" font-size="14.2269">сэкономить с помощью импорта </tspan><tspan x="0" y="82.199" fill="#333333" font-family="'HelveticaNeue-Light'" font-size="14.2269">контент-планов из файлов Excel (форматы xls </tspan><tspan x="0" y="102.75" fill="#333333" font-family="'HelveticaNeue-Light'" font-size="14.2269">и xlsx).</tspan></text>
<g>
	<text transform="matrix(1 0 0 1 196.2368 3587.2849)" fill="#666666" font-family="'HelveticaNeue-Light'" font-size="21">Экспорт из таблиц xls и xlsx</text>
</g>
<image overflow="visible" width="2427" height="1450" xlink:href="BEB648A5F2544E34.jpeg"  transform="matrix(0.24 0 0 0.24 554.2519 3467.0342)">
</image>
<image overflow="visible" width="3601" height="2326" xlink:href="BEB648A5F2544E3C.png"  transform="matrix(0.24 0 0 0.24 451.8055 2531.9519)">
</image>
<g>
	<text transform="matrix(1 0 0 1 342.5723 4053.5007)" fill="#F2F2F2" font-family="'HelveticaNeue-Light'" font-size="84.1735">Возможности.</text>
</g>
<g>
	<text transform="matrix(1 0 0 1 471.1311 4340.3643)" fill="#666666" font-family="'HelveticaNeue-Light'" font-size="24">Когда все по полочкам.</text>
</g>
<g>
	<text transform="matrix(1 0 0 1 484.2544 4303.0654)" fill="#333333" font-family="'HelveticaNeue-Light'" font-size="46">Навигация.</text>
</g>
<g>
	<text transform="matrix(1 0 0 1 444.5261 4909.3643)" fill="#666666" font-family="'HelveticaNeue-Light'" font-size="24">Удобная структура хранения.</text>
</g>
<g>
	<text transform="matrix(1 0 0 1 534.552 4872.0654)" fill="#333333" font-family="'HelveticaNeue-Light'" font-size="46">Папки.</text>
</g>
<g>
	<text transform="matrix(1 0 0 1 468.4075 5551.6348)" fill="#666666" font-family="'HelveticaNeue-Light'" font-size="24">Быстро, легко, уместно.</text>
</g>
<g>
	<text transform="matrix(1 0 0 1 467.1655 5514.3359)" fill="#333333" font-family="'HelveticaNeue-Light'" font-size="46">Добавление.</text>
</g>
<rect x="341.26" y="5644.604" fill="none" width="323.723" height="103.919"/>
<text transform="matrix(1 0 0 1 341.2603 5654.6006)"><tspan x="0" y="0" fill="#494949" font-family="'HelveticaNeue-Light'" font-size="14">В любой момент вам может понадобиться </tspan><tspan x="0" y="20.55" fill="#494949" font-family="'HelveticaNeue-Light'" font-size="14">создать текст. Вы всегда можете вызвать </tspan><tspan x="0" y="41.1" fill="#494949" font-family="'HelveticaNeue-Light'" font-size="14">текстовый редактор из главного меню или нажать </tspan><tspan x="0" y="61.65" fill="#494949" font-family="'HelveticaNeue-Light'" font-size="14">ctrl+v. Так же в каждом приложении есть кнопка </tspan><tspan x="0" y="82.2" fill="#494949" font-family="'HelveticaNeue-Light'" font-size="14">создания текста в панеле быстрых действий.</tspan></text>
<g>
	<text transform="matrix(1 0 0 1 259.0609 4406.0625)" fill="#494949" font-family="'HelveticaNeue'" font-size="14">Сортировка и фильтрация.</text>
</g>
<rect x="259.724" y="4415.162" fill="none" width="303.641" height="161.254"/>
<text transform="matrix(1 0 0 1 259.7242 4425.1572)"><tspan x="0" y="0" fill="#494949" font-family="'HelveticaNeue-Light'" font-size="14">Вы можете выбрать один из предложенных </tspan><tspan x="0" y="20.55" fill="#494949" font-family="'HelveticaNeue-Light'" font-size="14">параметров сортировки и фильтр </tspan><tspan x="0" y="41.1" fill="#494949" font-family="'HelveticaNeue-Light'" font-size="14">использованных материалов. Все материалы, </tspan><tspan x="0" y="61.65" fill="#494949" font-family="'HelveticaNeue-Light'" font-size="14">задействованные в темах и постах независимо </tspan><tspan x="0" y="82.2" fill="#494949" font-family="'HelveticaNeue-Light'" font-size="14">от статуса, будут скрыты. </tspan></text>
<g>
	<g>
		<text transform="matrix(1 0 0 1 261.8804 4543.3472)" fill="#494949" font-family="'HelveticaNeue'" font-size="14">Фильтры типов контента.</text>
	</g>
	<rect x="259.724" y="4551.301" fill="none" width="277.867" height="105.826"/>
	<text transform="matrix(1 0 0 1 259.7242 4561.2969)"><tspan x="0" y="0" fill="#494949" font-family="'HelveticaNeue-Light'" font-size="14">Для отображения нужных типов контента </tspan><tspan x="0" y="20.55" fill="#494949" font-family="'HelveticaNeue-Light'" font-size="14">используйте фильтр. Совмещайте </tspan><tspan x="0" y="41.1" fill="#494949" font-family="'HelveticaNeue-Light'" font-size="14">сортировку и фильтр по типам, чтобы </tspan><tspan x="0" y="61.65" fill="#494949" font-family="'HelveticaNeue-Light'" font-size="14">найти редактированные вчера тексты или </tspan><tspan x="0" y="82.2" fill="#494949" font-family="'HelveticaNeue-Light'" font-size="14">загруженные видео.</tspan></text>
</g>
<rect x="460.461" y="4969.032" fill="none" width="490.817" height="202.186"/>
<text transform="matrix(1 0 0 1 460.4603 4979.0278)"><tspan x="0" y="0" fill="#494949" font-family="'HelveticaNeue-Light'" font-size="14">В buzzlike вы можете поместить одно изображение в несколько папок и </tspan><tspan x="0" y="20.55" fill="#494949" font-family="'HelveticaNeue-Light'" font-size="14">одну папку в несколько других. Создавайте удобные структуры хранения </tspan><tspan x="0" y="41.1" fill="#494949" font-family="'HelveticaNeue-Light'" font-size="14">многомерных тематик. Например, таких как рецепты, мода, фотография. </tspan><tspan x="0" y="61.65" fill="#494949" font-family="'HelveticaNeue-Light'" font-size="14">Создать папку можно кнопкой  в панеле быстрых действий в шапке. При </tspan><tspan x="0" y="82.2" fill="#494949" font-family="'HelveticaNeue-Light'" font-size="14">этом, если были выбраны файлы, папка создастся из них. Аналогично из </tspan><tspan x="0" y="102.75" fill="#494949" font-family="'HelveticaNeue-Light'" font-size="14">контекстного меню — выбрите несколько файлов, примените действие </tspan><tspan x="0" y="123.3" fill="#494949" font-family="'HelveticaNeue-Light'" font-size="14">«создать папку» в контекстном меню. В панеле буфера (справа) папки </tspan><tspan x="0" y="143.85" fill="#494949" font-family="'HelveticaNeue-Light'" font-size="14">образуются при перетаскивании одного материали на другой. Так же </tspan><tspan x="0" y="164.4" fill="#494949" font-family="'HelveticaNeue-Light'" font-size="14">создать папку можно из всего содержимого панели буфера, выбрав </tspan><tspan x="0" y="184.95" fill="#494949" font-family="'HelveticaNeue-Light'" font-size="14">действие «создать папку».</tspan></text>
<g>
	<text transform="matrix(1 0 0 1 460.4604 4961.3428)" fill="#494949" font-family="'HelveticaNeue'" font-size="14">Создание папок.</text>
</g>
<rect x="259.724" y="5276.405" fill="none" width="314.533" height="79.505"/>
<text transform="matrix(1 0 0 1 259.7241 5286.3999)"><tspan x="0" y="0" fill="#494949" font-family="'HelveticaNeue-Light'" font-size="14">Перетаскивайте в папкуматериалы из раздела, </tspan><tspan x="0" y="20.55" fill="#494949" font-family="'HelveticaNeue-Light'" font-size="14">других папок, панели буфера, окна импорта или </tspan><tspan x="0" y="41.1" fill="#494949" font-family="'HelveticaNeue-Light'" font-size="14">поиска. Перетаскивание - универсальное </tspan><tspan x="0" y="61.65" fill="#494949" font-family="'HelveticaNeue-Light'" font-size="14">действие для наполнения.</tspan></text>
<g>
	<text transform="matrix(1 0 0 1 259.7241 5267.3052)" fill="#494949" font-family="'HelveticaNeue'" font-size="14">Наполнение папок.</text>
</g>
<g>
	<rect x="615.724" y="5276.405" fill="none" width="177.532" height="79.505"/>
	<text transform="matrix(1 0 0 1 615.7241 5286.3999)"><tspan x="0" y="0" fill="#494949" font-family="'HelveticaNeue-Light'" font-size="14">Загрузка, начатая в папке, </tspan><tspan x="0" y="20.55" fill="#494949" font-family="'HelveticaNeue-Light'" font-size="14">будет осуществлена в эту </tspan><tspan x="0" y="41.1" fill="#494949" font-family="'HelveticaNeue-Light'" font-size="14">папку.</tspan></text>
	<g>
		<text transform="matrix(1 0 0 1 615.7241 5267.3052)" fill="#494949" font-family="'HelveticaNeue'" font-size="14">Загрузка.</text>
	</g>
</g>
<g>
	<rect x="834.724" y="5276.405" fill="none" width="161.532" height="79.505"/>
	<text transform="matrix(1 0 0 1 834.7241 5286.3999)"><tspan x="0" y="0" fill="#494949" font-family="'HelveticaNeue-Light'" font-size="14">Каждая папка при </tspan><tspan x="0" y="20.55" fill="#494949" font-family="'HelveticaNeue-Light'" font-size="14">создании серии постов </tspan><tspan x="0" y="41.1" fill="#494949" font-family="'HelveticaNeue-Light'" font-size="14">образует пост.</tspan></text>
	<g>
		<text transform="matrix(1 0 0 1 834.7241 5267.3052)" fill="#494949" font-family="'HelveticaNeue'" font-size="14">Основа для постов.</text>
	</g>
</g>
<g>
	<text transform="matrix(1 0 0 1 341.2463 5635.5049)" fill="#494949" font-family="'HelveticaNeue'" font-size="14">Добавление текста</text>
</g>
<rect x="815.245" y="5652.604" fill="none" width="236.24" height="82.319"/>
<text transform="matrix(1 0 0 1 815.2453 5662.6006)"><tspan x="0" y="0" fill="#494949" font-family="'HelveticaNeue-Light'" font-size="14">Вызовите диалог выбора альбомов:  </tspan><tspan x="0" y="20.55" fill="#494949" font-family="'HelveticaNeue-Light'" font-size="14">Главное меню &gt; Инструменты &gt; </tspan><tspan x="0" y="41.1" fill="#494949" font-family="'HelveticaNeue-Light'" font-size="14">Импорт из соцсети. Быстрый вызов </tspan><tspan x="0" y="61.65" fill="#494949" font-family="'HelveticaNeue-Light'" font-size="14">возможен сочетанием клавиш ctrl+i.</tspan></text>
<g>
	<text transform="matrix(1 0 0 1 815.2451 5643.5049)" fill="#494949" font-family="'HelveticaNeue'" font-size="14">Импорт из соцсети</text>
</g>
<rect x="813.723" y="5820.04" fill="none" width="253.521" height="78.933"/>
<text transform="matrix(1 0 0 1 813.7235 5830.0361)"><tspan x="0" y="0" fill="#494949" font-family="'HelveticaNeue-Light'" font-size="14">Диалог поиска находится: Главное </tspan><tspan x="0" y="20.55" fill="#494949" font-family="'HelveticaNeue-Light'" font-size="14">меню &gt; Инструменты &gt; поиск. </tspan><tspan x="0" y="41.1" fill="#494949" font-family="'HelveticaNeue-Light'" font-size="14">Быстрый вызов возможен сочетанием </tspan><tspan x="0" y="61.65" fill="#494949" font-family="'HelveticaNeue-Light'" font-size="14">клавиш ctrl+f.</tspan></text>
<g>
	<text transform="matrix(1 0 0 1 813.7233 5803.8594)" fill="#494949" font-family="'HelveticaNeue'" font-size="14">Поиск на youtube и vk</text>
</g>
<g id="VmYNjm.tif">
	
		<image overflow="visible" width="608" height="410" id="Layer_0_1_" xlink:href="BEB648A5F2544E3D.jpeg"  transform="matrix(0.5 0 0 0.5 646.6136 4428.1431)">
	</image>
</g>
<g>
	<rect x="340.033" y="5798.048" fill="none" width="279.7" height="121.852"/>
	<text transform="matrix(0.9899 0 0 1 340.0327 5808.0903)"><tspan x="0" y="0" fill="#333333" font-family="'HelveticaNeue-Light'" font-size="14.0652">Вы можете дописать или исправить текст, </tspan><tspan x="0" y="20.646" fill="#333333" font-family="'HelveticaNeue-Light'" font-size="14.0652">уже прикрепленный к любому количеству </tspan><tspan x="0" y="41.292" fill="#333333" font-family="'HelveticaNeue-Light'" font-size="14.0652">постов, папок и других директорий в одно </tspan><tspan x="0" y="61.937" fill="#333333" font-family="'HelveticaNeue-Light'" font-size="14.0652">движение. Исправьте хэштег или адрес </tspan><tspan x="0" y="82.583" fill="#333333" font-family="'HelveticaNeue-Light'" font-size="14.0652">проведения мероприятия во всех </tspan><tspan x="0" y="103.229" fill="#333333" font-family="'HelveticaNeue-Light'" font-size="14.0652">запланированных анонсах сразу.</tspan></text>
</g>
<g>
	<text transform="matrix(1 0 0 1 340.0327 5781.8589)" fill="#333333" font-family="'HelveticaNeue'" font-size="14">Быстрые исправления.</text>
</g>
<line fill="none" stroke="#999999" stroke-miterlimit="10" x1="235" y1="5210.5" x2="975" y2="5210.5"/>
<line fill="none" stroke="#999999" stroke-miterlimit="10" x1="235" y1="4745.5" x2="975" y2="4745.5"/>
<g>
	<g>
		<g>
			<path fill="#74A93C" d="M253.935,5013.561v34.5h60.375v-34.5H253.935z"/>
		</g>
	</g>
	<g>
		<g>
			<path fill="#74A93C" d="M322.935,5013.561v34.5h60.375v-34.5H322.935z"/>
		</g>
	</g>
	<g>
		<g>
			<path fill="#74A93C" d="M253.935,5056.686v34.5h60.375v-34.5H253.935z"/>
		</g>
	</g>
	<g opacity="0.3">
		<g>
			<path fill="#74A93C" d="M262.56,5004.936v34.5h60.375v-34.5H262.56z"/>
		</g>
	</g>
	<g opacity="0.3">
		<g>
			<path fill="#74A93C" d="M331.56,5004.936v34.5h60.375v-34.5H331.56z"/>
		</g>
	</g>
	<g opacity="0.3">
		<g>
			<path fill="#74A93C" d="M262.56,5048.061v34.5h60.375v-34.5H262.56z"/>
		</g>
	</g>
	<g opacity="0.3">
		<g>
			<path fill="#74A93C" d="M331.56,5048.061v34.5h60.375v-34.5H331.56z"/>
		</g>
	</g>
	<g opacity="0.1">
		<g>
			<path fill="#74A93C" d="M271.185,4996.311v34.5h60.375v-34.5H271.185z"/>
		</g>
	</g>
	<g opacity="0.1">
		<g>
			<path fill="#74A93C" d="M340.185,4996.311v34.5h60.375v-34.5H340.185z"/>
		</g>
	</g>
	<g opacity="0.1">
		<g>
			<path fill="#74A93C" d="M271.185,5039.436v34.5h60.375v-34.5H271.185z"/>
		</g>
	</g>
	<g opacity="0.1">
		<g>
			<path fill="#74A93C" d="M340.185,5039.436v34.5h60.375v-34.5H340.185z"/>
		</g>
	</g>
	<g>
		<g>
			<path fill="#74A93C" d="M322.935,5056.686v34.5h60.375v-34.5H322.935z"/>
		</g>
	</g>
</g>
<line fill="#494949" stroke="#494949" stroke-width="2" stroke-miterlimit="10" x1="259.991" y1="5704.865" x2="259.991" y2="5664.824"/>
<line fill="#F2F2F2" stroke="#494949" stroke-width="2" stroke-miterlimit="10" x1="239.971" y1="5664.824" x2="280.012" y2="5664.824"/>
<g>
	<path fill="#494949" d="M298.031,5636.001c5.521,0,10.012,4.492,10.012,10.012v76.078c0,5.521-4.491,10.012-10.012,10.012h-76.078
		c-5.521,0-10.012-4.491-10.012-10.012v-76.078c0-5.521,4.491-10.012,10.012-10.012H298.031 M298.031,5634.001h-76.078
		c-6.634,0-12.012,5.378-12.012,12.012v76.078c0,6.634,5.378,12.012,12.012,12.012h76.078c6.634,0,12.012-5.378,12.012-12.012
		v-76.078C310.043,5639.379,304.665,5634.001,298.031,5634.001L298.031,5634.001z"/>
</g>
<g>
	<path fill="#494949" d="M298.031,5798.828c5.521,0,10.012,4.491,10.012,10.012v76.078c0,5.521-4.491,10.012-10.012,10.012h-76.078
		c-5.521,0-10.012-4.492-10.012-10.012v-76.078c0-5.521,4.491-10.012,10.012-10.012H298.031 M298.031,5796.828h-76.078
		c-6.634,0-12.012,5.378-12.012,12.012v76.078c0,6.634,5.378,12.012,12.012,12.012h76.078c6.634,0,12.012-5.378,12.012-12.012
		v-76.078C310.043,5802.206,304.665,5796.828,298.031,5796.828L298.031,5796.828z"/>
</g>
<g>
	<path fill="#494949" d="M785.128,5636.001c5.521,0,10.012,4.492,10.012,10.012v76.078c0,5.521-4.491,10.012-10.012,10.012h-76.078
		c-5.521,0-10.012-4.491-10.012-10.012v-76.078c0-5.521,4.491-10.012,10.012-10.012H785.128 M785.128,5634.001h-76.078
		c-6.634,0-12.012,5.378-12.012,12.012v76.078c0,6.634,5.378,12.012,12.012,12.012h76.078c6.634,0,12.012-5.378,12.012-12.012
		v-76.078C797.14,5639.379,791.762,5634.001,785.128,5634.001L785.128,5634.001z"/>
</g>
<g>
	<path fill="#494949" d="M785.128,5798.828c5.521,0,10.012,4.491,10.012,10.012v76.078c0,5.521-4.491,10.012-10.012,10.012h-76.078
		c-5.521,0-10.012-4.492-10.012-10.012v-76.078c0-5.521,4.491-10.012,10.012-10.012H785.128 M785.128,5796.828h-76.078
		c-6.634,0-12.012,5.378-12.012,12.012v76.078c0,6.634,5.378,12.012,12.012,12.012h76.078c6.634,0,12.012-5.378,12.012-12.012
		v-76.078C797.14,5802.206,791.762,5796.828,785.128,5796.828L785.128,5796.828z"/>
</g>
<text transform="matrix(1 0 0 1 256.5247 5857.7495)" font-family="'MyriadPro-Regular'" font-size="39.16">A</text>
<text transform="matrix(1 0 0 1 237.7229 5857.749)" font-family="'MyriadPro-Regular'" font-size="39.16">a</text>
<rect x="238.723" y="5859.391" fill="#AF1035" width="16.155" height="3"/>
<g>
	
		<line fill="none" stroke="#494949" stroke-width="2" stroke-linecap="round" stroke-linejoin="round" stroke-miterlimit="10" x1="731.062" y1="5659.631" x2="747.089" y2="5678.328"/>
	
		<line fill="none" stroke="#494949" stroke-width="2" stroke-linecap="round" stroke-linejoin="round" stroke-miterlimit="10" x1="747.089" y1="5678.328" x2="763.473" y2="5658.552"/>
	
		<circle fill="none" stroke="#494949" stroke-width="2" stroke-linecap="round" stroke-linejoin="round" stroke-miterlimit="10" cx="731.062" cy="5659.655" r="1.336"/>
	
		<circle fill="none" stroke="#494949" stroke-width="2" stroke-linecap="round" stroke-linejoin="round" stroke-miterlimit="10" cx="763.115" cy="5659.631" r="1.336"/>
	<g>
		
			<polyline fill="none" stroke="#494949" stroke-width="2" stroke-linecap="round" stroke-linejoin="round" stroke-miterlimit="10" points="
			734.262,5695.453 747.241,5709.81 759.915,5695.453 		"/>
		
			<line fill="none" stroke="#494949" stroke-width="2" stroke-linecap="round" stroke-linejoin="round" stroke-miterlimit="10" x1="747.241" y1="5709.81" x2="747.241" y2="5678.9"/>
	</g>
</g>
<g>
	
		<line fill="none" stroke="#494949" stroke-width="2" stroke-linecap="round" stroke-linejoin="round" stroke-miterlimit="10" x1="781.6" y1="5878.664" x2="755.509" y2="5852.573"/>
	
		<circle fill="none" stroke="#494949" stroke-width="2" stroke-linecap="round" stroke-linejoin="round" stroke-miterlimit="10" cx="741.614" cy="5838.678" r="19.643"/>
</g>
<rect y="6017.934" width="1210" height="550"/>
<g>
	<rect x="197.685" y="6080.88" fill="none" width="484.451" height="104.485"/>
	<text transform="matrix(1 0 0 1 197.6854 6116.9976)"><tspan x="0" y="0" fill="#FFFFFF" font-family="'HelveticaNeue-Thin'" font-size="50.5846">Панель буфера.</tspan><tspan x="0" y="40.31" fill="#B3B3B3" font-family="'HelveticaNeue-Light'" font-size="26.8731">Верстак и полка для заготовок.</tspan></text>
	<rect x="195.775" y="6202.607" fill="none" width="488.734" height="309.614"/>
	<text transform="matrix(1 0 0 1 195.7743 6212.7085)"><tspan x="0" y="0" fill="#F2F2F2" font-family="'MyriadPro-Regular'" font-size="14.2269">Картинка за картинкой, текст за текстом, контент образует папки, темы, посты.  </tspan><tspan x="0" y="20.551" fill="#F2F2F2" font-family="'MyriadPro-Regular'" font-size="14.2269">Ведение сообщества представляет собой сотни подобных операций в день. </tspan><tspan x="0" y="41.101" fill="#F2F2F2" font-family="'MyriadPro-Regular'" font-size="14.2269">Для этого необходимо постоянно переходить между окнами и меню. Как </tspan><tspan x="0" y="61.65" fill="#F2F2F2" font-family="'MyriadPro-Regular'" font-size="14.2269">сберечь время и уменьшить бесконечные смены контекста?</tspan><tspan x="0" y="102.75" fill="#F2F2F2" font-family="'MyriadPro-Regular'" font-size="14.2269">Для временного размещения объектов и перемещения в любое место мы </tspan><tspan x="0" y="123.301" fill="#F2F2F2" font-family="'MyriadPro-Regular'" font-size="14.2269">реализовали визуальный буфер обмена. Панель, которую можно вызвать или </tspan><tspan x="0" y="143.851" fill="#F2F2F2" font-family="'MyriadPro-Regular'" font-size="14.2269">скрыть в любой момент, поместить внутрь любые объекты в любом </tspan><tspan x="0" y="164.4" fill="#F2F2F2" font-family="'MyriadPro-Regular'" font-size="14.2269">количестве. Нажатие Enter помещает объекты в панель буфера почти из </tspan><tspan x="0" y="184.95" fill="#F2F2F2" font-family="'MyriadPro-Regular'" font-size="14.2269">любого контекста. Используйте буфер при импорте, поиске, загрузке.</tspan><tspan x="0" y="226.05" fill="#F2F2F2" font-family="'MyriadPro-Regular'" font-size="14.2269">Попробуйте совершать действия в правой панели с добавленными </tspan><tspan x="0" y="246.601" fill="#F2F2F2" font-family="'MyriadPro-Regular'" font-size="14.2269">объектами. Например, создайте серию тематических постов из папок. Или </tspan><tspan x="0" y="267.15" fill="#F2F2F2" font-family="'MyriadPro-Regular'" font-size="14.2269">перетащите текст на картинку. Будет создана папка. Из множества папок </tspan><tspan x="0" y="287.7" fill="#F2F2F2" font-family="'MyriadPro-Regular'" font-size="14.2269">можно создать серию постов. Например, серию утренних рецептов кофе.</tspan></text>
</g>
<image overflow="visible" width="1123" height="2071" xlink:href="BEB648A5F2544E3F.jpeg"  transform="matrix(0.24 0 0 0.24 798.4276 6044.4141)">
</image>
</svg>
