<?xml version="1.0" encoding="utf-8"?>
<!-- Generator: Adobe Illustrator 17.0.0, SVG Export Plug-In . SVG Version: 6.00 Build 0)  -->
<!DOCTYPE svg PUBLIC "-//W3C//DTD SVG 1.1//EN" "http://www.w3.org/Graphics/SVG/1.1/DTD/svg11.dtd">
<svg version="1.1" id="Слой_1" xmlns="http://www.w3.org/2000/svg" xmlns:xlink="http://www.w3.org/1999/xlink" x="0px" y="0px"
	 width="70px" height="54px" viewBox="0 0 70 54" enable-background="new 0 0 70 54" xml:space="preserve">
<path fill="#CCCCCC" d="M38.616,7.195c-0.795-0.05-3.057,0.102-4.432,0.182s-3.006,0.684-3.006,0.684
	c-0.42,0.316-1.044,0.966-1.044,0.966c-0.507,0.367-2.064,2.169-2.413,2.553c-0.35,0.385-1.032,2.151-1.399,3.025
	c-0.367,0.874-0.874,3.463-0.962,4.285c-0.087,0.822-0.63,1.836-0.787,2.448c-0.157,0.612-1.172,2.029-1.556,2.763
	c-0.385,0.734-0.56,2.308-0.63,2.886s-0.839,1.486-1.364,2.064s-1.644,2.169-1.994,3.235c-0.35,1.067-0.192,2.553-0.07,3.095
	s0.35,1.801,0.245,2.221c-0.105,0.42-3.148,1.521-3.82,1.819s-3.56,2.081-4.696,3.043S8.52,46.095,8.52,46.095
	C7.226,48.281,5.739,54,5.739,54s58.917,0,59.004,0s-0.787-2.973-1.084-4.302c-0.297-1.329-0.822-2.343-1.259-3.69
	s-1.242-2.973-2.326-4.162c-1.084-1.189-3.795-2.606-4.494-2.763c-0.7-0.157-3.165-0.927-3.148-1.434
	c0.017-0.507-0.822-2.658-1.382-3.725c-0.56-1.067-2.116-3.183-2.308-3.795c-0.192-0.612-0.49-2.343-0.63-2.903
	c-0.14-0.56-0.857-2.92-1.032-3.62s-0.14-2.448-0.157-3.655c-0.017-1.207-0.28-1.679-0.595-3.533
	c-0.315-1.854-1.067-2.606-1.959-4.564c-0.892-1.959-3.113-3.865-4.389-4.477C39.981,7.377,39.022,7.221,38.616,7.195z"/>
<path fill="#B3B3B3" d="M31.129,22.221c0,0,2.468-1.683,5.497-0.505s5.805,2.72,6.647,3.506s3.337,2.917,3.982,3.702
	s1.458,2.216,1.935,3.141c0.477,0.925,1.402,1.935,1.823,3.365c0.421,1.43,0.14,4.655-0.477,5.721
	c-0.617,1.066-2.496,3.646-2.131,4.207c0.365,0.561,3.365,1.122,4.263,2.608s0.252,6.03,0.252,6.03H12.984
	c0,0-0.14-6.31,1.262-7.179c1.402-0.869,9.451-1.346,8.974-3.281c0,0-1.486-2.103-2.047-3.814s-1.15-4.123-1.402-4.599
	c-0.252-0.477-0.224-1.683,0.869-3.421c1.094-1.739,3.73-3.814,4.235-4.768c0.505-0.954,3.786-2.524,3.982-2.776
	C29.054,23.904,31.129,22.221,31.129,22.221z"/>
</svg>
