<?xml version="1.0" encoding="utf-8"?>
<!-- Generator: Adobe Illustrator 17.0.0, SVG Export Plug-In . SVG Version: 6.00 Build 0)  -->
<!DOCTYPE svg PUBLIC "-//W3C//DTD SVG 1.1//EN" "http://www.w3.org/Graphics/SVG/1.1/DTD/svg11.dtd">
<svg version="1.1" id="Слой_1" xmlns="http://www.w3.org/2000/svg" xmlns:xlink="http://www.w3.org/1999/xlink" x="0px" y="0px"
	 width="21px" height="17px" viewBox="0 0 21 17" enable-background="new 0 0 21 17" xml:space="preserve">
<path fill="#F2F2F2" d="M19.4961529,4.6664267h-7.6078367V1.4389933c0-0.5578917-0.3372879-1.065662-0.8650055-1.3026839
	c-0.5272274-0.237022-1.1508923-0.160669-1.5997944,0.1958007L0.5428925,7.393116C0.1987505,7.6666751,0,8.0723295,0,8.499999
	c0,0.4276705,0.1987505,0.8333244,0.5428925,1.106883l8.8806238,7.0610065C9.6986341,16.8866425,10.0398388,17,10.38447,17
	c0.2168636,0,0.435195-0.0449677,0.6388407-0.1363106c0.5277176-0.2370224,0.8650055-0.7447929,0.8650055-1.3026848v-3.2274332
	h7.6078367C20.3268909,12.3335714,21,11.6894903,21,10.894577V6.1054215C21,5.3105083,20.3268909,4.6664267,19.4961529,4.6664267z"
	/>
</svg>
