<?xml version="1.0" encoding="utf-8"?>
<!-- Generator: Adobe Illustrator 17.0.0, SVG Export Plug-In . SVG Version: 6.00 Build 0)  -->
<!DOCTYPE svg PUBLIC "-//W3C//DTD SVG 1.1//EN" "http://www.w3.org/Graphics/SVG/1.1/DTD/svg11.dtd">
<svg version="1.1" id="Слой_1" xmlns="http://www.w3.org/2000/svg" xmlns:xlink="http://www.w3.org/1999/xlink" x="0px" y="0px"
	 width="24px" height="24px" viewBox="0 0 24 24" enable-background="new 0 0 24 24" xml:space="preserve">
<g>
	<g>
		<path fill="#F2F2F2" d="M12.792,21h-1.471c-0.755,0-1.007-1.205-1.007-1.529l-1.212-8.138C9.096,10.542,10.184,10,11.625,10h0.862
			c1.395,0,2.53,0.565,2.53,1.26l-1.224,8.284C13.8,19.795,13.548,21,12.792,21z M11.47,20h1.173
			c0.075-0.141,0.157-0.417,0.157-0.529l1.198-8.113C13.817,11.228,13.299,11,12.488,11h-0.862c-0.896,0-1.364,0.236-1.516,0.353
			l1.198,8.045C11.312,19.57,11.395,19.857,11.47,20z"/>
		<path fill="#F2F2F2" d="M12.057,9.593c-1.351,0-2.451-1.1-2.451-2.451s1.1-2.451,2.451-2.451c1.352,0,2.451,1.1,2.451,2.451
			S13.408,9.593,12.057,9.593z M12.057,5.691c-0.8,0-1.451,0.651-1.451,1.451s0.651,1.451,1.451,1.451
			c0.8,0,1.451-0.651,1.451-1.451S12.857,5.691,12.057,5.691z"/>
	</g>
	<g>
		<path fill="#F2F2F2" d="M9,19H6.752c-0.578,0-0.868-0.706-0.868-1.101l-0.879-6.126c-0.005-0.34,0.138-0.675,0.82-0.745
			C6.083,11.001,6.465,11,6.959,11h0.64c0.025,0,2.563,0,2.563,1h-1c0,0,0.09,0.312,0.122,0.335C9.135,12.224,8.324,12,7.599,12
			H6.973h0c-0.347,0-0.694,0-0.928,0.013l0.834,5.816c0.004,0.064,0.02,0.125,0.036,0.171H9V19z"/>
		<path fill="#F2F2F2" d="M7.288,10.551c-1.041,0-1.887-0.847-1.887-1.887s0.846-1.887,1.887-1.887s1.887,0.846,1.887,1.887
			S8.328,10.551,7.288,10.551z M7.288,7.777c-0.489,0-0.887,0.398-0.887,0.887c0,0.489,0.398,0.887,0.887,0.887
			c0.489,0,0.887-0.398,0.887-0.887C8.175,8.175,7.777,7.777,7.288,7.777z"/>
	</g>
	<g>
		<path fill="#F2F2F2" d="M17.408,19H16.34c-0.578,0-0.868-1-0.868-1h1c0.002,0,0.015-0.037,0.029,0h0.745
			c0.016-0.038,0.028-0.08,0.03-0.105l0.835-5.881C17.873,12,17.522,12,17.2,12h-0.639c0,0,0,0-0.001,0
			c-0.522,0-1.05,0.149-1.18,0.193C15.453,12.169,15.588,12,15.588,12h-1c0-1,0.144-0.753,0.825-0.823
			C15.672,11.15,16.054,11,16.548,11h0.64c0.482,0,0.864,0.001,1.129,0.028c0.697,0.07,0.844,0.405,0.844,0.674l-0.889,6.268
			C18.276,18.294,17.986,19,17.408,19z"/>
		<path fill="#F2F2F2" d="M16.876,10.551c-1.04,0-1.887-0.847-1.887-1.887s0.847-1.887,1.887-1.887s1.887,0.846,1.887,1.887
			S17.916,10.551,16.876,10.551z M16.876,7.777c-0.489,0-0.887,0.398-0.887,0.887c0,0.489,0.397,0.887,0.887,0.887
			s0.887-0.398,0.887-0.887C17.763,8.175,17.365,7.777,16.876,7.777z"/>
	</g>
</g>
<g>
	<rect x="17" y="3.083" fill="#F2F2F2" width="5" height="0.833"/>
	<rect x="19.083" y="1" fill="#F2F2F2" width="0.833" height="5"/>
</g>
</svg>
