<?xml version="1.0" encoding="utf-8"?>
<!-- Generator: Adobe Illustrator 17.0.0, SVG Export Plug-In . SVG Version: 6.00 Build 0)  -->
<!DOCTYPE svg PUBLIC "-//W3C//DTD SVG 1.1//EN" "http://www.w3.org/Graphics/SVG/1.1/DTD/svg11.dtd">
<svg version="1.1" id="Слой_1" xmlns="http://www.w3.org/2000/svg" xmlns:xlink="http://www.w3.org/1999/xlink" x="0px" y="0px"
	 width="24px" height="24px" viewBox="0 0 24 24" enable-background="new 0 0 24 24" xml:space="preserve">
<g>
	<rect x="17" y="3.083" fill="#F2F2F2" width="5" height="0.833"/>
	<rect x="19.083" y="1" fill="#F2F2F2" width="0.833" height="5"/>
</g>
<path fill="#F2F2F2" d="M11.685,15.051c-0.125,0-0.248-0.047-0.34-0.134L8.66,12.421c-0.202-0.188-0.214-0.504-0.026-0.707
	c0.189-0.202,0.505-0.212,0.707-0.026l2.249,2.09l2.992-4.602c0.151-0.232,0.462-0.297,0.691-0.147
	c0.231,0.151,0.297,0.46,0.146,0.692l-3.315,5.101c-0.081,0.124-0.212,0.206-0.358,0.224C11.726,15.05,11.705,15.051,11.685,15.051z
	"/>
</svg>
