<?xml version="1.0" encoding="utf-8"?>
<!-- Generator: Adobe Illustrator 17.0.0, SVG Export Plug-In . SVG Version: 6.00 Build 0)  -->
<!DOCTYPE svg PUBLIC "-//W3C//DTD SVG 1.1//EN" "http://www.w3.org/Graphics/SVG/1.1/DTD/svg11.dtd">
<svg version="1.1" id="Слой_1" xmlns="http://www.w3.org/2000/svg" xmlns:xlink="http://www.w3.org/1999/xlink" x="0px" y="0px"
	 width="24px" height="24px" viewBox="0 0 24 24" enable-background="new 0 0 24 24" xml:space="preserve">
<g>
	<rect x="17" y="3.083" fill="#F2F2F2" width="5" height="0.833"/>
	<rect x="19.083" y="1" fill="#F2F2F2" width="0.833" height="5"/>
</g>
<g>
	<path fill="#F2F2F2" d="M12.696,21h-1.471c-0.708,0-1.007-0.983-1.007-1.375L9.005,11.41C9,10.694,9.967,10,11.529,10h0.862
		c1.348,0,2.529,0.625,2.529,1.337l-1.223,8.36C13.703,20.017,13.403,21,12.696,21z M11.344,20h1.234
		c0.06-0.098,0.125-0.285,0.125-0.375l1.2-8.206C13.735,11.272,13.216,11,12.392,11h-0.862c-0.864,0-1.367,0.27-1.518,0.414
		l1.201,8.139C11.217,19.702,11.284,19.901,11.344,20z"/>
	<path fill="#F2F2F2" d="M11.96,9.901c-1.351,0-2.451-1.1-2.451-2.451S10.609,5,11.96,5s2.451,1.1,2.451,2.451
		S13.312,9.901,11.96,9.901z M11.96,6c-0.8,0-1.451,0.651-1.451,1.451s0.651,1.451,1.451,1.451s1.451-0.651,1.451-1.451
		S12.76,6,11.96,6z"/>
</g>
</svg>
