<?xml version="1.0" encoding="utf-8"?>
<!-- Generator: Adobe Illustrator 17.0.0, SVG Export Plug-In . SVG Version: 6.00 Build 0)  -->
<!DOCTYPE svg PUBLIC "-//W3C//DTD SVG 1.1//EN" "http://www.w3.org/Graphics/SVG/1.1/DTD/svg11.dtd">
<svg version="1.1" id="Слой_1" xmlns="http://www.w3.org/2000/svg" xmlns:xlink="http://www.w3.org/1999/xlink" x="0px" y="0px"
	 width="31px" height="21px" viewBox="0 0 31 21" enable-background="new 0 0 31 21" xml:space="preserve">
<path fill="#F2F2F2" d="M0,0v21h31V0H0z M4,7h4v3H4V7z M8,16H4v-3h4V16z M13,16H9v-3h4V16z M18,16h-4v-3h4V16z M18,12H4v-1h14V12z
	 M9,10V7h4v3H9z M18,10h-4V7h4V10z M18,6H4V5h14V6z M28.4179688,9.3535156l-3.0029297,3
	C25.3173828,12.4511719,25.1894531,12.5,25.0615234,12.5c-0.1259766,0-0.2529297-0.0478516-0.3496094-0.1425781
	l-3.0615234-3.0004883c-0.1972656-0.1928711-0.2011719-0.5097656-0.0078125-0.7070312
	c0.1943359-0.1948242,0.5117188-0.2011719,0.7070312-0.0068359l2.7089844,2.6538086l2.6523438-2.6503906
	c0.1953125-0.1953125,0.5117188-0.1953125,0.7070312,0S28.6132812,9.1586914,28.4179688,9.3535156z"/>
</svg>
